M48
; DRILL file {KiCad (5.1.8-0-10_14)} date Thursday, December 10, 2020 at 08:15:55 PM
; FORMAT={-:-/ absolute / metric / decimal}
; #@! TF.CreationDate,2020-12-10T20:15:55+01:00
; #@! TF.GenerationSoftware,Kicad,Pcbnew,(5.1.8-0-10_14)
FMAT,2
METRIC
T1C0.400
T2C0.800
T3C1.000
T4C1.100
T5C1.300
T6C3.200
T7C3.200
T8C3.500
%
G90
G05
T1
X103.0Y-52.0
X103.0Y-63.0
T2
X97.0Y-63.84
X97.0Y-74.0
X107.0Y-53.38
X107.0Y-55.92
X107.0Y-58.46
X107.0Y-61.0
X114.62Y-53.38
X114.62Y-55.92
X114.62Y-58.46
X114.62Y-61.0
T3
X76.2Y-83.82
X76.2Y-86.36
X76.2Y-88.9
X81.28Y-83.82
X81.28Y-86.36
X81.28Y-88.9
X85.92Y-54.46
X85.92Y-57.0
X88.46Y-54.46
X88.46Y-57.0
X91.0Y-54.46
X91.0Y-57.0
X109.22Y-96.52
X109.22Y-99.06
X101.6Y-88.9
X104.14Y-88.9
X106.68Y-88.9
X109.22Y-88.9
X111.76Y-88.9
X114.3Y-88.9
X116.84Y-88.9
X119.38Y-88.9
X114.3Y-96.52
X114.3Y-99.06
X104.14Y-96.52
X104.14Y-99.06
X119.38Y-96.52
X119.38Y-99.06
X93.98Y-101.6
X96.52Y-101.6
X101.6Y-106.68
X104.14Y-106.68
X106.68Y-106.68
X109.22Y-106.68
X111.76Y-106.68
X114.3Y-106.68
X116.84Y-106.68
X119.38Y-106.68
X93.98Y-93.98
X96.52Y-93.98
X126.0Y-62.0
X126.0Y-64.54
X126.0Y-67.08
T4
X91.0Y-65.0
X91.0Y-67.54
X91.0Y-70.08
T6
X126.0Y-54.0
T7
X74.0Y-106.0
X74.0Y-54.0
X126.0Y-106.0
T8
X74.34Y-67.54
T5
G00X105.4Y-69.0
M15
G01X106.6Y-69.0
M16
G05
G00X105.4Y-73.5
M15
G01X106.6Y-73.5
M16
G05
G00X105.4Y-78.0
M15
G01X106.6Y-78.0
M16
G05
G00X109.9Y-69.0
M15
G01X111.1Y-69.0
M16
G05
G00X109.9Y-73.5
M15
G01X111.1Y-73.5
M16
G05
G00X109.9Y-78.0
M15
G01X111.1Y-78.0
M16
G05
G00X114.4Y-69.0
M15
G01X115.6Y-69.0
M16
G05
G00X114.4Y-73.5
M15
G01X115.6Y-73.5
M16
G05
G00X114.4Y-78.0
M15
G01X115.6Y-78.0
M16
G05
T0
M30
