%TF.GenerationSoftware,KiCad,Pcbnew,(5.1.8-0-10_14)*%
%TF.CreationDate,2020-12-10T20:15:51+01:00*%
%TF.ProjectId,tiny-12V-programmer,74696e79-2d31-4325-962d-70726f677261,rev?*%
%TF.SameCoordinates,Original*%
%TF.FileFunction,Copper,L2,Bot*%
%TF.FilePolarity,Positive*%
%FSLAX46Y46*%
G04 Gerber Fmt 4.6, Leading zero omitted, Abs format (unit mm)*
G04 Created by KiCad (PCBNEW (5.1.8-0-10_14)) date 2020-12-10 20:15:51*
%MOMM*%
%LPD*%
G01*
G04 APERTURE LIST*
%TA.AperFunction,ComponentPad*%
%ADD10O,1.700000X1.700000*%
%TD*%
%TA.AperFunction,ComponentPad*%
%ADD11R,1.700000X1.700000*%
%TD*%
%TA.AperFunction,ComponentPad*%
%ADD12C,6.400000*%
%TD*%
%TA.AperFunction,ComponentPad*%
%ADD13O,1.600000X1.600000*%
%TD*%
%TA.AperFunction,ComponentPad*%
%ADD14R,1.600000X1.600000*%
%TD*%
%TA.AperFunction,ComponentPad*%
%ADD15O,3.200000X2.000000*%
%TD*%
%TA.AperFunction,ComponentPad*%
%ADD16R,3.200000X2.000000*%
%TD*%
%TA.AperFunction,ComponentPad*%
%ADD17C,1.600000*%
%TD*%
%TA.AperFunction,ComponentPad*%
%ADD18O,2.000000X1.905000*%
%TD*%
%TA.AperFunction,ComponentPad*%
%ADD19R,2.000000X1.905000*%
%TD*%
%TA.AperFunction,ComponentPad*%
%ADD20C,1.700000*%
%TD*%
%TA.AperFunction,ViaPad*%
%ADD21C,0.800000*%
%TD*%
%TA.AperFunction,Conductor*%
%ADD22C,0.500000*%
%TD*%
%TA.AperFunction,Conductor*%
%ADD23C,0.254000*%
%TD*%
%TA.AperFunction,Conductor*%
%ADD24C,0.100000*%
%TD*%
G04 APERTURE END LIST*
D10*
%TO.P,J8,3*%
%TO.N,+12V*%
X126000000Y-67080000D03*
%TO.P,J8,2*%
%TO.N,+5V*%
X126000000Y-64540000D03*
D11*
%TO.P,J8,1*%
%TO.N,GND*%
X126000000Y-62000000D03*
%TD*%
D12*
%TO.P,H1,1*%
%TO.N,GND*%
X126000000Y-54000000D03*
%TD*%
D10*
%TO.P,U2,6*%
%TO.N,Net-(SW2-Pad8)*%
X81280000Y-83820000D03*
%TO.P,U2,4*%
%TO.N,Net-(J6-Pad1)*%
X81280000Y-88900000D03*
%TO.P,U2,5*%
%TO.N,+5V*%
X81280000Y-86360000D03*
%TO.P,U2,3*%
%TO.N,Net-(SW2-Pad5)*%
X76200000Y-88900000D03*
D11*
%TO.P,U2,1*%
%TO.N,Net-(SW2-Pad2)*%
X76200000Y-83820000D03*
D10*
%TO.P,U2,2*%
%TO.N,GND*%
X76200000Y-86360000D03*
%TD*%
D13*
%TO.P,U1,8*%
%TO.N,+12V*%
X114620000Y-53380000D03*
%TO.P,U1,4*%
%TO.N,Net-(U1-Pad4)*%
X107000000Y-61000000D03*
%TO.P,U1,7*%
%TO.N,Net-(U1-Pad7)*%
X114620000Y-55920000D03*
%TO.P,U1,3*%
%TO.N,Net-(J4-Pad5)*%
X107000000Y-58460000D03*
%TO.P,U1,6*%
%TO.N,Net-(Q1-Pad1)*%
X114620000Y-58460000D03*
%TO.P,U1,2*%
%TO.N,Net-(R1-Pad2)*%
X107000000Y-55920000D03*
%TO.P,U1,5*%
%TO.N,GND*%
X114620000Y-61000000D03*
D14*
%TO.P,U1,1*%
%TO.N,Net-(U1-Pad1)*%
X107000000Y-53380000D03*
%TD*%
D15*
%TO.P,SW2,4*%
%TO.N,Net-(J5-Pad1)*%
X110500000Y-69000000D03*
D16*
%TO.P,SW2,1*%
%TO.N,Net-(J3-Pad1)*%
X106000000Y-69000000D03*
D15*
%TO.P,SW2,7*%
%TO.N,Net-(J7-Pad1)*%
X115000000Y-69000000D03*
%TO.P,SW2,2*%
%TO.N,Net-(SW2-Pad2)*%
X106000000Y-73500000D03*
%TO.P,SW2,5*%
%TO.N,Net-(SW2-Pad5)*%
X110500000Y-73500000D03*
%TO.P,SW2,8*%
%TO.N,Net-(SW2-Pad8)*%
X115000000Y-73500000D03*
%TO.P,SW2,3*%
%TO.N,Net-(J4-Pad1)*%
X106000000Y-78000000D03*
%TO.P,SW2,9*%
%TO.N,Net-(Q1-Pad2)*%
X115000000Y-78000000D03*
%TO.P,SW2,6*%
%TO.N,Net-(J4-Pad3)*%
X110500000Y-78000000D03*
%TD*%
D13*
%TO.P,R3,2*%
%TO.N,GND*%
X97000000Y-63840000D03*
D17*
%TO.P,R3,1*%
%TO.N,Net-(Q1-Pad2)*%
X97000000Y-74000000D03*
%TD*%
D18*
%TO.P,Q1,3*%
%TO.N,+12V*%
X91000000Y-65000000D03*
%TO.P,Q1,2*%
%TO.N,Net-(Q1-Pad2)*%
X91000000Y-67540000D03*
D19*
%TO.P,Q1,1*%
%TO.N,Net-(Q1-Pad1)*%
X91000000Y-70080000D03*
%TD*%
D10*
%TO.P,J10,8*%
%TO.N,GND*%
X119380000Y-106680000D03*
%TO.P,J10,7*%
X116840000Y-106680000D03*
%TO.P,J10,6*%
X114300000Y-106680000D03*
%TO.P,J10,5*%
X111760000Y-106680000D03*
%TO.P,J10,4*%
X109220000Y-106680000D03*
%TO.P,J10,3*%
X106680000Y-106680000D03*
%TO.P,J10,2*%
X104140000Y-106680000D03*
D11*
%TO.P,J10,1*%
X101600000Y-106680000D03*
%TD*%
D10*
%TO.P,J9,8*%
%TO.N,+5V*%
X119380000Y-88900000D03*
%TO.P,J9,7*%
X116840000Y-88900000D03*
%TO.P,J9,6*%
X114300000Y-88900000D03*
%TO.P,J9,5*%
X111760000Y-88900000D03*
%TO.P,J9,4*%
X109220000Y-88900000D03*
%TO.P,J9,3*%
X106680000Y-88900000D03*
%TO.P,J9,2*%
X104140000Y-88900000D03*
D11*
%TO.P,J9,1*%
X101600000Y-88900000D03*
%TD*%
D10*
%TO.P,J7,2*%
%TO.N,Net-(J7-Pad1)*%
X119380000Y-99060000D03*
D11*
%TO.P,J7,1*%
X119380000Y-96520000D03*
%TD*%
D10*
%TO.P,J6,2*%
%TO.N,Net-(J6-Pad1)*%
X114300000Y-99060000D03*
D11*
%TO.P,J6,1*%
X114300000Y-96520000D03*
%TD*%
D10*
%TO.P,J5,2*%
%TO.N,Net-(J5-Pad1)*%
X109220000Y-99060000D03*
D11*
%TO.P,J5,1*%
X109220000Y-96520000D03*
%TD*%
D20*
%TO.P,J4,6*%
%TO.N,GND*%
X91000000Y-54460000D03*
%TO.P,J4,4*%
%TO.N,Net-(J4-Pad4)*%
X88460000Y-54460000D03*
%TO.P,J4,2*%
%TO.N,+5V*%
X85920000Y-54460000D03*
%TO.P,J4,5*%
%TO.N,Net-(J4-Pad5)*%
X91000000Y-57000000D03*
%TO.P,J4,3*%
%TO.N,Net-(J4-Pad3)*%
X88460000Y-57000000D03*
%TO.P,J4,1*%
%TO.N,Net-(J4-Pad1)*%
%TA.AperFunction,ComponentPad*%
G36*
G01*
X86520000Y-57850000D02*
X85320000Y-57850000D01*
G75*
G02*
X85070000Y-57600000I0J250000D01*
G01*
X85070000Y-56400000D01*
G75*
G02*
X85320000Y-56150000I250000J0D01*
G01*
X86520000Y-56150000D01*
G75*
G02*
X86770000Y-56400000I0J-250000D01*
G01*
X86770000Y-57600000D01*
G75*
G02*
X86520000Y-57850000I-250000J0D01*
G01*
G37*
%TD.AperFunction*%
%TD*%
D10*
%TO.P,J3,2*%
%TO.N,Net-(J3-Pad1)*%
X104140000Y-99060000D03*
D11*
%TO.P,J3,1*%
X104140000Y-96520000D03*
%TD*%
D10*
%TO.P,J2,2*%
%TO.N,Net-(J2-Pad1)*%
X96520000Y-93980000D03*
D11*
%TO.P,J2,1*%
X93980000Y-93980000D03*
%TD*%
D10*
%TO.P,J1,2*%
%TO.N,Net-(J1-Pad1)*%
X96520000Y-101600000D03*
D11*
%TO.P,J1,1*%
X93980000Y-101600000D03*
%TD*%
D21*
%TO.N,+5V*%
X103000000Y-52000000D03*
X103000000Y-63000000D03*
%TD*%
D22*
%TO.N,Net-(J3-Pad1)*%
X115450010Y-70450010D02*
X107450010Y-70450010D01*
X104140000Y-96520000D02*
X107660000Y-93000000D01*
X121000000Y-90000000D02*
X121000000Y-76000000D01*
X118000000Y-93000000D02*
X121000000Y-90000000D01*
X121000000Y-76000000D02*
X115450010Y-70450010D01*
X107450010Y-70450010D02*
X106000000Y-69000000D01*
X107660000Y-93000000D02*
X118000000Y-93000000D01*
%TO.N,Net-(J4-Pad3)*%
X94500000Y-63000000D02*
X88500000Y-57000000D01*
X94500000Y-64970001D02*
X94500000Y-63000000D01*
X108500000Y-76000000D02*
X105529999Y-76000000D01*
X88500000Y-57000000D02*
X88460000Y-57000000D01*
X105529999Y-76000000D02*
X94500000Y-64970001D01*
X110500000Y-78000000D02*
X108500000Y-76000000D01*
%TO.N,Net-(J4-Pad1)*%
X85920000Y-57170000D02*
X85920000Y-57000000D01*
X93000000Y-64250000D02*
X85920000Y-57170000D01*
X93000000Y-65750000D02*
X93000000Y-64250000D01*
X105250000Y-78000000D02*
X93000000Y-65750000D01*
X106000000Y-78000000D02*
X105250000Y-78000000D01*
%TO.N,Net-(J5-Pad1)*%
X123000000Y-73750000D02*
X123000000Y-99864964D01*
X116500000Y-67250000D02*
X123000000Y-73750000D01*
X111779988Y-101619988D02*
X109220000Y-99060000D01*
X123000000Y-99864964D02*
X121380012Y-101484952D01*
X121380012Y-101619988D02*
X111779988Y-101619988D01*
X121380012Y-101484952D02*
X121380012Y-101619988D01*
X112250000Y-67250000D02*
X116500000Y-67250000D01*
X110500000Y-69000000D02*
X112250000Y-67250000D01*
%TO.N,Net-(J7-Pad1)*%
X119380000Y-93609964D02*
X119380000Y-96520000D01*
X115750000Y-69000000D02*
X122000000Y-75250000D01*
X122000000Y-90989964D02*
X119380000Y-93609964D01*
X122000000Y-75250000D02*
X122000000Y-90989964D01*
X115000000Y-69000000D02*
X115750000Y-69000000D01*
%TO.N,Net-(Q1-Pad2)*%
X97000000Y-73000000D02*
X97000000Y-74000000D01*
X91540000Y-67540000D02*
X97000000Y-73000000D01*
X91000000Y-67540000D02*
X91540000Y-67540000D01*
%TD*%
D23*
%TO.N,+5V*%
X123555330Y-51021161D02*
X123021161Y-51555330D01*
X122601467Y-52183446D01*
X122312377Y-52881372D01*
X122165000Y-53622285D01*
X122165000Y-54377715D01*
X122312377Y-55118628D01*
X122601467Y-55816554D01*
X123021161Y-56444670D01*
X123555330Y-56978839D01*
X124183446Y-57398533D01*
X124881372Y-57687623D01*
X125622285Y-57835000D01*
X126377715Y-57835000D01*
X127118628Y-57687623D01*
X127816554Y-57398533D01*
X128444670Y-56978839D01*
X128978839Y-56444670D01*
X129340001Y-55904153D01*
X129340000Y-105967721D01*
X129273286Y-106648126D01*
X129085057Y-107271570D01*
X128779323Y-107846573D01*
X128367721Y-108351248D01*
X127865933Y-108766362D01*
X127293077Y-109076104D01*
X126670961Y-109268682D01*
X125992417Y-109340000D01*
X74032279Y-109340000D01*
X73351874Y-109273286D01*
X72728430Y-109085057D01*
X72153427Y-108779323D01*
X71648752Y-108367721D01*
X71233638Y-107865933D01*
X70923896Y-107293077D01*
X70731318Y-106670961D01*
X70660000Y-105992417D01*
X70660000Y-105779872D01*
X71765000Y-105779872D01*
X71765000Y-106220128D01*
X71850890Y-106651925D01*
X72019369Y-107058669D01*
X72263962Y-107424729D01*
X72575271Y-107736038D01*
X72941331Y-107980631D01*
X73348075Y-108149110D01*
X73779872Y-108235000D01*
X74220128Y-108235000D01*
X74651925Y-108149110D01*
X75058669Y-107980631D01*
X75424729Y-107736038D01*
X75736038Y-107424729D01*
X75980631Y-107058669D01*
X76149110Y-106651925D01*
X76235000Y-106220128D01*
X76235000Y-105830000D01*
X100111928Y-105830000D01*
X100111928Y-107530000D01*
X100124188Y-107654482D01*
X100160498Y-107774180D01*
X100219463Y-107884494D01*
X100298815Y-107981185D01*
X100395506Y-108060537D01*
X100505820Y-108119502D01*
X100625518Y-108155812D01*
X100750000Y-108168072D01*
X102450000Y-108168072D01*
X102574482Y-108155812D01*
X102694180Y-108119502D01*
X102804494Y-108060537D01*
X102901185Y-107981185D01*
X102980537Y-107884494D01*
X103039502Y-107774180D01*
X103061513Y-107701620D01*
X103193368Y-107833475D01*
X103436589Y-107995990D01*
X103706842Y-108107932D01*
X103993740Y-108165000D01*
X104286260Y-108165000D01*
X104573158Y-108107932D01*
X104843411Y-107995990D01*
X105086632Y-107833475D01*
X105293475Y-107626632D01*
X105410000Y-107452240D01*
X105526525Y-107626632D01*
X105733368Y-107833475D01*
X105976589Y-107995990D01*
X106246842Y-108107932D01*
X106533740Y-108165000D01*
X106826260Y-108165000D01*
X107113158Y-108107932D01*
X107383411Y-107995990D01*
X107626632Y-107833475D01*
X107833475Y-107626632D01*
X107950000Y-107452240D01*
X108066525Y-107626632D01*
X108273368Y-107833475D01*
X108516589Y-107995990D01*
X108786842Y-108107932D01*
X109073740Y-108165000D01*
X109366260Y-108165000D01*
X109653158Y-108107932D01*
X109923411Y-107995990D01*
X110166632Y-107833475D01*
X110373475Y-107626632D01*
X110490000Y-107452240D01*
X110606525Y-107626632D01*
X110813368Y-107833475D01*
X111056589Y-107995990D01*
X111326842Y-108107932D01*
X111613740Y-108165000D01*
X111906260Y-108165000D01*
X112193158Y-108107932D01*
X112463411Y-107995990D01*
X112706632Y-107833475D01*
X112913475Y-107626632D01*
X113030000Y-107452240D01*
X113146525Y-107626632D01*
X113353368Y-107833475D01*
X113596589Y-107995990D01*
X113866842Y-108107932D01*
X114153740Y-108165000D01*
X114446260Y-108165000D01*
X114733158Y-108107932D01*
X115003411Y-107995990D01*
X115246632Y-107833475D01*
X115453475Y-107626632D01*
X115570000Y-107452240D01*
X115686525Y-107626632D01*
X115893368Y-107833475D01*
X116136589Y-107995990D01*
X116406842Y-108107932D01*
X116693740Y-108165000D01*
X116986260Y-108165000D01*
X117273158Y-108107932D01*
X117543411Y-107995990D01*
X117786632Y-107833475D01*
X117993475Y-107626632D01*
X118110000Y-107452240D01*
X118226525Y-107626632D01*
X118433368Y-107833475D01*
X118676589Y-107995990D01*
X118946842Y-108107932D01*
X119233740Y-108165000D01*
X119526260Y-108165000D01*
X119813158Y-108107932D01*
X120083411Y-107995990D01*
X120326632Y-107833475D01*
X120533475Y-107626632D01*
X120695990Y-107383411D01*
X120807932Y-107113158D01*
X120865000Y-106826260D01*
X120865000Y-106533740D01*
X120807932Y-106246842D01*
X120695990Y-105976589D01*
X120564548Y-105779872D01*
X123765000Y-105779872D01*
X123765000Y-106220128D01*
X123850890Y-106651925D01*
X124019369Y-107058669D01*
X124263962Y-107424729D01*
X124575271Y-107736038D01*
X124941331Y-107980631D01*
X125348075Y-108149110D01*
X125779872Y-108235000D01*
X126220128Y-108235000D01*
X126651925Y-108149110D01*
X127058669Y-107980631D01*
X127424729Y-107736038D01*
X127736038Y-107424729D01*
X127980631Y-107058669D01*
X128149110Y-106651925D01*
X128235000Y-106220128D01*
X128235000Y-105779872D01*
X128149110Y-105348075D01*
X127980631Y-104941331D01*
X127736038Y-104575271D01*
X127424729Y-104263962D01*
X127058669Y-104019369D01*
X126651925Y-103850890D01*
X126220128Y-103765000D01*
X125779872Y-103765000D01*
X125348075Y-103850890D01*
X124941331Y-104019369D01*
X124575271Y-104263962D01*
X124263962Y-104575271D01*
X124019369Y-104941331D01*
X123850890Y-105348075D01*
X123765000Y-105779872D01*
X120564548Y-105779872D01*
X120533475Y-105733368D01*
X120326632Y-105526525D01*
X120083411Y-105364010D01*
X119813158Y-105252068D01*
X119526260Y-105195000D01*
X119233740Y-105195000D01*
X118946842Y-105252068D01*
X118676589Y-105364010D01*
X118433368Y-105526525D01*
X118226525Y-105733368D01*
X118110000Y-105907760D01*
X117993475Y-105733368D01*
X117786632Y-105526525D01*
X117543411Y-105364010D01*
X117273158Y-105252068D01*
X116986260Y-105195000D01*
X116693740Y-105195000D01*
X116406842Y-105252068D01*
X116136589Y-105364010D01*
X115893368Y-105526525D01*
X115686525Y-105733368D01*
X115570000Y-105907760D01*
X115453475Y-105733368D01*
X115246632Y-105526525D01*
X115003411Y-105364010D01*
X114733158Y-105252068D01*
X114446260Y-105195000D01*
X114153740Y-105195000D01*
X113866842Y-105252068D01*
X113596589Y-105364010D01*
X113353368Y-105526525D01*
X113146525Y-105733368D01*
X113030000Y-105907760D01*
X112913475Y-105733368D01*
X112706632Y-105526525D01*
X112463411Y-105364010D01*
X112193158Y-105252068D01*
X111906260Y-105195000D01*
X111613740Y-105195000D01*
X111326842Y-105252068D01*
X111056589Y-105364010D01*
X110813368Y-105526525D01*
X110606525Y-105733368D01*
X110490000Y-105907760D01*
X110373475Y-105733368D01*
X110166632Y-105526525D01*
X109923411Y-105364010D01*
X109653158Y-105252068D01*
X109366260Y-105195000D01*
X109073740Y-105195000D01*
X108786842Y-105252068D01*
X108516589Y-105364010D01*
X108273368Y-105526525D01*
X108066525Y-105733368D01*
X107950000Y-105907760D01*
X107833475Y-105733368D01*
X107626632Y-105526525D01*
X107383411Y-105364010D01*
X107113158Y-105252068D01*
X106826260Y-105195000D01*
X106533740Y-105195000D01*
X106246842Y-105252068D01*
X105976589Y-105364010D01*
X105733368Y-105526525D01*
X105526525Y-105733368D01*
X105410000Y-105907760D01*
X105293475Y-105733368D01*
X105086632Y-105526525D01*
X104843411Y-105364010D01*
X104573158Y-105252068D01*
X104286260Y-105195000D01*
X103993740Y-105195000D01*
X103706842Y-105252068D01*
X103436589Y-105364010D01*
X103193368Y-105526525D01*
X103061513Y-105658380D01*
X103039502Y-105585820D01*
X102980537Y-105475506D01*
X102901185Y-105378815D01*
X102804494Y-105299463D01*
X102694180Y-105240498D01*
X102574482Y-105204188D01*
X102450000Y-105191928D01*
X100750000Y-105191928D01*
X100625518Y-105204188D01*
X100505820Y-105240498D01*
X100395506Y-105299463D01*
X100298815Y-105378815D01*
X100219463Y-105475506D01*
X100160498Y-105585820D01*
X100124188Y-105705518D01*
X100111928Y-105830000D01*
X76235000Y-105830000D01*
X76235000Y-105779872D01*
X76149110Y-105348075D01*
X75980631Y-104941331D01*
X75736038Y-104575271D01*
X75424729Y-104263962D01*
X75058669Y-104019369D01*
X74651925Y-103850890D01*
X74220128Y-103765000D01*
X73779872Y-103765000D01*
X73348075Y-103850890D01*
X72941331Y-104019369D01*
X72575271Y-104263962D01*
X72263962Y-104575271D01*
X72019369Y-104941331D01*
X71850890Y-105348075D01*
X71765000Y-105779872D01*
X70660000Y-105779872D01*
X70660000Y-100750000D01*
X92491928Y-100750000D01*
X92491928Y-102450000D01*
X92504188Y-102574482D01*
X92540498Y-102694180D01*
X92599463Y-102804494D01*
X92678815Y-102901185D01*
X92775506Y-102980537D01*
X92885820Y-103039502D01*
X93005518Y-103075812D01*
X93130000Y-103088072D01*
X94830000Y-103088072D01*
X94954482Y-103075812D01*
X95074180Y-103039502D01*
X95184494Y-102980537D01*
X95281185Y-102901185D01*
X95360537Y-102804494D01*
X95419502Y-102694180D01*
X95441513Y-102621620D01*
X95573368Y-102753475D01*
X95816589Y-102915990D01*
X96086842Y-103027932D01*
X96373740Y-103085000D01*
X96666260Y-103085000D01*
X96953158Y-103027932D01*
X97223411Y-102915990D01*
X97466632Y-102753475D01*
X97673475Y-102546632D01*
X97835990Y-102303411D01*
X97947932Y-102033158D01*
X98005000Y-101746260D01*
X98005000Y-101453740D01*
X97947932Y-101166842D01*
X97835990Y-100896589D01*
X97673475Y-100653368D01*
X97466632Y-100446525D01*
X97223411Y-100284010D01*
X96953158Y-100172068D01*
X96666260Y-100115000D01*
X96373740Y-100115000D01*
X96086842Y-100172068D01*
X95816589Y-100284010D01*
X95573368Y-100446525D01*
X95441513Y-100578380D01*
X95419502Y-100505820D01*
X95360537Y-100395506D01*
X95281185Y-100298815D01*
X95184494Y-100219463D01*
X95074180Y-100160498D01*
X94954482Y-100124188D01*
X94830000Y-100111928D01*
X93130000Y-100111928D01*
X93005518Y-100124188D01*
X92885820Y-100160498D01*
X92775506Y-100219463D01*
X92678815Y-100298815D01*
X92599463Y-100395506D01*
X92540498Y-100505820D01*
X92504188Y-100625518D01*
X92491928Y-100750000D01*
X70660000Y-100750000D01*
X70660000Y-95670000D01*
X102651928Y-95670000D01*
X102651928Y-97370000D01*
X102664188Y-97494482D01*
X102700498Y-97614180D01*
X102759463Y-97724494D01*
X102838815Y-97821185D01*
X102935506Y-97900537D01*
X103045820Y-97959502D01*
X103118380Y-97981513D01*
X102986525Y-98113368D01*
X102824010Y-98356589D01*
X102712068Y-98626842D01*
X102655000Y-98913740D01*
X102655000Y-99206260D01*
X102712068Y-99493158D01*
X102824010Y-99763411D01*
X102986525Y-100006632D01*
X103193368Y-100213475D01*
X103436589Y-100375990D01*
X103706842Y-100487932D01*
X103993740Y-100545000D01*
X104286260Y-100545000D01*
X104573158Y-100487932D01*
X104843411Y-100375990D01*
X105086632Y-100213475D01*
X105293475Y-100006632D01*
X105455990Y-99763411D01*
X105567932Y-99493158D01*
X105625000Y-99206260D01*
X105625000Y-98913740D01*
X105567932Y-98626842D01*
X105455990Y-98356589D01*
X105293475Y-98113368D01*
X105161620Y-97981513D01*
X105234180Y-97959502D01*
X105344494Y-97900537D01*
X105441185Y-97821185D01*
X105520537Y-97724494D01*
X105579502Y-97614180D01*
X105615812Y-97494482D01*
X105628072Y-97370000D01*
X105628072Y-96283506D01*
X108026579Y-93885000D01*
X117956531Y-93885000D01*
X118000000Y-93889281D01*
X118043469Y-93885000D01*
X118043477Y-93885000D01*
X118173490Y-93872195D01*
X118340313Y-93821589D01*
X118494059Y-93739411D01*
X118495000Y-93738639D01*
X118495000Y-95035375D01*
X118405518Y-95044188D01*
X118285820Y-95080498D01*
X118175506Y-95139463D01*
X118078815Y-95218815D01*
X117999463Y-95315506D01*
X117940498Y-95425820D01*
X117904188Y-95545518D01*
X117891928Y-95670000D01*
X117891928Y-97370000D01*
X117904188Y-97494482D01*
X117940498Y-97614180D01*
X117999463Y-97724494D01*
X118078815Y-97821185D01*
X118175506Y-97900537D01*
X118285820Y-97959502D01*
X118358380Y-97981513D01*
X118226525Y-98113368D01*
X118064010Y-98356589D01*
X117952068Y-98626842D01*
X117895000Y-98913740D01*
X117895000Y-99206260D01*
X117952068Y-99493158D01*
X118064010Y-99763411D01*
X118226525Y-100006632D01*
X118433368Y-100213475D01*
X118676589Y-100375990D01*
X118946842Y-100487932D01*
X119233740Y-100545000D01*
X119526260Y-100545000D01*
X119813158Y-100487932D01*
X120083411Y-100375990D01*
X120326632Y-100213475D01*
X120533475Y-100006632D01*
X120695990Y-99763411D01*
X120807932Y-99493158D01*
X120865000Y-99206260D01*
X120865000Y-98913740D01*
X120807932Y-98626842D01*
X120695990Y-98356589D01*
X120533475Y-98113368D01*
X120401620Y-97981513D01*
X120474180Y-97959502D01*
X120584494Y-97900537D01*
X120681185Y-97821185D01*
X120760537Y-97724494D01*
X120819502Y-97614180D01*
X120855812Y-97494482D01*
X120868072Y-97370000D01*
X120868072Y-95670000D01*
X120855812Y-95545518D01*
X120819502Y-95425820D01*
X120760537Y-95315506D01*
X120681185Y-95218815D01*
X120584494Y-95139463D01*
X120474180Y-95080498D01*
X120354482Y-95044188D01*
X120265000Y-95035375D01*
X120265000Y-93976542D01*
X122115001Y-92126542D01*
X122115001Y-99498384D01*
X120878398Y-100734988D01*
X112146567Y-100734988D01*
X110690539Y-99278961D01*
X110705000Y-99206260D01*
X110705000Y-98913740D01*
X110647932Y-98626842D01*
X110535990Y-98356589D01*
X110373475Y-98113368D01*
X110241620Y-97981513D01*
X110314180Y-97959502D01*
X110424494Y-97900537D01*
X110521185Y-97821185D01*
X110600537Y-97724494D01*
X110659502Y-97614180D01*
X110695812Y-97494482D01*
X110708072Y-97370000D01*
X110708072Y-95670000D01*
X112811928Y-95670000D01*
X112811928Y-97370000D01*
X112824188Y-97494482D01*
X112860498Y-97614180D01*
X112919463Y-97724494D01*
X112998815Y-97821185D01*
X113095506Y-97900537D01*
X113205820Y-97959502D01*
X113278380Y-97981513D01*
X113146525Y-98113368D01*
X112984010Y-98356589D01*
X112872068Y-98626842D01*
X112815000Y-98913740D01*
X112815000Y-99206260D01*
X112872068Y-99493158D01*
X112984010Y-99763411D01*
X113146525Y-100006632D01*
X113353368Y-100213475D01*
X113596589Y-100375990D01*
X113866842Y-100487932D01*
X114153740Y-100545000D01*
X114446260Y-100545000D01*
X114733158Y-100487932D01*
X115003411Y-100375990D01*
X115246632Y-100213475D01*
X115453475Y-100006632D01*
X115615990Y-99763411D01*
X115727932Y-99493158D01*
X115785000Y-99206260D01*
X115785000Y-98913740D01*
X115727932Y-98626842D01*
X115615990Y-98356589D01*
X115453475Y-98113368D01*
X115321620Y-97981513D01*
X115394180Y-97959502D01*
X115504494Y-97900537D01*
X115601185Y-97821185D01*
X115680537Y-97724494D01*
X115739502Y-97614180D01*
X115775812Y-97494482D01*
X115788072Y-97370000D01*
X115788072Y-95670000D01*
X115775812Y-95545518D01*
X115739502Y-95425820D01*
X115680537Y-95315506D01*
X115601185Y-95218815D01*
X115504494Y-95139463D01*
X115394180Y-95080498D01*
X115274482Y-95044188D01*
X115150000Y-95031928D01*
X113450000Y-95031928D01*
X113325518Y-95044188D01*
X113205820Y-95080498D01*
X113095506Y-95139463D01*
X112998815Y-95218815D01*
X112919463Y-95315506D01*
X112860498Y-95425820D01*
X112824188Y-95545518D01*
X112811928Y-95670000D01*
X110708072Y-95670000D01*
X110695812Y-95545518D01*
X110659502Y-95425820D01*
X110600537Y-95315506D01*
X110521185Y-95218815D01*
X110424494Y-95139463D01*
X110314180Y-95080498D01*
X110194482Y-95044188D01*
X110070000Y-95031928D01*
X108370000Y-95031928D01*
X108245518Y-95044188D01*
X108125820Y-95080498D01*
X108015506Y-95139463D01*
X107918815Y-95218815D01*
X107839463Y-95315506D01*
X107780498Y-95425820D01*
X107744188Y-95545518D01*
X107731928Y-95670000D01*
X107731928Y-97370000D01*
X107744188Y-97494482D01*
X107780498Y-97614180D01*
X107839463Y-97724494D01*
X107918815Y-97821185D01*
X108015506Y-97900537D01*
X108125820Y-97959502D01*
X108198380Y-97981513D01*
X108066525Y-98113368D01*
X107904010Y-98356589D01*
X107792068Y-98626842D01*
X107735000Y-98913740D01*
X107735000Y-99206260D01*
X107792068Y-99493158D01*
X107904010Y-99763411D01*
X108066525Y-100006632D01*
X108273368Y-100213475D01*
X108516589Y-100375990D01*
X108786842Y-100487932D01*
X109073740Y-100545000D01*
X109366260Y-100545000D01*
X109438961Y-100530539D01*
X111123458Y-102215037D01*
X111151171Y-102248805D01*
X111184939Y-102276518D01*
X111184941Y-102276520D01*
X111283185Y-102357147D01*
X111285929Y-102359399D01*
X111439675Y-102441577D01*
X111606498Y-102492183D01*
X111736511Y-102504988D01*
X111736519Y-102504988D01*
X111779988Y-102509269D01*
X111823457Y-102504988D01*
X121336536Y-102504988D01*
X121380012Y-102509270D01*
X121553502Y-102492183D01*
X121720325Y-102441577D01*
X121874071Y-102359399D01*
X122008829Y-102248805D01*
X122119423Y-102114047D01*
X122119572Y-102113769D01*
X122201601Y-101960301D01*
X122221353Y-101895189D01*
X123595049Y-100521494D01*
X123628817Y-100493781D01*
X123667600Y-100446525D01*
X123739410Y-100359024D01*
X123771592Y-100298815D01*
X123821589Y-100205277D01*
X123872195Y-100038454D01*
X123885000Y-99908441D01*
X123885000Y-99908434D01*
X123889281Y-99864965D01*
X123885000Y-99821496D01*
X123885000Y-73793465D01*
X123889281Y-73749999D01*
X123885000Y-73706533D01*
X123885000Y-73706523D01*
X123872195Y-73576510D01*
X123821589Y-73409687D01*
X123739411Y-73255941D01*
X123628817Y-73121183D01*
X123595051Y-73093472D01*
X117435319Y-66933740D01*
X124515000Y-66933740D01*
X124515000Y-67226260D01*
X124572068Y-67513158D01*
X124684010Y-67783411D01*
X124846525Y-68026632D01*
X125053368Y-68233475D01*
X125296589Y-68395990D01*
X125566842Y-68507932D01*
X125853740Y-68565000D01*
X126146260Y-68565000D01*
X126433158Y-68507932D01*
X126703411Y-68395990D01*
X126946632Y-68233475D01*
X127153475Y-68026632D01*
X127315990Y-67783411D01*
X127427932Y-67513158D01*
X127485000Y-67226260D01*
X127485000Y-66933740D01*
X127427932Y-66646842D01*
X127315990Y-66376589D01*
X127153475Y-66133368D01*
X126946632Y-65926525D01*
X126764466Y-65804805D01*
X126881355Y-65735178D01*
X127097588Y-65540269D01*
X127271641Y-65306920D01*
X127396825Y-65044099D01*
X127441476Y-64896890D01*
X127320155Y-64667000D01*
X126127000Y-64667000D01*
X126127000Y-64687000D01*
X125873000Y-64687000D01*
X125873000Y-64667000D01*
X124679845Y-64667000D01*
X124558524Y-64896890D01*
X124603175Y-65044099D01*
X124728359Y-65306920D01*
X124902412Y-65540269D01*
X125118645Y-65735178D01*
X125235534Y-65804805D01*
X125053368Y-65926525D01*
X124846525Y-66133368D01*
X124684010Y-66376589D01*
X124572068Y-66646842D01*
X124515000Y-66933740D01*
X117435319Y-66933740D01*
X117156534Y-66654956D01*
X117128817Y-66621183D01*
X116994059Y-66510589D01*
X116840313Y-66428411D01*
X116673490Y-66377805D01*
X116543477Y-66365000D01*
X116543469Y-66365000D01*
X116500000Y-66360719D01*
X116456531Y-66365000D01*
X112293469Y-66365000D01*
X112250000Y-66360719D01*
X112206531Y-66365000D01*
X112206523Y-66365000D01*
X112076510Y-66377805D01*
X111909687Y-66428411D01*
X111795563Y-66489411D01*
X111755941Y-66510589D01*
X111654953Y-66593468D01*
X111654951Y-66593470D01*
X111621183Y-66621183D01*
X111593470Y-66654951D01*
X110883421Y-67365000D01*
X109819678Y-67365000D01*
X109579484Y-67388657D01*
X109271285Y-67482148D01*
X108987248Y-67633969D01*
X108738286Y-67838286D01*
X108533969Y-68087248D01*
X108382148Y-68371285D01*
X108288657Y-68679484D01*
X108257089Y-69000000D01*
X108288657Y-69320516D01*
X108362823Y-69565010D01*
X108238072Y-69565010D01*
X108238072Y-68000000D01*
X108225812Y-67875518D01*
X108189502Y-67755820D01*
X108130537Y-67645506D01*
X108051185Y-67548815D01*
X107954494Y-67469463D01*
X107844180Y-67410498D01*
X107724482Y-67374188D01*
X107600000Y-67361928D01*
X104400000Y-67361928D01*
X104275518Y-67374188D01*
X104155820Y-67410498D01*
X104045506Y-67469463D01*
X103948815Y-67548815D01*
X103869463Y-67645506D01*
X103810498Y-67755820D01*
X103774188Y-67875518D01*
X103761928Y-68000000D01*
X103761928Y-70000000D01*
X103774188Y-70124482D01*
X103810498Y-70244180D01*
X103869463Y-70354494D01*
X103948815Y-70451185D01*
X104045506Y-70530537D01*
X104155820Y-70589502D01*
X104275518Y-70625812D01*
X104400000Y-70638072D01*
X106386493Y-70638072D01*
X106793480Y-71045059D01*
X106821193Y-71078827D01*
X106854961Y-71106540D01*
X106854963Y-71106542D01*
X106916424Y-71156982D01*
X106955951Y-71189421D01*
X107109697Y-71271599D01*
X107276520Y-71322205D01*
X107406533Y-71335010D01*
X107406541Y-71335010D01*
X107450010Y-71339291D01*
X107493479Y-71335010D01*
X115083432Y-71335010D01*
X115613422Y-71865000D01*
X114319678Y-71865000D01*
X114079484Y-71888657D01*
X113771285Y-71982148D01*
X113487248Y-72133969D01*
X113238286Y-72338286D01*
X113033969Y-72587248D01*
X112882148Y-72871285D01*
X112788657Y-73179484D01*
X112757089Y-73500000D01*
X112788657Y-73820516D01*
X112882148Y-74128715D01*
X113033969Y-74412752D01*
X113238286Y-74661714D01*
X113487248Y-74866031D01*
X113771285Y-75017852D01*
X114079484Y-75111343D01*
X114319678Y-75135000D01*
X115680322Y-75135000D01*
X115920516Y-75111343D01*
X116228715Y-75017852D01*
X116512752Y-74866031D01*
X116761714Y-74661714D01*
X116966031Y-74412752D01*
X117117852Y-74128715D01*
X117211343Y-73820516D01*
X117242911Y-73500000D01*
X117242309Y-73493887D01*
X120115001Y-76366580D01*
X120115000Y-87613155D01*
X119884099Y-87503175D01*
X119736890Y-87458524D01*
X119507000Y-87579845D01*
X119507000Y-88773000D01*
X119527000Y-88773000D01*
X119527000Y-89027000D01*
X119507000Y-89027000D01*
X119507000Y-89047000D01*
X119253000Y-89047000D01*
X119253000Y-89027000D01*
X116967000Y-89027000D01*
X116967000Y-90220155D01*
X117196890Y-90341476D01*
X117344099Y-90296825D01*
X117606920Y-90171641D01*
X117840269Y-89997588D01*
X118035178Y-89781355D01*
X118110000Y-89655745D01*
X118184822Y-89781355D01*
X118379731Y-89997588D01*
X118613080Y-90171641D01*
X118875901Y-90296825D01*
X119023110Y-90341476D01*
X119252998Y-90220156D01*
X119252998Y-90385000D01*
X119363421Y-90385000D01*
X117633422Y-92115000D01*
X107703469Y-92115000D01*
X107660000Y-92110719D01*
X107616531Y-92115000D01*
X107616523Y-92115000D01*
X107486510Y-92127805D01*
X107319687Y-92178411D01*
X107165941Y-92260589D01*
X107064953Y-92343468D01*
X107064951Y-92343470D01*
X107031183Y-92371183D01*
X107003470Y-92404951D01*
X104376494Y-95031928D01*
X103290000Y-95031928D01*
X103165518Y-95044188D01*
X103045820Y-95080498D01*
X102935506Y-95139463D01*
X102838815Y-95218815D01*
X102759463Y-95315506D01*
X102700498Y-95425820D01*
X102664188Y-95545518D01*
X102651928Y-95670000D01*
X70660000Y-95670000D01*
X70660000Y-93130000D01*
X92491928Y-93130000D01*
X92491928Y-94830000D01*
X92504188Y-94954482D01*
X92540498Y-95074180D01*
X92599463Y-95184494D01*
X92678815Y-95281185D01*
X92775506Y-95360537D01*
X92885820Y-95419502D01*
X93005518Y-95455812D01*
X93130000Y-95468072D01*
X94830000Y-95468072D01*
X94954482Y-95455812D01*
X95074180Y-95419502D01*
X95184494Y-95360537D01*
X95281185Y-95281185D01*
X95360537Y-95184494D01*
X95419502Y-95074180D01*
X95441513Y-95001620D01*
X95573368Y-95133475D01*
X95816589Y-95295990D01*
X96086842Y-95407932D01*
X96373740Y-95465000D01*
X96666260Y-95465000D01*
X96953158Y-95407932D01*
X97223411Y-95295990D01*
X97466632Y-95133475D01*
X97673475Y-94926632D01*
X97835990Y-94683411D01*
X97947932Y-94413158D01*
X98005000Y-94126260D01*
X98005000Y-93833740D01*
X97947932Y-93546842D01*
X97835990Y-93276589D01*
X97673475Y-93033368D01*
X97466632Y-92826525D01*
X97223411Y-92664010D01*
X96953158Y-92552068D01*
X96666260Y-92495000D01*
X96373740Y-92495000D01*
X96086842Y-92552068D01*
X95816589Y-92664010D01*
X95573368Y-92826525D01*
X95441513Y-92958380D01*
X95419502Y-92885820D01*
X95360537Y-92775506D01*
X95281185Y-92678815D01*
X95184494Y-92599463D01*
X95074180Y-92540498D01*
X94954482Y-92504188D01*
X94830000Y-92491928D01*
X93130000Y-92491928D01*
X93005518Y-92504188D01*
X92885820Y-92540498D01*
X92775506Y-92599463D01*
X92678815Y-92678815D01*
X92599463Y-92775506D01*
X92540498Y-92885820D01*
X92504188Y-93005518D01*
X92491928Y-93130000D01*
X70660000Y-93130000D01*
X70660000Y-82970000D01*
X74711928Y-82970000D01*
X74711928Y-84670000D01*
X74724188Y-84794482D01*
X74760498Y-84914180D01*
X74819463Y-85024494D01*
X74898815Y-85121185D01*
X74995506Y-85200537D01*
X75105820Y-85259502D01*
X75178380Y-85281513D01*
X75046525Y-85413368D01*
X74884010Y-85656589D01*
X74772068Y-85926842D01*
X74715000Y-86213740D01*
X74715000Y-86506260D01*
X74772068Y-86793158D01*
X74884010Y-87063411D01*
X75046525Y-87306632D01*
X75253368Y-87513475D01*
X75427760Y-87630000D01*
X75253368Y-87746525D01*
X75046525Y-87953368D01*
X74884010Y-88196589D01*
X74772068Y-88466842D01*
X74715000Y-88753740D01*
X74715000Y-89046260D01*
X74772068Y-89333158D01*
X74884010Y-89603411D01*
X75046525Y-89846632D01*
X75253368Y-90053475D01*
X75496589Y-90215990D01*
X75766842Y-90327932D01*
X76053740Y-90385000D01*
X76346260Y-90385000D01*
X76633158Y-90327932D01*
X76903411Y-90215990D01*
X77146632Y-90053475D01*
X77353475Y-89846632D01*
X77515990Y-89603411D01*
X77627932Y-89333158D01*
X77685000Y-89046260D01*
X77685000Y-88753740D01*
X79795000Y-88753740D01*
X79795000Y-89046260D01*
X79852068Y-89333158D01*
X79964010Y-89603411D01*
X80126525Y-89846632D01*
X80333368Y-90053475D01*
X80576589Y-90215990D01*
X80846842Y-90327932D01*
X81133740Y-90385000D01*
X81426260Y-90385000D01*
X81713158Y-90327932D01*
X81983411Y-90215990D01*
X82226632Y-90053475D01*
X82433475Y-89846632D01*
X82498042Y-89750000D01*
X100111928Y-89750000D01*
X100124188Y-89874482D01*
X100160498Y-89994180D01*
X100219463Y-90104494D01*
X100298815Y-90201185D01*
X100395506Y-90280537D01*
X100505820Y-90339502D01*
X100625518Y-90375812D01*
X100750000Y-90388072D01*
X101314250Y-90385000D01*
X101473000Y-90226250D01*
X101473000Y-89027000D01*
X101727000Y-89027000D01*
X101727000Y-90226250D01*
X101885750Y-90385000D01*
X102450000Y-90388072D01*
X102574482Y-90375812D01*
X102694180Y-90339502D01*
X102804494Y-90280537D01*
X102901185Y-90201185D01*
X102980537Y-90104494D01*
X103039502Y-89994180D01*
X103063966Y-89913534D01*
X103139731Y-89997588D01*
X103373080Y-90171641D01*
X103635901Y-90296825D01*
X103783110Y-90341476D01*
X104013000Y-90220155D01*
X104013000Y-89027000D01*
X104267000Y-89027000D01*
X104267000Y-90220155D01*
X104496890Y-90341476D01*
X104644099Y-90296825D01*
X104906920Y-90171641D01*
X105140269Y-89997588D01*
X105335178Y-89781355D01*
X105410000Y-89655745D01*
X105484822Y-89781355D01*
X105679731Y-89997588D01*
X105913080Y-90171641D01*
X106175901Y-90296825D01*
X106323110Y-90341476D01*
X106553000Y-90220155D01*
X106553000Y-89027000D01*
X106807000Y-89027000D01*
X106807000Y-90220155D01*
X107036890Y-90341476D01*
X107184099Y-90296825D01*
X107446920Y-90171641D01*
X107680269Y-89997588D01*
X107875178Y-89781355D01*
X107950000Y-89655745D01*
X108024822Y-89781355D01*
X108219731Y-89997588D01*
X108453080Y-90171641D01*
X108715901Y-90296825D01*
X108863110Y-90341476D01*
X109093000Y-90220155D01*
X109093000Y-89027000D01*
X109347000Y-89027000D01*
X109347000Y-90220155D01*
X109576890Y-90341476D01*
X109724099Y-90296825D01*
X109986920Y-90171641D01*
X110220269Y-89997588D01*
X110415178Y-89781355D01*
X110490000Y-89655745D01*
X110564822Y-89781355D01*
X110759731Y-89997588D01*
X110993080Y-90171641D01*
X111255901Y-90296825D01*
X111403110Y-90341476D01*
X111633000Y-90220155D01*
X111633000Y-89027000D01*
X111887000Y-89027000D01*
X111887000Y-90220155D01*
X112116890Y-90341476D01*
X112264099Y-90296825D01*
X112526920Y-90171641D01*
X112760269Y-89997588D01*
X112955178Y-89781355D01*
X113030000Y-89655745D01*
X113104822Y-89781355D01*
X113299731Y-89997588D01*
X113533080Y-90171641D01*
X113795901Y-90296825D01*
X113943110Y-90341476D01*
X114173000Y-90220155D01*
X114173000Y-89027000D01*
X114427000Y-89027000D01*
X114427000Y-90220155D01*
X114656890Y-90341476D01*
X114804099Y-90296825D01*
X115066920Y-90171641D01*
X115300269Y-89997588D01*
X115495178Y-89781355D01*
X115570000Y-89655745D01*
X115644822Y-89781355D01*
X115839731Y-89997588D01*
X116073080Y-90171641D01*
X116335901Y-90296825D01*
X116483110Y-90341476D01*
X116713000Y-90220155D01*
X116713000Y-89027000D01*
X114427000Y-89027000D01*
X114173000Y-89027000D01*
X111887000Y-89027000D01*
X111633000Y-89027000D01*
X109347000Y-89027000D01*
X109093000Y-89027000D01*
X106807000Y-89027000D01*
X106553000Y-89027000D01*
X104267000Y-89027000D01*
X104013000Y-89027000D01*
X101727000Y-89027000D01*
X101473000Y-89027000D01*
X100273750Y-89027000D01*
X100115000Y-89185750D01*
X100111928Y-89750000D01*
X82498042Y-89750000D01*
X82595990Y-89603411D01*
X82707932Y-89333158D01*
X82765000Y-89046260D01*
X82765000Y-88753740D01*
X82707932Y-88466842D01*
X82595990Y-88196589D01*
X82498043Y-88050000D01*
X100111928Y-88050000D01*
X100115000Y-88614250D01*
X100273750Y-88773000D01*
X101473000Y-88773000D01*
X101473000Y-87573750D01*
X101727000Y-87573750D01*
X101727000Y-88773000D01*
X104013000Y-88773000D01*
X104013000Y-87579845D01*
X104267000Y-87579845D01*
X104267000Y-88773000D01*
X106553000Y-88773000D01*
X106553000Y-87579845D01*
X106807000Y-87579845D01*
X106807000Y-88773000D01*
X109093000Y-88773000D01*
X109093000Y-87579845D01*
X109347000Y-87579845D01*
X109347000Y-88773000D01*
X111633000Y-88773000D01*
X111633000Y-87579845D01*
X111887000Y-87579845D01*
X111887000Y-88773000D01*
X114173000Y-88773000D01*
X114173000Y-87579845D01*
X114427000Y-87579845D01*
X114427000Y-88773000D01*
X116713000Y-88773000D01*
X116713000Y-87579845D01*
X116967000Y-87579845D01*
X116967000Y-88773000D01*
X119253000Y-88773000D01*
X119253000Y-87579845D01*
X119023110Y-87458524D01*
X118875901Y-87503175D01*
X118613080Y-87628359D01*
X118379731Y-87802412D01*
X118184822Y-88018645D01*
X118110000Y-88144255D01*
X118035178Y-88018645D01*
X117840269Y-87802412D01*
X117606920Y-87628359D01*
X117344099Y-87503175D01*
X117196890Y-87458524D01*
X116967000Y-87579845D01*
X116713000Y-87579845D01*
X116483110Y-87458524D01*
X116335901Y-87503175D01*
X116073080Y-87628359D01*
X115839731Y-87802412D01*
X115644822Y-88018645D01*
X115570000Y-88144255D01*
X115495178Y-88018645D01*
X115300269Y-87802412D01*
X115066920Y-87628359D01*
X114804099Y-87503175D01*
X114656890Y-87458524D01*
X114427000Y-87579845D01*
X114173000Y-87579845D01*
X113943110Y-87458524D01*
X113795901Y-87503175D01*
X113533080Y-87628359D01*
X113299731Y-87802412D01*
X113104822Y-88018645D01*
X113030000Y-88144255D01*
X112955178Y-88018645D01*
X112760269Y-87802412D01*
X112526920Y-87628359D01*
X112264099Y-87503175D01*
X112116890Y-87458524D01*
X111887000Y-87579845D01*
X111633000Y-87579845D01*
X111403110Y-87458524D01*
X111255901Y-87503175D01*
X110993080Y-87628359D01*
X110759731Y-87802412D01*
X110564822Y-88018645D01*
X110490000Y-88144255D01*
X110415178Y-88018645D01*
X110220269Y-87802412D01*
X109986920Y-87628359D01*
X109724099Y-87503175D01*
X109576890Y-87458524D01*
X109347000Y-87579845D01*
X109093000Y-87579845D01*
X108863110Y-87458524D01*
X108715901Y-87503175D01*
X108453080Y-87628359D01*
X108219731Y-87802412D01*
X108024822Y-88018645D01*
X107950000Y-88144255D01*
X107875178Y-88018645D01*
X107680269Y-87802412D01*
X107446920Y-87628359D01*
X107184099Y-87503175D01*
X107036890Y-87458524D01*
X106807000Y-87579845D01*
X106553000Y-87579845D01*
X106323110Y-87458524D01*
X106175901Y-87503175D01*
X105913080Y-87628359D01*
X105679731Y-87802412D01*
X105484822Y-88018645D01*
X105410000Y-88144255D01*
X105335178Y-88018645D01*
X105140269Y-87802412D01*
X104906920Y-87628359D01*
X104644099Y-87503175D01*
X104496890Y-87458524D01*
X104267000Y-87579845D01*
X104013000Y-87579845D01*
X103783110Y-87458524D01*
X103635901Y-87503175D01*
X103373080Y-87628359D01*
X103139731Y-87802412D01*
X103063966Y-87886466D01*
X103039502Y-87805820D01*
X102980537Y-87695506D01*
X102901185Y-87598815D01*
X102804494Y-87519463D01*
X102694180Y-87460498D01*
X102574482Y-87424188D01*
X102450000Y-87411928D01*
X101885750Y-87415000D01*
X101727000Y-87573750D01*
X101473000Y-87573750D01*
X101314250Y-87415000D01*
X100750000Y-87411928D01*
X100625518Y-87424188D01*
X100505820Y-87460498D01*
X100395506Y-87519463D01*
X100298815Y-87598815D01*
X100219463Y-87695506D01*
X100160498Y-87805820D01*
X100124188Y-87925518D01*
X100111928Y-88050000D01*
X82498043Y-88050000D01*
X82433475Y-87953368D01*
X82226632Y-87746525D01*
X82044466Y-87624805D01*
X82161355Y-87555178D01*
X82377588Y-87360269D01*
X82551641Y-87126920D01*
X82676825Y-86864099D01*
X82721476Y-86716890D01*
X82600155Y-86487000D01*
X81407000Y-86487000D01*
X81407000Y-86507000D01*
X81153000Y-86507000D01*
X81153000Y-86487000D01*
X79959845Y-86487000D01*
X79838524Y-86716890D01*
X79883175Y-86864099D01*
X80008359Y-87126920D01*
X80182412Y-87360269D01*
X80398645Y-87555178D01*
X80515534Y-87624805D01*
X80333368Y-87746525D01*
X80126525Y-87953368D01*
X79964010Y-88196589D01*
X79852068Y-88466842D01*
X79795000Y-88753740D01*
X77685000Y-88753740D01*
X77627932Y-88466842D01*
X77515990Y-88196589D01*
X77353475Y-87953368D01*
X77146632Y-87746525D01*
X76972240Y-87630000D01*
X77146632Y-87513475D01*
X77353475Y-87306632D01*
X77515990Y-87063411D01*
X77627932Y-86793158D01*
X77685000Y-86506260D01*
X77685000Y-86213740D01*
X77627932Y-85926842D01*
X77515990Y-85656589D01*
X77353475Y-85413368D01*
X77221620Y-85281513D01*
X77294180Y-85259502D01*
X77404494Y-85200537D01*
X77501185Y-85121185D01*
X77580537Y-85024494D01*
X77639502Y-84914180D01*
X77675812Y-84794482D01*
X77688072Y-84670000D01*
X77688072Y-83673740D01*
X79795000Y-83673740D01*
X79795000Y-83966260D01*
X79852068Y-84253158D01*
X79964010Y-84523411D01*
X80126525Y-84766632D01*
X80333368Y-84973475D01*
X80515534Y-85095195D01*
X80398645Y-85164822D01*
X80182412Y-85359731D01*
X80008359Y-85593080D01*
X79883175Y-85855901D01*
X79838524Y-86003110D01*
X79959845Y-86233000D01*
X81153000Y-86233000D01*
X81153000Y-86213000D01*
X81407000Y-86213000D01*
X81407000Y-86233000D01*
X82600155Y-86233000D01*
X82721476Y-86003110D01*
X82676825Y-85855901D01*
X82551641Y-85593080D01*
X82377588Y-85359731D01*
X82161355Y-85164822D01*
X82044466Y-85095195D01*
X82226632Y-84973475D01*
X82433475Y-84766632D01*
X82595990Y-84523411D01*
X82707932Y-84253158D01*
X82765000Y-83966260D01*
X82765000Y-83673740D01*
X82707932Y-83386842D01*
X82595990Y-83116589D01*
X82433475Y-82873368D01*
X82226632Y-82666525D01*
X81983411Y-82504010D01*
X81713158Y-82392068D01*
X81426260Y-82335000D01*
X81133740Y-82335000D01*
X80846842Y-82392068D01*
X80576589Y-82504010D01*
X80333368Y-82666525D01*
X80126525Y-82873368D01*
X79964010Y-83116589D01*
X79852068Y-83386842D01*
X79795000Y-83673740D01*
X77688072Y-83673740D01*
X77688072Y-82970000D01*
X77675812Y-82845518D01*
X77639502Y-82725820D01*
X77580537Y-82615506D01*
X77501185Y-82518815D01*
X77404494Y-82439463D01*
X77294180Y-82380498D01*
X77174482Y-82344188D01*
X77050000Y-82331928D01*
X75350000Y-82331928D01*
X75225518Y-82344188D01*
X75105820Y-82380498D01*
X74995506Y-82439463D01*
X74898815Y-82518815D01*
X74819463Y-82615506D01*
X74760498Y-82725820D01*
X74724188Y-82845518D01*
X74711928Y-82970000D01*
X70660000Y-82970000D01*
X70660000Y-67305098D01*
X71955000Y-67305098D01*
X71955000Y-67774902D01*
X72046654Y-68235679D01*
X72226440Y-68669721D01*
X72487450Y-69060349D01*
X72819651Y-69392550D01*
X73210279Y-69653560D01*
X73644321Y-69833346D01*
X74105098Y-69925000D01*
X74574902Y-69925000D01*
X75035679Y-69833346D01*
X75469721Y-69653560D01*
X75860349Y-69392550D01*
X76192550Y-69060349D01*
X76453560Y-68669721D01*
X76633346Y-68235679D01*
X76725000Y-67774902D01*
X76725000Y-67305098D01*
X76633346Y-66844321D01*
X76453560Y-66410279D01*
X76192550Y-66019651D01*
X75860349Y-65687450D01*
X75469721Y-65426440D01*
X75035679Y-65246654D01*
X74574902Y-65155000D01*
X74105098Y-65155000D01*
X73644321Y-65246654D01*
X73210279Y-65426440D01*
X72819651Y-65687450D01*
X72487450Y-66019651D01*
X72226440Y-66410279D01*
X72046654Y-66844321D01*
X71955000Y-67305098D01*
X70660000Y-67305098D01*
X70660000Y-56400000D01*
X84431928Y-56400000D01*
X84431928Y-57600000D01*
X84448992Y-57773254D01*
X84499528Y-57939850D01*
X84581595Y-58093386D01*
X84692038Y-58227962D01*
X84826614Y-58338405D01*
X84980150Y-58420472D01*
X85146746Y-58471008D01*
X85320000Y-58488072D01*
X85986494Y-58488072D01*
X90910921Y-63412500D01*
X90874514Y-63412500D01*
X90641296Y-63435470D01*
X90342051Y-63526245D01*
X90066265Y-63673655D01*
X89824537Y-63872037D01*
X89626155Y-64113765D01*
X89478745Y-64389551D01*
X89387970Y-64688796D01*
X89357319Y-65000000D01*
X89387970Y-65311204D01*
X89478745Y-65610449D01*
X89626155Y-65886235D01*
X89824537Y-66127963D01*
X89997609Y-66270000D01*
X89824537Y-66412037D01*
X89626155Y-66653765D01*
X89478745Y-66929551D01*
X89387970Y-67228796D01*
X89357319Y-67540000D01*
X89387970Y-67851204D01*
X89478745Y-68150449D01*
X89626155Y-68426235D01*
X89729446Y-68552095D01*
X89645506Y-68596963D01*
X89548815Y-68676315D01*
X89469463Y-68773006D01*
X89410498Y-68883320D01*
X89374188Y-69003018D01*
X89361928Y-69127500D01*
X89361928Y-71032500D01*
X89374188Y-71156982D01*
X89410498Y-71276680D01*
X89469463Y-71386994D01*
X89548815Y-71483685D01*
X89645506Y-71563037D01*
X89755820Y-71622002D01*
X89875518Y-71658312D01*
X90000000Y-71670572D01*
X92000000Y-71670572D01*
X92124482Y-71658312D01*
X92244180Y-71622002D01*
X92354494Y-71563037D01*
X92451185Y-71483685D01*
X92530537Y-71386994D01*
X92589502Y-71276680D01*
X92625812Y-71156982D01*
X92638072Y-71032500D01*
X92638072Y-69889650D01*
X95864655Y-73116233D01*
X95728320Y-73320273D01*
X95620147Y-73581426D01*
X95565000Y-73858665D01*
X95565000Y-74141335D01*
X95620147Y-74418574D01*
X95728320Y-74679727D01*
X95885363Y-74914759D01*
X96085241Y-75114637D01*
X96320273Y-75271680D01*
X96581426Y-75379853D01*
X96858665Y-75435000D01*
X97141335Y-75435000D01*
X97418574Y-75379853D01*
X97679727Y-75271680D01*
X97914759Y-75114637D01*
X98114637Y-74914759D01*
X98271680Y-74679727D01*
X98379853Y-74418574D01*
X98435000Y-74141335D01*
X98435000Y-73858665D01*
X98379853Y-73581426D01*
X98271680Y-73320273D01*
X98114637Y-73085241D01*
X97914759Y-72885363D01*
X97875401Y-72859065D01*
X97872195Y-72826510D01*
X97821589Y-72659687D01*
X97739411Y-72505941D01*
X97628817Y-72371183D01*
X97595051Y-72343472D01*
X92626414Y-67374836D01*
X92612030Y-67228796D01*
X92521255Y-66929551D01*
X92373845Y-66653765D01*
X92175463Y-66412037D01*
X92002391Y-66270000D01*
X92175463Y-66127963D01*
X92189435Y-66110938D01*
X92260589Y-66244058D01*
X92371183Y-66378817D01*
X92404956Y-66406534D01*
X103778727Y-77780306D01*
X103757089Y-78000000D01*
X103788657Y-78320516D01*
X103882148Y-78628715D01*
X104033969Y-78912752D01*
X104238286Y-79161714D01*
X104487248Y-79366031D01*
X104771285Y-79517852D01*
X105079484Y-79611343D01*
X105319678Y-79635000D01*
X106680322Y-79635000D01*
X106920516Y-79611343D01*
X107228715Y-79517852D01*
X107512752Y-79366031D01*
X107761714Y-79161714D01*
X107966031Y-78912752D01*
X108117852Y-78628715D01*
X108211343Y-78320516D01*
X108242911Y-78000000D01*
X108211343Y-77679484D01*
X108117852Y-77371285D01*
X107966031Y-77087248D01*
X107800051Y-76885000D01*
X108133422Y-76885000D01*
X108464896Y-77216474D01*
X108382148Y-77371285D01*
X108288657Y-77679484D01*
X108257089Y-78000000D01*
X108288657Y-78320516D01*
X108382148Y-78628715D01*
X108533969Y-78912752D01*
X108738286Y-79161714D01*
X108987248Y-79366031D01*
X109271285Y-79517852D01*
X109579484Y-79611343D01*
X109819678Y-79635000D01*
X111180322Y-79635000D01*
X111420516Y-79611343D01*
X111728715Y-79517852D01*
X112012752Y-79366031D01*
X112261714Y-79161714D01*
X112466031Y-78912752D01*
X112617852Y-78628715D01*
X112711343Y-78320516D01*
X112742911Y-78000000D01*
X112757089Y-78000000D01*
X112788657Y-78320516D01*
X112882148Y-78628715D01*
X113033969Y-78912752D01*
X113238286Y-79161714D01*
X113487248Y-79366031D01*
X113771285Y-79517852D01*
X114079484Y-79611343D01*
X114319678Y-79635000D01*
X115680322Y-79635000D01*
X115920516Y-79611343D01*
X116228715Y-79517852D01*
X116512752Y-79366031D01*
X116761714Y-79161714D01*
X116966031Y-78912752D01*
X117117852Y-78628715D01*
X117211343Y-78320516D01*
X117242911Y-78000000D01*
X117211343Y-77679484D01*
X117117852Y-77371285D01*
X116966031Y-77087248D01*
X116761714Y-76838286D01*
X116512752Y-76633969D01*
X116228715Y-76482148D01*
X115920516Y-76388657D01*
X115680322Y-76365000D01*
X114319678Y-76365000D01*
X114079484Y-76388657D01*
X113771285Y-76482148D01*
X113487248Y-76633969D01*
X113238286Y-76838286D01*
X113033969Y-77087248D01*
X112882148Y-77371285D01*
X112788657Y-77679484D01*
X112757089Y-78000000D01*
X112742911Y-78000000D01*
X112711343Y-77679484D01*
X112617852Y-77371285D01*
X112466031Y-77087248D01*
X112261714Y-76838286D01*
X112012752Y-76633969D01*
X111728715Y-76482148D01*
X111420516Y-76388657D01*
X111180322Y-76365000D01*
X110116578Y-76365000D01*
X109156534Y-75404956D01*
X109128817Y-75371183D01*
X108994059Y-75260589D01*
X108840313Y-75178411D01*
X108673490Y-75127805D01*
X108543477Y-75115000D01*
X108543469Y-75115000D01*
X108500000Y-75110719D01*
X108456531Y-75115000D01*
X106883386Y-75115000D01*
X106920516Y-75111343D01*
X107228715Y-75017852D01*
X107512752Y-74866031D01*
X107761714Y-74661714D01*
X107966031Y-74412752D01*
X108117852Y-74128715D01*
X108211343Y-73820516D01*
X108242911Y-73500000D01*
X108257089Y-73500000D01*
X108288657Y-73820516D01*
X108382148Y-74128715D01*
X108533969Y-74412752D01*
X108738286Y-74661714D01*
X108987248Y-74866031D01*
X109271285Y-75017852D01*
X109579484Y-75111343D01*
X109819678Y-75135000D01*
X111180322Y-75135000D01*
X111420516Y-75111343D01*
X111728715Y-75017852D01*
X112012752Y-74866031D01*
X112261714Y-74661714D01*
X112466031Y-74412752D01*
X112617852Y-74128715D01*
X112711343Y-73820516D01*
X112742911Y-73500000D01*
X112711343Y-73179484D01*
X112617852Y-72871285D01*
X112466031Y-72587248D01*
X112261714Y-72338286D01*
X112012752Y-72133969D01*
X111728715Y-71982148D01*
X111420516Y-71888657D01*
X111180322Y-71865000D01*
X109819678Y-71865000D01*
X109579484Y-71888657D01*
X109271285Y-71982148D01*
X108987248Y-72133969D01*
X108738286Y-72338286D01*
X108533969Y-72587248D01*
X108382148Y-72871285D01*
X108288657Y-73179484D01*
X108257089Y-73500000D01*
X108242911Y-73500000D01*
X108211343Y-73179484D01*
X108117852Y-72871285D01*
X107966031Y-72587248D01*
X107761714Y-72338286D01*
X107512752Y-72133969D01*
X107228715Y-71982148D01*
X106920516Y-71888657D01*
X106680322Y-71865000D01*
X105319678Y-71865000D01*
X105079484Y-71888657D01*
X104771285Y-71982148D01*
X104487248Y-72133969D01*
X104238286Y-72338286D01*
X104033969Y-72587248D01*
X103882148Y-72871285D01*
X103828783Y-73047205D01*
X95385000Y-64603423D01*
X95385000Y-63698665D01*
X95565000Y-63698665D01*
X95565000Y-63981335D01*
X95620147Y-64258574D01*
X95728320Y-64519727D01*
X95885363Y-64754759D01*
X96085241Y-64954637D01*
X96320273Y-65111680D01*
X96581426Y-65219853D01*
X96858665Y-65275000D01*
X97141335Y-65275000D01*
X97418574Y-65219853D01*
X97679727Y-65111680D01*
X97914759Y-64954637D01*
X98114637Y-64754759D01*
X98271680Y-64519727D01*
X98379853Y-64258574D01*
X98435000Y-63981335D01*
X98435000Y-63698665D01*
X98379853Y-63421426D01*
X98271680Y-63160273D01*
X98114637Y-62925241D01*
X97914759Y-62725363D01*
X97679727Y-62568320D01*
X97418574Y-62460147D01*
X97141335Y-62405000D01*
X96858665Y-62405000D01*
X96581426Y-62460147D01*
X96320273Y-62568320D01*
X96085241Y-62725363D01*
X95885363Y-62925241D01*
X95728320Y-63160273D01*
X95620147Y-63421426D01*
X95565000Y-63698665D01*
X95385000Y-63698665D01*
X95385000Y-63043465D01*
X95389281Y-62999999D01*
X95385000Y-62956533D01*
X95385000Y-62956523D01*
X95372195Y-62826510D01*
X95321589Y-62659687D01*
X95239411Y-62505941D01*
X95181191Y-62435000D01*
X95156532Y-62404953D01*
X95156530Y-62404951D01*
X95128817Y-62371183D01*
X95095049Y-62343470D01*
X91221593Y-58470015D01*
X91433158Y-58427932D01*
X91703411Y-58315990D01*
X91946632Y-58153475D01*
X92153475Y-57946632D01*
X92315990Y-57703411D01*
X92427932Y-57433158D01*
X92485000Y-57146260D01*
X92485000Y-56853740D01*
X92427932Y-56566842D01*
X92315990Y-56296589D01*
X92153475Y-56053368D01*
X91946632Y-55846525D01*
X91772240Y-55730000D01*
X91946632Y-55613475D01*
X92153475Y-55406632D01*
X92315990Y-55163411D01*
X92427932Y-54893158D01*
X92485000Y-54606260D01*
X92485000Y-54313740D01*
X92427932Y-54026842D01*
X92315990Y-53756589D01*
X92153475Y-53513368D01*
X91946632Y-53306525D01*
X91703411Y-53144010D01*
X91433158Y-53032068D01*
X91146260Y-52975000D01*
X90853740Y-52975000D01*
X90566842Y-53032068D01*
X90296589Y-53144010D01*
X90053368Y-53306525D01*
X89846525Y-53513368D01*
X89730000Y-53687760D01*
X89613475Y-53513368D01*
X89406632Y-53306525D01*
X89163411Y-53144010D01*
X88893158Y-53032068D01*
X88606260Y-52975000D01*
X88313740Y-52975000D01*
X88026842Y-53032068D01*
X87756589Y-53144010D01*
X87513368Y-53306525D01*
X87306525Y-53513368D01*
X87190689Y-53686729D01*
X86948397Y-53611208D01*
X86099605Y-54460000D01*
X86948397Y-55308792D01*
X87190689Y-55233271D01*
X87306525Y-55406632D01*
X87513368Y-55613475D01*
X87687760Y-55730000D01*
X87513368Y-55846525D01*
X87326285Y-56033608D01*
X87258405Y-55906614D01*
X87147962Y-55772038D01*
X87013386Y-55661595D01*
X86859850Y-55579528D01*
X86750707Y-55546420D01*
X86768792Y-55488397D01*
X85920000Y-54639605D01*
X85071208Y-55488397D01*
X85089293Y-55546420D01*
X84980150Y-55579528D01*
X84826614Y-55661595D01*
X84692038Y-55772038D01*
X84581595Y-55906614D01*
X84499528Y-56060150D01*
X84448992Y-56226746D01*
X84431928Y-56400000D01*
X70660000Y-56400000D01*
X70660000Y-54032278D01*
X70684748Y-53779872D01*
X71765000Y-53779872D01*
X71765000Y-54220128D01*
X71850890Y-54651925D01*
X72019369Y-55058669D01*
X72263962Y-55424729D01*
X72575271Y-55736038D01*
X72941331Y-55980631D01*
X73348075Y-56149110D01*
X73779872Y-56235000D01*
X74220128Y-56235000D01*
X74651925Y-56149110D01*
X75058669Y-55980631D01*
X75424729Y-55736038D01*
X75736038Y-55424729D01*
X75980631Y-55058669D01*
X76149110Y-54651925D01*
X76173654Y-54528531D01*
X84429389Y-54528531D01*
X84471401Y-54818019D01*
X84569081Y-55093747D01*
X84642528Y-55231157D01*
X84891603Y-55308792D01*
X85740395Y-54460000D01*
X84891603Y-53611208D01*
X84642528Y-53688843D01*
X84516629Y-53952883D01*
X84444661Y-54236411D01*
X84429389Y-54528531D01*
X76173654Y-54528531D01*
X76235000Y-54220128D01*
X76235000Y-53779872D01*
X76165725Y-53431603D01*
X85071208Y-53431603D01*
X85920000Y-54280395D01*
X86768792Y-53431603D01*
X86691157Y-53182528D01*
X86427117Y-53056629D01*
X86143589Y-52984661D01*
X85851469Y-52969389D01*
X85561981Y-53011401D01*
X85286253Y-53109081D01*
X85148843Y-53182528D01*
X85071208Y-53431603D01*
X76165725Y-53431603D01*
X76149110Y-53348075D01*
X75980631Y-52941331D01*
X75739198Y-52580000D01*
X105561928Y-52580000D01*
X105561928Y-54180000D01*
X105574188Y-54304482D01*
X105610498Y-54424180D01*
X105669463Y-54534494D01*
X105748815Y-54631185D01*
X105845506Y-54710537D01*
X105955820Y-54769502D01*
X106075518Y-54805812D01*
X106083961Y-54806643D01*
X105885363Y-55005241D01*
X105728320Y-55240273D01*
X105620147Y-55501426D01*
X105565000Y-55778665D01*
X105565000Y-56061335D01*
X105620147Y-56338574D01*
X105728320Y-56599727D01*
X105885363Y-56834759D01*
X106085241Y-57034637D01*
X106317759Y-57190000D01*
X106085241Y-57345363D01*
X105885363Y-57545241D01*
X105728320Y-57780273D01*
X105620147Y-58041426D01*
X105565000Y-58318665D01*
X105565000Y-58601335D01*
X105620147Y-58878574D01*
X105728320Y-59139727D01*
X105885363Y-59374759D01*
X106085241Y-59574637D01*
X106317759Y-59730000D01*
X106085241Y-59885363D01*
X105885363Y-60085241D01*
X105728320Y-60320273D01*
X105620147Y-60581426D01*
X105565000Y-60858665D01*
X105565000Y-61141335D01*
X105620147Y-61418574D01*
X105728320Y-61679727D01*
X105885363Y-61914759D01*
X106085241Y-62114637D01*
X106320273Y-62271680D01*
X106581426Y-62379853D01*
X106858665Y-62435000D01*
X107141335Y-62435000D01*
X107418574Y-62379853D01*
X107679727Y-62271680D01*
X107914759Y-62114637D01*
X108114637Y-61914759D01*
X108271680Y-61679727D01*
X108379853Y-61418574D01*
X108435000Y-61141335D01*
X108435000Y-60858665D01*
X108379853Y-60581426D01*
X108271680Y-60320273D01*
X108114637Y-60085241D01*
X107914759Y-59885363D01*
X107682241Y-59730000D01*
X107914759Y-59574637D01*
X108114637Y-59374759D01*
X108271680Y-59139727D01*
X108379853Y-58878574D01*
X108435000Y-58601335D01*
X108435000Y-58318665D01*
X108379853Y-58041426D01*
X108271680Y-57780273D01*
X108114637Y-57545241D01*
X107914759Y-57345363D01*
X107682241Y-57190000D01*
X107914759Y-57034637D01*
X108114637Y-56834759D01*
X108271680Y-56599727D01*
X108379853Y-56338574D01*
X108435000Y-56061335D01*
X108435000Y-55778665D01*
X108379853Y-55501426D01*
X108271680Y-55240273D01*
X108114637Y-55005241D01*
X107916039Y-54806643D01*
X107924482Y-54805812D01*
X108044180Y-54769502D01*
X108154494Y-54710537D01*
X108251185Y-54631185D01*
X108330537Y-54534494D01*
X108389502Y-54424180D01*
X108425812Y-54304482D01*
X108438072Y-54180000D01*
X108438072Y-53238665D01*
X113185000Y-53238665D01*
X113185000Y-53521335D01*
X113240147Y-53798574D01*
X113348320Y-54059727D01*
X113505363Y-54294759D01*
X113705241Y-54494637D01*
X113937759Y-54650000D01*
X113705241Y-54805363D01*
X113505363Y-55005241D01*
X113348320Y-55240273D01*
X113240147Y-55501426D01*
X113185000Y-55778665D01*
X113185000Y-56061335D01*
X113240147Y-56338574D01*
X113348320Y-56599727D01*
X113505363Y-56834759D01*
X113705241Y-57034637D01*
X113937759Y-57190000D01*
X113705241Y-57345363D01*
X113505363Y-57545241D01*
X113348320Y-57780273D01*
X113240147Y-58041426D01*
X113185000Y-58318665D01*
X113185000Y-58601335D01*
X113240147Y-58878574D01*
X113348320Y-59139727D01*
X113505363Y-59374759D01*
X113705241Y-59574637D01*
X113937759Y-59730000D01*
X113705241Y-59885363D01*
X113505363Y-60085241D01*
X113348320Y-60320273D01*
X113240147Y-60581426D01*
X113185000Y-60858665D01*
X113185000Y-61141335D01*
X113240147Y-61418574D01*
X113348320Y-61679727D01*
X113505363Y-61914759D01*
X113705241Y-62114637D01*
X113940273Y-62271680D01*
X114201426Y-62379853D01*
X114478665Y-62435000D01*
X114761335Y-62435000D01*
X115038574Y-62379853D01*
X115299727Y-62271680D01*
X115534759Y-62114637D01*
X115734637Y-61914759D01*
X115891680Y-61679727D01*
X115999853Y-61418574D01*
X116053276Y-61150000D01*
X124511928Y-61150000D01*
X124511928Y-62850000D01*
X124524188Y-62974482D01*
X124560498Y-63094180D01*
X124619463Y-63204494D01*
X124698815Y-63301185D01*
X124795506Y-63380537D01*
X124905820Y-63439502D01*
X124986466Y-63463966D01*
X124902412Y-63539731D01*
X124728359Y-63773080D01*
X124603175Y-64035901D01*
X124558524Y-64183110D01*
X124679845Y-64413000D01*
X125873000Y-64413000D01*
X125873000Y-64393000D01*
X126127000Y-64393000D01*
X126127000Y-64413000D01*
X127320155Y-64413000D01*
X127441476Y-64183110D01*
X127396825Y-64035901D01*
X127271641Y-63773080D01*
X127097588Y-63539731D01*
X127013534Y-63463966D01*
X127094180Y-63439502D01*
X127204494Y-63380537D01*
X127301185Y-63301185D01*
X127380537Y-63204494D01*
X127439502Y-63094180D01*
X127475812Y-62974482D01*
X127488072Y-62850000D01*
X127488072Y-61150000D01*
X127475812Y-61025518D01*
X127439502Y-60905820D01*
X127380537Y-60795506D01*
X127301185Y-60698815D01*
X127204494Y-60619463D01*
X127094180Y-60560498D01*
X126974482Y-60524188D01*
X126850000Y-60511928D01*
X125150000Y-60511928D01*
X125025518Y-60524188D01*
X124905820Y-60560498D01*
X124795506Y-60619463D01*
X124698815Y-60698815D01*
X124619463Y-60795506D01*
X124560498Y-60905820D01*
X124524188Y-61025518D01*
X124511928Y-61150000D01*
X116053276Y-61150000D01*
X116055000Y-61141335D01*
X116055000Y-60858665D01*
X115999853Y-60581426D01*
X115891680Y-60320273D01*
X115734637Y-60085241D01*
X115534759Y-59885363D01*
X115302241Y-59730000D01*
X115534759Y-59574637D01*
X115734637Y-59374759D01*
X115891680Y-59139727D01*
X115999853Y-58878574D01*
X116055000Y-58601335D01*
X116055000Y-58318665D01*
X115999853Y-58041426D01*
X115891680Y-57780273D01*
X115734637Y-57545241D01*
X115534759Y-57345363D01*
X115302241Y-57190000D01*
X115534759Y-57034637D01*
X115734637Y-56834759D01*
X115891680Y-56599727D01*
X115999853Y-56338574D01*
X116055000Y-56061335D01*
X116055000Y-55778665D01*
X115999853Y-55501426D01*
X115891680Y-55240273D01*
X115734637Y-55005241D01*
X115534759Y-54805363D01*
X115302241Y-54650000D01*
X115534759Y-54494637D01*
X115734637Y-54294759D01*
X115891680Y-54059727D01*
X115999853Y-53798574D01*
X116055000Y-53521335D01*
X116055000Y-53238665D01*
X115999853Y-52961426D01*
X115891680Y-52700273D01*
X115734637Y-52465241D01*
X115534759Y-52265363D01*
X115299727Y-52108320D01*
X115038574Y-52000147D01*
X114761335Y-51945000D01*
X114478665Y-51945000D01*
X114201426Y-52000147D01*
X113940273Y-52108320D01*
X113705241Y-52265363D01*
X113505363Y-52465241D01*
X113348320Y-52700273D01*
X113240147Y-52961426D01*
X113185000Y-53238665D01*
X108438072Y-53238665D01*
X108438072Y-52580000D01*
X108425812Y-52455518D01*
X108389502Y-52335820D01*
X108330537Y-52225506D01*
X108251185Y-52128815D01*
X108154494Y-52049463D01*
X108044180Y-51990498D01*
X107924482Y-51954188D01*
X107800000Y-51941928D01*
X106200000Y-51941928D01*
X106075518Y-51954188D01*
X105955820Y-51990498D01*
X105845506Y-52049463D01*
X105748815Y-52128815D01*
X105669463Y-52225506D01*
X105610498Y-52335820D01*
X105574188Y-52455518D01*
X105561928Y-52580000D01*
X75739198Y-52580000D01*
X75736038Y-52575271D01*
X75424729Y-52263962D01*
X75058669Y-52019369D01*
X74651925Y-51850890D01*
X74220128Y-51765000D01*
X73779872Y-51765000D01*
X73348075Y-51850890D01*
X72941331Y-52019369D01*
X72575271Y-52263962D01*
X72263962Y-52575271D01*
X72019369Y-52941331D01*
X71850890Y-53348075D01*
X71765000Y-53779872D01*
X70684748Y-53779872D01*
X70726714Y-53351874D01*
X70914943Y-52728428D01*
X71220681Y-52153421D01*
X71632279Y-51648753D01*
X72134067Y-51233638D01*
X72706924Y-50923895D01*
X73329039Y-50731318D01*
X74007584Y-50660000D01*
X124095845Y-50660000D01*
X123555330Y-51021161D01*
%TA.AperFunction,Conductor*%
D24*
G36*
X123555330Y-51021161D02*
G01*
X123021161Y-51555330D01*
X122601467Y-52183446D01*
X122312377Y-52881372D01*
X122165000Y-53622285D01*
X122165000Y-54377715D01*
X122312377Y-55118628D01*
X122601467Y-55816554D01*
X123021161Y-56444670D01*
X123555330Y-56978839D01*
X124183446Y-57398533D01*
X124881372Y-57687623D01*
X125622285Y-57835000D01*
X126377715Y-57835000D01*
X127118628Y-57687623D01*
X127816554Y-57398533D01*
X128444670Y-56978839D01*
X128978839Y-56444670D01*
X129340001Y-55904153D01*
X129340000Y-105967721D01*
X129273286Y-106648126D01*
X129085057Y-107271570D01*
X128779323Y-107846573D01*
X128367721Y-108351248D01*
X127865933Y-108766362D01*
X127293077Y-109076104D01*
X126670961Y-109268682D01*
X125992417Y-109340000D01*
X74032279Y-109340000D01*
X73351874Y-109273286D01*
X72728430Y-109085057D01*
X72153427Y-108779323D01*
X71648752Y-108367721D01*
X71233638Y-107865933D01*
X70923896Y-107293077D01*
X70731318Y-106670961D01*
X70660000Y-105992417D01*
X70660000Y-105779872D01*
X71765000Y-105779872D01*
X71765000Y-106220128D01*
X71850890Y-106651925D01*
X72019369Y-107058669D01*
X72263962Y-107424729D01*
X72575271Y-107736038D01*
X72941331Y-107980631D01*
X73348075Y-108149110D01*
X73779872Y-108235000D01*
X74220128Y-108235000D01*
X74651925Y-108149110D01*
X75058669Y-107980631D01*
X75424729Y-107736038D01*
X75736038Y-107424729D01*
X75980631Y-107058669D01*
X76149110Y-106651925D01*
X76235000Y-106220128D01*
X76235000Y-105830000D01*
X100111928Y-105830000D01*
X100111928Y-107530000D01*
X100124188Y-107654482D01*
X100160498Y-107774180D01*
X100219463Y-107884494D01*
X100298815Y-107981185D01*
X100395506Y-108060537D01*
X100505820Y-108119502D01*
X100625518Y-108155812D01*
X100750000Y-108168072D01*
X102450000Y-108168072D01*
X102574482Y-108155812D01*
X102694180Y-108119502D01*
X102804494Y-108060537D01*
X102901185Y-107981185D01*
X102980537Y-107884494D01*
X103039502Y-107774180D01*
X103061513Y-107701620D01*
X103193368Y-107833475D01*
X103436589Y-107995990D01*
X103706842Y-108107932D01*
X103993740Y-108165000D01*
X104286260Y-108165000D01*
X104573158Y-108107932D01*
X104843411Y-107995990D01*
X105086632Y-107833475D01*
X105293475Y-107626632D01*
X105410000Y-107452240D01*
X105526525Y-107626632D01*
X105733368Y-107833475D01*
X105976589Y-107995990D01*
X106246842Y-108107932D01*
X106533740Y-108165000D01*
X106826260Y-108165000D01*
X107113158Y-108107932D01*
X107383411Y-107995990D01*
X107626632Y-107833475D01*
X107833475Y-107626632D01*
X107950000Y-107452240D01*
X108066525Y-107626632D01*
X108273368Y-107833475D01*
X108516589Y-107995990D01*
X108786842Y-108107932D01*
X109073740Y-108165000D01*
X109366260Y-108165000D01*
X109653158Y-108107932D01*
X109923411Y-107995990D01*
X110166632Y-107833475D01*
X110373475Y-107626632D01*
X110490000Y-107452240D01*
X110606525Y-107626632D01*
X110813368Y-107833475D01*
X111056589Y-107995990D01*
X111326842Y-108107932D01*
X111613740Y-108165000D01*
X111906260Y-108165000D01*
X112193158Y-108107932D01*
X112463411Y-107995990D01*
X112706632Y-107833475D01*
X112913475Y-107626632D01*
X113030000Y-107452240D01*
X113146525Y-107626632D01*
X113353368Y-107833475D01*
X113596589Y-107995990D01*
X113866842Y-108107932D01*
X114153740Y-108165000D01*
X114446260Y-108165000D01*
X114733158Y-108107932D01*
X115003411Y-107995990D01*
X115246632Y-107833475D01*
X115453475Y-107626632D01*
X115570000Y-107452240D01*
X115686525Y-107626632D01*
X115893368Y-107833475D01*
X116136589Y-107995990D01*
X116406842Y-108107932D01*
X116693740Y-108165000D01*
X116986260Y-108165000D01*
X117273158Y-108107932D01*
X117543411Y-107995990D01*
X117786632Y-107833475D01*
X117993475Y-107626632D01*
X118110000Y-107452240D01*
X118226525Y-107626632D01*
X118433368Y-107833475D01*
X118676589Y-107995990D01*
X118946842Y-108107932D01*
X119233740Y-108165000D01*
X119526260Y-108165000D01*
X119813158Y-108107932D01*
X120083411Y-107995990D01*
X120326632Y-107833475D01*
X120533475Y-107626632D01*
X120695990Y-107383411D01*
X120807932Y-107113158D01*
X120865000Y-106826260D01*
X120865000Y-106533740D01*
X120807932Y-106246842D01*
X120695990Y-105976589D01*
X120564548Y-105779872D01*
X123765000Y-105779872D01*
X123765000Y-106220128D01*
X123850890Y-106651925D01*
X124019369Y-107058669D01*
X124263962Y-107424729D01*
X124575271Y-107736038D01*
X124941331Y-107980631D01*
X125348075Y-108149110D01*
X125779872Y-108235000D01*
X126220128Y-108235000D01*
X126651925Y-108149110D01*
X127058669Y-107980631D01*
X127424729Y-107736038D01*
X127736038Y-107424729D01*
X127980631Y-107058669D01*
X128149110Y-106651925D01*
X128235000Y-106220128D01*
X128235000Y-105779872D01*
X128149110Y-105348075D01*
X127980631Y-104941331D01*
X127736038Y-104575271D01*
X127424729Y-104263962D01*
X127058669Y-104019369D01*
X126651925Y-103850890D01*
X126220128Y-103765000D01*
X125779872Y-103765000D01*
X125348075Y-103850890D01*
X124941331Y-104019369D01*
X124575271Y-104263962D01*
X124263962Y-104575271D01*
X124019369Y-104941331D01*
X123850890Y-105348075D01*
X123765000Y-105779872D01*
X120564548Y-105779872D01*
X120533475Y-105733368D01*
X120326632Y-105526525D01*
X120083411Y-105364010D01*
X119813158Y-105252068D01*
X119526260Y-105195000D01*
X119233740Y-105195000D01*
X118946842Y-105252068D01*
X118676589Y-105364010D01*
X118433368Y-105526525D01*
X118226525Y-105733368D01*
X118110000Y-105907760D01*
X117993475Y-105733368D01*
X117786632Y-105526525D01*
X117543411Y-105364010D01*
X117273158Y-105252068D01*
X116986260Y-105195000D01*
X116693740Y-105195000D01*
X116406842Y-105252068D01*
X116136589Y-105364010D01*
X115893368Y-105526525D01*
X115686525Y-105733368D01*
X115570000Y-105907760D01*
X115453475Y-105733368D01*
X115246632Y-105526525D01*
X115003411Y-105364010D01*
X114733158Y-105252068D01*
X114446260Y-105195000D01*
X114153740Y-105195000D01*
X113866842Y-105252068D01*
X113596589Y-105364010D01*
X113353368Y-105526525D01*
X113146525Y-105733368D01*
X113030000Y-105907760D01*
X112913475Y-105733368D01*
X112706632Y-105526525D01*
X112463411Y-105364010D01*
X112193158Y-105252068D01*
X111906260Y-105195000D01*
X111613740Y-105195000D01*
X111326842Y-105252068D01*
X111056589Y-105364010D01*
X110813368Y-105526525D01*
X110606525Y-105733368D01*
X110490000Y-105907760D01*
X110373475Y-105733368D01*
X110166632Y-105526525D01*
X109923411Y-105364010D01*
X109653158Y-105252068D01*
X109366260Y-105195000D01*
X109073740Y-105195000D01*
X108786842Y-105252068D01*
X108516589Y-105364010D01*
X108273368Y-105526525D01*
X108066525Y-105733368D01*
X107950000Y-105907760D01*
X107833475Y-105733368D01*
X107626632Y-105526525D01*
X107383411Y-105364010D01*
X107113158Y-105252068D01*
X106826260Y-105195000D01*
X106533740Y-105195000D01*
X106246842Y-105252068D01*
X105976589Y-105364010D01*
X105733368Y-105526525D01*
X105526525Y-105733368D01*
X105410000Y-105907760D01*
X105293475Y-105733368D01*
X105086632Y-105526525D01*
X104843411Y-105364010D01*
X104573158Y-105252068D01*
X104286260Y-105195000D01*
X103993740Y-105195000D01*
X103706842Y-105252068D01*
X103436589Y-105364010D01*
X103193368Y-105526525D01*
X103061513Y-105658380D01*
X103039502Y-105585820D01*
X102980537Y-105475506D01*
X102901185Y-105378815D01*
X102804494Y-105299463D01*
X102694180Y-105240498D01*
X102574482Y-105204188D01*
X102450000Y-105191928D01*
X100750000Y-105191928D01*
X100625518Y-105204188D01*
X100505820Y-105240498D01*
X100395506Y-105299463D01*
X100298815Y-105378815D01*
X100219463Y-105475506D01*
X100160498Y-105585820D01*
X100124188Y-105705518D01*
X100111928Y-105830000D01*
X76235000Y-105830000D01*
X76235000Y-105779872D01*
X76149110Y-105348075D01*
X75980631Y-104941331D01*
X75736038Y-104575271D01*
X75424729Y-104263962D01*
X75058669Y-104019369D01*
X74651925Y-103850890D01*
X74220128Y-103765000D01*
X73779872Y-103765000D01*
X73348075Y-103850890D01*
X72941331Y-104019369D01*
X72575271Y-104263962D01*
X72263962Y-104575271D01*
X72019369Y-104941331D01*
X71850890Y-105348075D01*
X71765000Y-105779872D01*
X70660000Y-105779872D01*
X70660000Y-100750000D01*
X92491928Y-100750000D01*
X92491928Y-102450000D01*
X92504188Y-102574482D01*
X92540498Y-102694180D01*
X92599463Y-102804494D01*
X92678815Y-102901185D01*
X92775506Y-102980537D01*
X92885820Y-103039502D01*
X93005518Y-103075812D01*
X93130000Y-103088072D01*
X94830000Y-103088072D01*
X94954482Y-103075812D01*
X95074180Y-103039502D01*
X95184494Y-102980537D01*
X95281185Y-102901185D01*
X95360537Y-102804494D01*
X95419502Y-102694180D01*
X95441513Y-102621620D01*
X95573368Y-102753475D01*
X95816589Y-102915990D01*
X96086842Y-103027932D01*
X96373740Y-103085000D01*
X96666260Y-103085000D01*
X96953158Y-103027932D01*
X97223411Y-102915990D01*
X97466632Y-102753475D01*
X97673475Y-102546632D01*
X97835990Y-102303411D01*
X97947932Y-102033158D01*
X98005000Y-101746260D01*
X98005000Y-101453740D01*
X97947932Y-101166842D01*
X97835990Y-100896589D01*
X97673475Y-100653368D01*
X97466632Y-100446525D01*
X97223411Y-100284010D01*
X96953158Y-100172068D01*
X96666260Y-100115000D01*
X96373740Y-100115000D01*
X96086842Y-100172068D01*
X95816589Y-100284010D01*
X95573368Y-100446525D01*
X95441513Y-100578380D01*
X95419502Y-100505820D01*
X95360537Y-100395506D01*
X95281185Y-100298815D01*
X95184494Y-100219463D01*
X95074180Y-100160498D01*
X94954482Y-100124188D01*
X94830000Y-100111928D01*
X93130000Y-100111928D01*
X93005518Y-100124188D01*
X92885820Y-100160498D01*
X92775506Y-100219463D01*
X92678815Y-100298815D01*
X92599463Y-100395506D01*
X92540498Y-100505820D01*
X92504188Y-100625518D01*
X92491928Y-100750000D01*
X70660000Y-100750000D01*
X70660000Y-95670000D01*
X102651928Y-95670000D01*
X102651928Y-97370000D01*
X102664188Y-97494482D01*
X102700498Y-97614180D01*
X102759463Y-97724494D01*
X102838815Y-97821185D01*
X102935506Y-97900537D01*
X103045820Y-97959502D01*
X103118380Y-97981513D01*
X102986525Y-98113368D01*
X102824010Y-98356589D01*
X102712068Y-98626842D01*
X102655000Y-98913740D01*
X102655000Y-99206260D01*
X102712068Y-99493158D01*
X102824010Y-99763411D01*
X102986525Y-100006632D01*
X103193368Y-100213475D01*
X103436589Y-100375990D01*
X103706842Y-100487932D01*
X103993740Y-100545000D01*
X104286260Y-100545000D01*
X104573158Y-100487932D01*
X104843411Y-100375990D01*
X105086632Y-100213475D01*
X105293475Y-100006632D01*
X105455990Y-99763411D01*
X105567932Y-99493158D01*
X105625000Y-99206260D01*
X105625000Y-98913740D01*
X105567932Y-98626842D01*
X105455990Y-98356589D01*
X105293475Y-98113368D01*
X105161620Y-97981513D01*
X105234180Y-97959502D01*
X105344494Y-97900537D01*
X105441185Y-97821185D01*
X105520537Y-97724494D01*
X105579502Y-97614180D01*
X105615812Y-97494482D01*
X105628072Y-97370000D01*
X105628072Y-96283506D01*
X108026579Y-93885000D01*
X117956531Y-93885000D01*
X118000000Y-93889281D01*
X118043469Y-93885000D01*
X118043477Y-93885000D01*
X118173490Y-93872195D01*
X118340313Y-93821589D01*
X118494059Y-93739411D01*
X118495000Y-93738639D01*
X118495000Y-95035375D01*
X118405518Y-95044188D01*
X118285820Y-95080498D01*
X118175506Y-95139463D01*
X118078815Y-95218815D01*
X117999463Y-95315506D01*
X117940498Y-95425820D01*
X117904188Y-95545518D01*
X117891928Y-95670000D01*
X117891928Y-97370000D01*
X117904188Y-97494482D01*
X117940498Y-97614180D01*
X117999463Y-97724494D01*
X118078815Y-97821185D01*
X118175506Y-97900537D01*
X118285820Y-97959502D01*
X118358380Y-97981513D01*
X118226525Y-98113368D01*
X118064010Y-98356589D01*
X117952068Y-98626842D01*
X117895000Y-98913740D01*
X117895000Y-99206260D01*
X117952068Y-99493158D01*
X118064010Y-99763411D01*
X118226525Y-100006632D01*
X118433368Y-100213475D01*
X118676589Y-100375990D01*
X118946842Y-100487932D01*
X119233740Y-100545000D01*
X119526260Y-100545000D01*
X119813158Y-100487932D01*
X120083411Y-100375990D01*
X120326632Y-100213475D01*
X120533475Y-100006632D01*
X120695990Y-99763411D01*
X120807932Y-99493158D01*
X120865000Y-99206260D01*
X120865000Y-98913740D01*
X120807932Y-98626842D01*
X120695990Y-98356589D01*
X120533475Y-98113368D01*
X120401620Y-97981513D01*
X120474180Y-97959502D01*
X120584494Y-97900537D01*
X120681185Y-97821185D01*
X120760537Y-97724494D01*
X120819502Y-97614180D01*
X120855812Y-97494482D01*
X120868072Y-97370000D01*
X120868072Y-95670000D01*
X120855812Y-95545518D01*
X120819502Y-95425820D01*
X120760537Y-95315506D01*
X120681185Y-95218815D01*
X120584494Y-95139463D01*
X120474180Y-95080498D01*
X120354482Y-95044188D01*
X120265000Y-95035375D01*
X120265000Y-93976542D01*
X122115001Y-92126542D01*
X122115001Y-99498384D01*
X120878398Y-100734988D01*
X112146567Y-100734988D01*
X110690539Y-99278961D01*
X110705000Y-99206260D01*
X110705000Y-98913740D01*
X110647932Y-98626842D01*
X110535990Y-98356589D01*
X110373475Y-98113368D01*
X110241620Y-97981513D01*
X110314180Y-97959502D01*
X110424494Y-97900537D01*
X110521185Y-97821185D01*
X110600537Y-97724494D01*
X110659502Y-97614180D01*
X110695812Y-97494482D01*
X110708072Y-97370000D01*
X110708072Y-95670000D01*
X112811928Y-95670000D01*
X112811928Y-97370000D01*
X112824188Y-97494482D01*
X112860498Y-97614180D01*
X112919463Y-97724494D01*
X112998815Y-97821185D01*
X113095506Y-97900537D01*
X113205820Y-97959502D01*
X113278380Y-97981513D01*
X113146525Y-98113368D01*
X112984010Y-98356589D01*
X112872068Y-98626842D01*
X112815000Y-98913740D01*
X112815000Y-99206260D01*
X112872068Y-99493158D01*
X112984010Y-99763411D01*
X113146525Y-100006632D01*
X113353368Y-100213475D01*
X113596589Y-100375990D01*
X113866842Y-100487932D01*
X114153740Y-100545000D01*
X114446260Y-100545000D01*
X114733158Y-100487932D01*
X115003411Y-100375990D01*
X115246632Y-100213475D01*
X115453475Y-100006632D01*
X115615990Y-99763411D01*
X115727932Y-99493158D01*
X115785000Y-99206260D01*
X115785000Y-98913740D01*
X115727932Y-98626842D01*
X115615990Y-98356589D01*
X115453475Y-98113368D01*
X115321620Y-97981513D01*
X115394180Y-97959502D01*
X115504494Y-97900537D01*
X115601185Y-97821185D01*
X115680537Y-97724494D01*
X115739502Y-97614180D01*
X115775812Y-97494482D01*
X115788072Y-97370000D01*
X115788072Y-95670000D01*
X115775812Y-95545518D01*
X115739502Y-95425820D01*
X115680537Y-95315506D01*
X115601185Y-95218815D01*
X115504494Y-95139463D01*
X115394180Y-95080498D01*
X115274482Y-95044188D01*
X115150000Y-95031928D01*
X113450000Y-95031928D01*
X113325518Y-95044188D01*
X113205820Y-95080498D01*
X113095506Y-95139463D01*
X112998815Y-95218815D01*
X112919463Y-95315506D01*
X112860498Y-95425820D01*
X112824188Y-95545518D01*
X112811928Y-95670000D01*
X110708072Y-95670000D01*
X110695812Y-95545518D01*
X110659502Y-95425820D01*
X110600537Y-95315506D01*
X110521185Y-95218815D01*
X110424494Y-95139463D01*
X110314180Y-95080498D01*
X110194482Y-95044188D01*
X110070000Y-95031928D01*
X108370000Y-95031928D01*
X108245518Y-95044188D01*
X108125820Y-95080498D01*
X108015506Y-95139463D01*
X107918815Y-95218815D01*
X107839463Y-95315506D01*
X107780498Y-95425820D01*
X107744188Y-95545518D01*
X107731928Y-95670000D01*
X107731928Y-97370000D01*
X107744188Y-97494482D01*
X107780498Y-97614180D01*
X107839463Y-97724494D01*
X107918815Y-97821185D01*
X108015506Y-97900537D01*
X108125820Y-97959502D01*
X108198380Y-97981513D01*
X108066525Y-98113368D01*
X107904010Y-98356589D01*
X107792068Y-98626842D01*
X107735000Y-98913740D01*
X107735000Y-99206260D01*
X107792068Y-99493158D01*
X107904010Y-99763411D01*
X108066525Y-100006632D01*
X108273368Y-100213475D01*
X108516589Y-100375990D01*
X108786842Y-100487932D01*
X109073740Y-100545000D01*
X109366260Y-100545000D01*
X109438961Y-100530539D01*
X111123458Y-102215037D01*
X111151171Y-102248805D01*
X111184939Y-102276518D01*
X111184941Y-102276520D01*
X111283185Y-102357147D01*
X111285929Y-102359399D01*
X111439675Y-102441577D01*
X111606498Y-102492183D01*
X111736511Y-102504988D01*
X111736519Y-102504988D01*
X111779988Y-102509269D01*
X111823457Y-102504988D01*
X121336536Y-102504988D01*
X121380012Y-102509270D01*
X121553502Y-102492183D01*
X121720325Y-102441577D01*
X121874071Y-102359399D01*
X122008829Y-102248805D01*
X122119423Y-102114047D01*
X122119572Y-102113769D01*
X122201601Y-101960301D01*
X122221353Y-101895189D01*
X123595049Y-100521494D01*
X123628817Y-100493781D01*
X123667600Y-100446525D01*
X123739410Y-100359024D01*
X123771592Y-100298815D01*
X123821589Y-100205277D01*
X123872195Y-100038454D01*
X123885000Y-99908441D01*
X123885000Y-99908434D01*
X123889281Y-99864965D01*
X123885000Y-99821496D01*
X123885000Y-73793465D01*
X123889281Y-73749999D01*
X123885000Y-73706533D01*
X123885000Y-73706523D01*
X123872195Y-73576510D01*
X123821589Y-73409687D01*
X123739411Y-73255941D01*
X123628817Y-73121183D01*
X123595051Y-73093472D01*
X117435319Y-66933740D01*
X124515000Y-66933740D01*
X124515000Y-67226260D01*
X124572068Y-67513158D01*
X124684010Y-67783411D01*
X124846525Y-68026632D01*
X125053368Y-68233475D01*
X125296589Y-68395990D01*
X125566842Y-68507932D01*
X125853740Y-68565000D01*
X126146260Y-68565000D01*
X126433158Y-68507932D01*
X126703411Y-68395990D01*
X126946632Y-68233475D01*
X127153475Y-68026632D01*
X127315990Y-67783411D01*
X127427932Y-67513158D01*
X127485000Y-67226260D01*
X127485000Y-66933740D01*
X127427932Y-66646842D01*
X127315990Y-66376589D01*
X127153475Y-66133368D01*
X126946632Y-65926525D01*
X126764466Y-65804805D01*
X126881355Y-65735178D01*
X127097588Y-65540269D01*
X127271641Y-65306920D01*
X127396825Y-65044099D01*
X127441476Y-64896890D01*
X127320155Y-64667000D01*
X126127000Y-64667000D01*
X126127000Y-64687000D01*
X125873000Y-64687000D01*
X125873000Y-64667000D01*
X124679845Y-64667000D01*
X124558524Y-64896890D01*
X124603175Y-65044099D01*
X124728359Y-65306920D01*
X124902412Y-65540269D01*
X125118645Y-65735178D01*
X125235534Y-65804805D01*
X125053368Y-65926525D01*
X124846525Y-66133368D01*
X124684010Y-66376589D01*
X124572068Y-66646842D01*
X124515000Y-66933740D01*
X117435319Y-66933740D01*
X117156534Y-66654956D01*
X117128817Y-66621183D01*
X116994059Y-66510589D01*
X116840313Y-66428411D01*
X116673490Y-66377805D01*
X116543477Y-66365000D01*
X116543469Y-66365000D01*
X116500000Y-66360719D01*
X116456531Y-66365000D01*
X112293469Y-66365000D01*
X112250000Y-66360719D01*
X112206531Y-66365000D01*
X112206523Y-66365000D01*
X112076510Y-66377805D01*
X111909687Y-66428411D01*
X111795563Y-66489411D01*
X111755941Y-66510589D01*
X111654953Y-66593468D01*
X111654951Y-66593470D01*
X111621183Y-66621183D01*
X111593470Y-66654951D01*
X110883421Y-67365000D01*
X109819678Y-67365000D01*
X109579484Y-67388657D01*
X109271285Y-67482148D01*
X108987248Y-67633969D01*
X108738286Y-67838286D01*
X108533969Y-68087248D01*
X108382148Y-68371285D01*
X108288657Y-68679484D01*
X108257089Y-69000000D01*
X108288657Y-69320516D01*
X108362823Y-69565010D01*
X108238072Y-69565010D01*
X108238072Y-68000000D01*
X108225812Y-67875518D01*
X108189502Y-67755820D01*
X108130537Y-67645506D01*
X108051185Y-67548815D01*
X107954494Y-67469463D01*
X107844180Y-67410498D01*
X107724482Y-67374188D01*
X107600000Y-67361928D01*
X104400000Y-67361928D01*
X104275518Y-67374188D01*
X104155820Y-67410498D01*
X104045506Y-67469463D01*
X103948815Y-67548815D01*
X103869463Y-67645506D01*
X103810498Y-67755820D01*
X103774188Y-67875518D01*
X103761928Y-68000000D01*
X103761928Y-70000000D01*
X103774188Y-70124482D01*
X103810498Y-70244180D01*
X103869463Y-70354494D01*
X103948815Y-70451185D01*
X104045506Y-70530537D01*
X104155820Y-70589502D01*
X104275518Y-70625812D01*
X104400000Y-70638072D01*
X106386493Y-70638072D01*
X106793480Y-71045059D01*
X106821193Y-71078827D01*
X106854961Y-71106540D01*
X106854963Y-71106542D01*
X106916424Y-71156982D01*
X106955951Y-71189421D01*
X107109697Y-71271599D01*
X107276520Y-71322205D01*
X107406533Y-71335010D01*
X107406541Y-71335010D01*
X107450010Y-71339291D01*
X107493479Y-71335010D01*
X115083432Y-71335010D01*
X115613422Y-71865000D01*
X114319678Y-71865000D01*
X114079484Y-71888657D01*
X113771285Y-71982148D01*
X113487248Y-72133969D01*
X113238286Y-72338286D01*
X113033969Y-72587248D01*
X112882148Y-72871285D01*
X112788657Y-73179484D01*
X112757089Y-73500000D01*
X112788657Y-73820516D01*
X112882148Y-74128715D01*
X113033969Y-74412752D01*
X113238286Y-74661714D01*
X113487248Y-74866031D01*
X113771285Y-75017852D01*
X114079484Y-75111343D01*
X114319678Y-75135000D01*
X115680322Y-75135000D01*
X115920516Y-75111343D01*
X116228715Y-75017852D01*
X116512752Y-74866031D01*
X116761714Y-74661714D01*
X116966031Y-74412752D01*
X117117852Y-74128715D01*
X117211343Y-73820516D01*
X117242911Y-73500000D01*
X117242309Y-73493887D01*
X120115001Y-76366580D01*
X120115000Y-87613155D01*
X119884099Y-87503175D01*
X119736890Y-87458524D01*
X119507000Y-87579845D01*
X119507000Y-88773000D01*
X119527000Y-88773000D01*
X119527000Y-89027000D01*
X119507000Y-89027000D01*
X119507000Y-89047000D01*
X119253000Y-89047000D01*
X119253000Y-89027000D01*
X116967000Y-89027000D01*
X116967000Y-90220155D01*
X117196890Y-90341476D01*
X117344099Y-90296825D01*
X117606920Y-90171641D01*
X117840269Y-89997588D01*
X118035178Y-89781355D01*
X118110000Y-89655745D01*
X118184822Y-89781355D01*
X118379731Y-89997588D01*
X118613080Y-90171641D01*
X118875901Y-90296825D01*
X119023110Y-90341476D01*
X119252998Y-90220156D01*
X119252998Y-90385000D01*
X119363421Y-90385000D01*
X117633422Y-92115000D01*
X107703469Y-92115000D01*
X107660000Y-92110719D01*
X107616531Y-92115000D01*
X107616523Y-92115000D01*
X107486510Y-92127805D01*
X107319687Y-92178411D01*
X107165941Y-92260589D01*
X107064953Y-92343468D01*
X107064951Y-92343470D01*
X107031183Y-92371183D01*
X107003470Y-92404951D01*
X104376494Y-95031928D01*
X103290000Y-95031928D01*
X103165518Y-95044188D01*
X103045820Y-95080498D01*
X102935506Y-95139463D01*
X102838815Y-95218815D01*
X102759463Y-95315506D01*
X102700498Y-95425820D01*
X102664188Y-95545518D01*
X102651928Y-95670000D01*
X70660000Y-95670000D01*
X70660000Y-93130000D01*
X92491928Y-93130000D01*
X92491928Y-94830000D01*
X92504188Y-94954482D01*
X92540498Y-95074180D01*
X92599463Y-95184494D01*
X92678815Y-95281185D01*
X92775506Y-95360537D01*
X92885820Y-95419502D01*
X93005518Y-95455812D01*
X93130000Y-95468072D01*
X94830000Y-95468072D01*
X94954482Y-95455812D01*
X95074180Y-95419502D01*
X95184494Y-95360537D01*
X95281185Y-95281185D01*
X95360537Y-95184494D01*
X95419502Y-95074180D01*
X95441513Y-95001620D01*
X95573368Y-95133475D01*
X95816589Y-95295990D01*
X96086842Y-95407932D01*
X96373740Y-95465000D01*
X96666260Y-95465000D01*
X96953158Y-95407932D01*
X97223411Y-95295990D01*
X97466632Y-95133475D01*
X97673475Y-94926632D01*
X97835990Y-94683411D01*
X97947932Y-94413158D01*
X98005000Y-94126260D01*
X98005000Y-93833740D01*
X97947932Y-93546842D01*
X97835990Y-93276589D01*
X97673475Y-93033368D01*
X97466632Y-92826525D01*
X97223411Y-92664010D01*
X96953158Y-92552068D01*
X96666260Y-92495000D01*
X96373740Y-92495000D01*
X96086842Y-92552068D01*
X95816589Y-92664010D01*
X95573368Y-92826525D01*
X95441513Y-92958380D01*
X95419502Y-92885820D01*
X95360537Y-92775506D01*
X95281185Y-92678815D01*
X95184494Y-92599463D01*
X95074180Y-92540498D01*
X94954482Y-92504188D01*
X94830000Y-92491928D01*
X93130000Y-92491928D01*
X93005518Y-92504188D01*
X92885820Y-92540498D01*
X92775506Y-92599463D01*
X92678815Y-92678815D01*
X92599463Y-92775506D01*
X92540498Y-92885820D01*
X92504188Y-93005518D01*
X92491928Y-93130000D01*
X70660000Y-93130000D01*
X70660000Y-82970000D01*
X74711928Y-82970000D01*
X74711928Y-84670000D01*
X74724188Y-84794482D01*
X74760498Y-84914180D01*
X74819463Y-85024494D01*
X74898815Y-85121185D01*
X74995506Y-85200537D01*
X75105820Y-85259502D01*
X75178380Y-85281513D01*
X75046525Y-85413368D01*
X74884010Y-85656589D01*
X74772068Y-85926842D01*
X74715000Y-86213740D01*
X74715000Y-86506260D01*
X74772068Y-86793158D01*
X74884010Y-87063411D01*
X75046525Y-87306632D01*
X75253368Y-87513475D01*
X75427760Y-87630000D01*
X75253368Y-87746525D01*
X75046525Y-87953368D01*
X74884010Y-88196589D01*
X74772068Y-88466842D01*
X74715000Y-88753740D01*
X74715000Y-89046260D01*
X74772068Y-89333158D01*
X74884010Y-89603411D01*
X75046525Y-89846632D01*
X75253368Y-90053475D01*
X75496589Y-90215990D01*
X75766842Y-90327932D01*
X76053740Y-90385000D01*
X76346260Y-90385000D01*
X76633158Y-90327932D01*
X76903411Y-90215990D01*
X77146632Y-90053475D01*
X77353475Y-89846632D01*
X77515990Y-89603411D01*
X77627932Y-89333158D01*
X77685000Y-89046260D01*
X77685000Y-88753740D01*
X79795000Y-88753740D01*
X79795000Y-89046260D01*
X79852068Y-89333158D01*
X79964010Y-89603411D01*
X80126525Y-89846632D01*
X80333368Y-90053475D01*
X80576589Y-90215990D01*
X80846842Y-90327932D01*
X81133740Y-90385000D01*
X81426260Y-90385000D01*
X81713158Y-90327932D01*
X81983411Y-90215990D01*
X82226632Y-90053475D01*
X82433475Y-89846632D01*
X82498042Y-89750000D01*
X100111928Y-89750000D01*
X100124188Y-89874482D01*
X100160498Y-89994180D01*
X100219463Y-90104494D01*
X100298815Y-90201185D01*
X100395506Y-90280537D01*
X100505820Y-90339502D01*
X100625518Y-90375812D01*
X100750000Y-90388072D01*
X101314250Y-90385000D01*
X101473000Y-90226250D01*
X101473000Y-89027000D01*
X101727000Y-89027000D01*
X101727000Y-90226250D01*
X101885750Y-90385000D01*
X102450000Y-90388072D01*
X102574482Y-90375812D01*
X102694180Y-90339502D01*
X102804494Y-90280537D01*
X102901185Y-90201185D01*
X102980537Y-90104494D01*
X103039502Y-89994180D01*
X103063966Y-89913534D01*
X103139731Y-89997588D01*
X103373080Y-90171641D01*
X103635901Y-90296825D01*
X103783110Y-90341476D01*
X104013000Y-90220155D01*
X104013000Y-89027000D01*
X104267000Y-89027000D01*
X104267000Y-90220155D01*
X104496890Y-90341476D01*
X104644099Y-90296825D01*
X104906920Y-90171641D01*
X105140269Y-89997588D01*
X105335178Y-89781355D01*
X105410000Y-89655745D01*
X105484822Y-89781355D01*
X105679731Y-89997588D01*
X105913080Y-90171641D01*
X106175901Y-90296825D01*
X106323110Y-90341476D01*
X106553000Y-90220155D01*
X106553000Y-89027000D01*
X106807000Y-89027000D01*
X106807000Y-90220155D01*
X107036890Y-90341476D01*
X107184099Y-90296825D01*
X107446920Y-90171641D01*
X107680269Y-89997588D01*
X107875178Y-89781355D01*
X107950000Y-89655745D01*
X108024822Y-89781355D01*
X108219731Y-89997588D01*
X108453080Y-90171641D01*
X108715901Y-90296825D01*
X108863110Y-90341476D01*
X109093000Y-90220155D01*
X109093000Y-89027000D01*
X109347000Y-89027000D01*
X109347000Y-90220155D01*
X109576890Y-90341476D01*
X109724099Y-90296825D01*
X109986920Y-90171641D01*
X110220269Y-89997588D01*
X110415178Y-89781355D01*
X110490000Y-89655745D01*
X110564822Y-89781355D01*
X110759731Y-89997588D01*
X110993080Y-90171641D01*
X111255901Y-90296825D01*
X111403110Y-90341476D01*
X111633000Y-90220155D01*
X111633000Y-89027000D01*
X111887000Y-89027000D01*
X111887000Y-90220155D01*
X112116890Y-90341476D01*
X112264099Y-90296825D01*
X112526920Y-90171641D01*
X112760269Y-89997588D01*
X112955178Y-89781355D01*
X113030000Y-89655745D01*
X113104822Y-89781355D01*
X113299731Y-89997588D01*
X113533080Y-90171641D01*
X113795901Y-90296825D01*
X113943110Y-90341476D01*
X114173000Y-90220155D01*
X114173000Y-89027000D01*
X114427000Y-89027000D01*
X114427000Y-90220155D01*
X114656890Y-90341476D01*
X114804099Y-90296825D01*
X115066920Y-90171641D01*
X115300269Y-89997588D01*
X115495178Y-89781355D01*
X115570000Y-89655745D01*
X115644822Y-89781355D01*
X115839731Y-89997588D01*
X116073080Y-90171641D01*
X116335901Y-90296825D01*
X116483110Y-90341476D01*
X116713000Y-90220155D01*
X116713000Y-89027000D01*
X114427000Y-89027000D01*
X114173000Y-89027000D01*
X111887000Y-89027000D01*
X111633000Y-89027000D01*
X109347000Y-89027000D01*
X109093000Y-89027000D01*
X106807000Y-89027000D01*
X106553000Y-89027000D01*
X104267000Y-89027000D01*
X104013000Y-89027000D01*
X101727000Y-89027000D01*
X101473000Y-89027000D01*
X100273750Y-89027000D01*
X100115000Y-89185750D01*
X100111928Y-89750000D01*
X82498042Y-89750000D01*
X82595990Y-89603411D01*
X82707932Y-89333158D01*
X82765000Y-89046260D01*
X82765000Y-88753740D01*
X82707932Y-88466842D01*
X82595990Y-88196589D01*
X82498043Y-88050000D01*
X100111928Y-88050000D01*
X100115000Y-88614250D01*
X100273750Y-88773000D01*
X101473000Y-88773000D01*
X101473000Y-87573750D01*
X101727000Y-87573750D01*
X101727000Y-88773000D01*
X104013000Y-88773000D01*
X104013000Y-87579845D01*
X104267000Y-87579845D01*
X104267000Y-88773000D01*
X106553000Y-88773000D01*
X106553000Y-87579845D01*
X106807000Y-87579845D01*
X106807000Y-88773000D01*
X109093000Y-88773000D01*
X109093000Y-87579845D01*
X109347000Y-87579845D01*
X109347000Y-88773000D01*
X111633000Y-88773000D01*
X111633000Y-87579845D01*
X111887000Y-87579845D01*
X111887000Y-88773000D01*
X114173000Y-88773000D01*
X114173000Y-87579845D01*
X114427000Y-87579845D01*
X114427000Y-88773000D01*
X116713000Y-88773000D01*
X116713000Y-87579845D01*
X116967000Y-87579845D01*
X116967000Y-88773000D01*
X119253000Y-88773000D01*
X119253000Y-87579845D01*
X119023110Y-87458524D01*
X118875901Y-87503175D01*
X118613080Y-87628359D01*
X118379731Y-87802412D01*
X118184822Y-88018645D01*
X118110000Y-88144255D01*
X118035178Y-88018645D01*
X117840269Y-87802412D01*
X117606920Y-87628359D01*
X117344099Y-87503175D01*
X117196890Y-87458524D01*
X116967000Y-87579845D01*
X116713000Y-87579845D01*
X116483110Y-87458524D01*
X116335901Y-87503175D01*
X116073080Y-87628359D01*
X115839731Y-87802412D01*
X115644822Y-88018645D01*
X115570000Y-88144255D01*
X115495178Y-88018645D01*
X115300269Y-87802412D01*
X115066920Y-87628359D01*
X114804099Y-87503175D01*
X114656890Y-87458524D01*
X114427000Y-87579845D01*
X114173000Y-87579845D01*
X113943110Y-87458524D01*
X113795901Y-87503175D01*
X113533080Y-87628359D01*
X113299731Y-87802412D01*
X113104822Y-88018645D01*
X113030000Y-88144255D01*
X112955178Y-88018645D01*
X112760269Y-87802412D01*
X112526920Y-87628359D01*
X112264099Y-87503175D01*
X112116890Y-87458524D01*
X111887000Y-87579845D01*
X111633000Y-87579845D01*
X111403110Y-87458524D01*
X111255901Y-87503175D01*
X110993080Y-87628359D01*
X110759731Y-87802412D01*
X110564822Y-88018645D01*
X110490000Y-88144255D01*
X110415178Y-88018645D01*
X110220269Y-87802412D01*
X109986920Y-87628359D01*
X109724099Y-87503175D01*
X109576890Y-87458524D01*
X109347000Y-87579845D01*
X109093000Y-87579845D01*
X108863110Y-87458524D01*
X108715901Y-87503175D01*
X108453080Y-87628359D01*
X108219731Y-87802412D01*
X108024822Y-88018645D01*
X107950000Y-88144255D01*
X107875178Y-88018645D01*
X107680269Y-87802412D01*
X107446920Y-87628359D01*
X107184099Y-87503175D01*
X107036890Y-87458524D01*
X106807000Y-87579845D01*
X106553000Y-87579845D01*
X106323110Y-87458524D01*
X106175901Y-87503175D01*
X105913080Y-87628359D01*
X105679731Y-87802412D01*
X105484822Y-88018645D01*
X105410000Y-88144255D01*
X105335178Y-88018645D01*
X105140269Y-87802412D01*
X104906920Y-87628359D01*
X104644099Y-87503175D01*
X104496890Y-87458524D01*
X104267000Y-87579845D01*
X104013000Y-87579845D01*
X103783110Y-87458524D01*
X103635901Y-87503175D01*
X103373080Y-87628359D01*
X103139731Y-87802412D01*
X103063966Y-87886466D01*
X103039502Y-87805820D01*
X102980537Y-87695506D01*
X102901185Y-87598815D01*
X102804494Y-87519463D01*
X102694180Y-87460498D01*
X102574482Y-87424188D01*
X102450000Y-87411928D01*
X101885750Y-87415000D01*
X101727000Y-87573750D01*
X101473000Y-87573750D01*
X101314250Y-87415000D01*
X100750000Y-87411928D01*
X100625518Y-87424188D01*
X100505820Y-87460498D01*
X100395506Y-87519463D01*
X100298815Y-87598815D01*
X100219463Y-87695506D01*
X100160498Y-87805820D01*
X100124188Y-87925518D01*
X100111928Y-88050000D01*
X82498043Y-88050000D01*
X82433475Y-87953368D01*
X82226632Y-87746525D01*
X82044466Y-87624805D01*
X82161355Y-87555178D01*
X82377588Y-87360269D01*
X82551641Y-87126920D01*
X82676825Y-86864099D01*
X82721476Y-86716890D01*
X82600155Y-86487000D01*
X81407000Y-86487000D01*
X81407000Y-86507000D01*
X81153000Y-86507000D01*
X81153000Y-86487000D01*
X79959845Y-86487000D01*
X79838524Y-86716890D01*
X79883175Y-86864099D01*
X80008359Y-87126920D01*
X80182412Y-87360269D01*
X80398645Y-87555178D01*
X80515534Y-87624805D01*
X80333368Y-87746525D01*
X80126525Y-87953368D01*
X79964010Y-88196589D01*
X79852068Y-88466842D01*
X79795000Y-88753740D01*
X77685000Y-88753740D01*
X77627932Y-88466842D01*
X77515990Y-88196589D01*
X77353475Y-87953368D01*
X77146632Y-87746525D01*
X76972240Y-87630000D01*
X77146632Y-87513475D01*
X77353475Y-87306632D01*
X77515990Y-87063411D01*
X77627932Y-86793158D01*
X77685000Y-86506260D01*
X77685000Y-86213740D01*
X77627932Y-85926842D01*
X77515990Y-85656589D01*
X77353475Y-85413368D01*
X77221620Y-85281513D01*
X77294180Y-85259502D01*
X77404494Y-85200537D01*
X77501185Y-85121185D01*
X77580537Y-85024494D01*
X77639502Y-84914180D01*
X77675812Y-84794482D01*
X77688072Y-84670000D01*
X77688072Y-83673740D01*
X79795000Y-83673740D01*
X79795000Y-83966260D01*
X79852068Y-84253158D01*
X79964010Y-84523411D01*
X80126525Y-84766632D01*
X80333368Y-84973475D01*
X80515534Y-85095195D01*
X80398645Y-85164822D01*
X80182412Y-85359731D01*
X80008359Y-85593080D01*
X79883175Y-85855901D01*
X79838524Y-86003110D01*
X79959845Y-86233000D01*
X81153000Y-86233000D01*
X81153000Y-86213000D01*
X81407000Y-86213000D01*
X81407000Y-86233000D01*
X82600155Y-86233000D01*
X82721476Y-86003110D01*
X82676825Y-85855901D01*
X82551641Y-85593080D01*
X82377588Y-85359731D01*
X82161355Y-85164822D01*
X82044466Y-85095195D01*
X82226632Y-84973475D01*
X82433475Y-84766632D01*
X82595990Y-84523411D01*
X82707932Y-84253158D01*
X82765000Y-83966260D01*
X82765000Y-83673740D01*
X82707932Y-83386842D01*
X82595990Y-83116589D01*
X82433475Y-82873368D01*
X82226632Y-82666525D01*
X81983411Y-82504010D01*
X81713158Y-82392068D01*
X81426260Y-82335000D01*
X81133740Y-82335000D01*
X80846842Y-82392068D01*
X80576589Y-82504010D01*
X80333368Y-82666525D01*
X80126525Y-82873368D01*
X79964010Y-83116589D01*
X79852068Y-83386842D01*
X79795000Y-83673740D01*
X77688072Y-83673740D01*
X77688072Y-82970000D01*
X77675812Y-82845518D01*
X77639502Y-82725820D01*
X77580537Y-82615506D01*
X77501185Y-82518815D01*
X77404494Y-82439463D01*
X77294180Y-82380498D01*
X77174482Y-82344188D01*
X77050000Y-82331928D01*
X75350000Y-82331928D01*
X75225518Y-82344188D01*
X75105820Y-82380498D01*
X74995506Y-82439463D01*
X74898815Y-82518815D01*
X74819463Y-82615506D01*
X74760498Y-82725820D01*
X74724188Y-82845518D01*
X74711928Y-82970000D01*
X70660000Y-82970000D01*
X70660000Y-67305098D01*
X71955000Y-67305098D01*
X71955000Y-67774902D01*
X72046654Y-68235679D01*
X72226440Y-68669721D01*
X72487450Y-69060349D01*
X72819651Y-69392550D01*
X73210279Y-69653560D01*
X73644321Y-69833346D01*
X74105098Y-69925000D01*
X74574902Y-69925000D01*
X75035679Y-69833346D01*
X75469721Y-69653560D01*
X75860349Y-69392550D01*
X76192550Y-69060349D01*
X76453560Y-68669721D01*
X76633346Y-68235679D01*
X76725000Y-67774902D01*
X76725000Y-67305098D01*
X76633346Y-66844321D01*
X76453560Y-66410279D01*
X76192550Y-66019651D01*
X75860349Y-65687450D01*
X75469721Y-65426440D01*
X75035679Y-65246654D01*
X74574902Y-65155000D01*
X74105098Y-65155000D01*
X73644321Y-65246654D01*
X73210279Y-65426440D01*
X72819651Y-65687450D01*
X72487450Y-66019651D01*
X72226440Y-66410279D01*
X72046654Y-66844321D01*
X71955000Y-67305098D01*
X70660000Y-67305098D01*
X70660000Y-56400000D01*
X84431928Y-56400000D01*
X84431928Y-57600000D01*
X84448992Y-57773254D01*
X84499528Y-57939850D01*
X84581595Y-58093386D01*
X84692038Y-58227962D01*
X84826614Y-58338405D01*
X84980150Y-58420472D01*
X85146746Y-58471008D01*
X85320000Y-58488072D01*
X85986494Y-58488072D01*
X90910921Y-63412500D01*
X90874514Y-63412500D01*
X90641296Y-63435470D01*
X90342051Y-63526245D01*
X90066265Y-63673655D01*
X89824537Y-63872037D01*
X89626155Y-64113765D01*
X89478745Y-64389551D01*
X89387970Y-64688796D01*
X89357319Y-65000000D01*
X89387970Y-65311204D01*
X89478745Y-65610449D01*
X89626155Y-65886235D01*
X89824537Y-66127963D01*
X89997609Y-66270000D01*
X89824537Y-66412037D01*
X89626155Y-66653765D01*
X89478745Y-66929551D01*
X89387970Y-67228796D01*
X89357319Y-67540000D01*
X89387970Y-67851204D01*
X89478745Y-68150449D01*
X89626155Y-68426235D01*
X89729446Y-68552095D01*
X89645506Y-68596963D01*
X89548815Y-68676315D01*
X89469463Y-68773006D01*
X89410498Y-68883320D01*
X89374188Y-69003018D01*
X89361928Y-69127500D01*
X89361928Y-71032500D01*
X89374188Y-71156982D01*
X89410498Y-71276680D01*
X89469463Y-71386994D01*
X89548815Y-71483685D01*
X89645506Y-71563037D01*
X89755820Y-71622002D01*
X89875518Y-71658312D01*
X90000000Y-71670572D01*
X92000000Y-71670572D01*
X92124482Y-71658312D01*
X92244180Y-71622002D01*
X92354494Y-71563037D01*
X92451185Y-71483685D01*
X92530537Y-71386994D01*
X92589502Y-71276680D01*
X92625812Y-71156982D01*
X92638072Y-71032500D01*
X92638072Y-69889650D01*
X95864655Y-73116233D01*
X95728320Y-73320273D01*
X95620147Y-73581426D01*
X95565000Y-73858665D01*
X95565000Y-74141335D01*
X95620147Y-74418574D01*
X95728320Y-74679727D01*
X95885363Y-74914759D01*
X96085241Y-75114637D01*
X96320273Y-75271680D01*
X96581426Y-75379853D01*
X96858665Y-75435000D01*
X97141335Y-75435000D01*
X97418574Y-75379853D01*
X97679727Y-75271680D01*
X97914759Y-75114637D01*
X98114637Y-74914759D01*
X98271680Y-74679727D01*
X98379853Y-74418574D01*
X98435000Y-74141335D01*
X98435000Y-73858665D01*
X98379853Y-73581426D01*
X98271680Y-73320273D01*
X98114637Y-73085241D01*
X97914759Y-72885363D01*
X97875401Y-72859065D01*
X97872195Y-72826510D01*
X97821589Y-72659687D01*
X97739411Y-72505941D01*
X97628817Y-72371183D01*
X97595051Y-72343472D01*
X92626414Y-67374836D01*
X92612030Y-67228796D01*
X92521255Y-66929551D01*
X92373845Y-66653765D01*
X92175463Y-66412037D01*
X92002391Y-66270000D01*
X92175463Y-66127963D01*
X92189435Y-66110938D01*
X92260589Y-66244058D01*
X92371183Y-66378817D01*
X92404956Y-66406534D01*
X103778727Y-77780306D01*
X103757089Y-78000000D01*
X103788657Y-78320516D01*
X103882148Y-78628715D01*
X104033969Y-78912752D01*
X104238286Y-79161714D01*
X104487248Y-79366031D01*
X104771285Y-79517852D01*
X105079484Y-79611343D01*
X105319678Y-79635000D01*
X106680322Y-79635000D01*
X106920516Y-79611343D01*
X107228715Y-79517852D01*
X107512752Y-79366031D01*
X107761714Y-79161714D01*
X107966031Y-78912752D01*
X108117852Y-78628715D01*
X108211343Y-78320516D01*
X108242911Y-78000000D01*
X108211343Y-77679484D01*
X108117852Y-77371285D01*
X107966031Y-77087248D01*
X107800051Y-76885000D01*
X108133422Y-76885000D01*
X108464896Y-77216474D01*
X108382148Y-77371285D01*
X108288657Y-77679484D01*
X108257089Y-78000000D01*
X108288657Y-78320516D01*
X108382148Y-78628715D01*
X108533969Y-78912752D01*
X108738286Y-79161714D01*
X108987248Y-79366031D01*
X109271285Y-79517852D01*
X109579484Y-79611343D01*
X109819678Y-79635000D01*
X111180322Y-79635000D01*
X111420516Y-79611343D01*
X111728715Y-79517852D01*
X112012752Y-79366031D01*
X112261714Y-79161714D01*
X112466031Y-78912752D01*
X112617852Y-78628715D01*
X112711343Y-78320516D01*
X112742911Y-78000000D01*
X112757089Y-78000000D01*
X112788657Y-78320516D01*
X112882148Y-78628715D01*
X113033969Y-78912752D01*
X113238286Y-79161714D01*
X113487248Y-79366031D01*
X113771285Y-79517852D01*
X114079484Y-79611343D01*
X114319678Y-79635000D01*
X115680322Y-79635000D01*
X115920516Y-79611343D01*
X116228715Y-79517852D01*
X116512752Y-79366031D01*
X116761714Y-79161714D01*
X116966031Y-78912752D01*
X117117852Y-78628715D01*
X117211343Y-78320516D01*
X117242911Y-78000000D01*
X117211343Y-77679484D01*
X117117852Y-77371285D01*
X116966031Y-77087248D01*
X116761714Y-76838286D01*
X116512752Y-76633969D01*
X116228715Y-76482148D01*
X115920516Y-76388657D01*
X115680322Y-76365000D01*
X114319678Y-76365000D01*
X114079484Y-76388657D01*
X113771285Y-76482148D01*
X113487248Y-76633969D01*
X113238286Y-76838286D01*
X113033969Y-77087248D01*
X112882148Y-77371285D01*
X112788657Y-77679484D01*
X112757089Y-78000000D01*
X112742911Y-78000000D01*
X112711343Y-77679484D01*
X112617852Y-77371285D01*
X112466031Y-77087248D01*
X112261714Y-76838286D01*
X112012752Y-76633969D01*
X111728715Y-76482148D01*
X111420516Y-76388657D01*
X111180322Y-76365000D01*
X110116578Y-76365000D01*
X109156534Y-75404956D01*
X109128817Y-75371183D01*
X108994059Y-75260589D01*
X108840313Y-75178411D01*
X108673490Y-75127805D01*
X108543477Y-75115000D01*
X108543469Y-75115000D01*
X108500000Y-75110719D01*
X108456531Y-75115000D01*
X106883386Y-75115000D01*
X106920516Y-75111343D01*
X107228715Y-75017852D01*
X107512752Y-74866031D01*
X107761714Y-74661714D01*
X107966031Y-74412752D01*
X108117852Y-74128715D01*
X108211343Y-73820516D01*
X108242911Y-73500000D01*
X108257089Y-73500000D01*
X108288657Y-73820516D01*
X108382148Y-74128715D01*
X108533969Y-74412752D01*
X108738286Y-74661714D01*
X108987248Y-74866031D01*
X109271285Y-75017852D01*
X109579484Y-75111343D01*
X109819678Y-75135000D01*
X111180322Y-75135000D01*
X111420516Y-75111343D01*
X111728715Y-75017852D01*
X112012752Y-74866031D01*
X112261714Y-74661714D01*
X112466031Y-74412752D01*
X112617852Y-74128715D01*
X112711343Y-73820516D01*
X112742911Y-73500000D01*
X112711343Y-73179484D01*
X112617852Y-72871285D01*
X112466031Y-72587248D01*
X112261714Y-72338286D01*
X112012752Y-72133969D01*
X111728715Y-71982148D01*
X111420516Y-71888657D01*
X111180322Y-71865000D01*
X109819678Y-71865000D01*
X109579484Y-71888657D01*
X109271285Y-71982148D01*
X108987248Y-72133969D01*
X108738286Y-72338286D01*
X108533969Y-72587248D01*
X108382148Y-72871285D01*
X108288657Y-73179484D01*
X108257089Y-73500000D01*
X108242911Y-73500000D01*
X108211343Y-73179484D01*
X108117852Y-72871285D01*
X107966031Y-72587248D01*
X107761714Y-72338286D01*
X107512752Y-72133969D01*
X107228715Y-71982148D01*
X106920516Y-71888657D01*
X106680322Y-71865000D01*
X105319678Y-71865000D01*
X105079484Y-71888657D01*
X104771285Y-71982148D01*
X104487248Y-72133969D01*
X104238286Y-72338286D01*
X104033969Y-72587248D01*
X103882148Y-72871285D01*
X103828783Y-73047205D01*
X95385000Y-64603423D01*
X95385000Y-63698665D01*
X95565000Y-63698665D01*
X95565000Y-63981335D01*
X95620147Y-64258574D01*
X95728320Y-64519727D01*
X95885363Y-64754759D01*
X96085241Y-64954637D01*
X96320273Y-65111680D01*
X96581426Y-65219853D01*
X96858665Y-65275000D01*
X97141335Y-65275000D01*
X97418574Y-65219853D01*
X97679727Y-65111680D01*
X97914759Y-64954637D01*
X98114637Y-64754759D01*
X98271680Y-64519727D01*
X98379853Y-64258574D01*
X98435000Y-63981335D01*
X98435000Y-63698665D01*
X98379853Y-63421426D01*
X98271680Y-63160273D01*
X98114637Y-62925241D01*
X97914759Y-62725363D01*
X97679727Y-62568320D01*
X97418574Y-62460147D01*
X97141335Y-62405000D01*
X96858665Y-62405000D01*
X96581426Y-62460147D01*
X96320273Y-62568320D01*
X96085241Y-62725363D01*
X95885363Y-62925241D01*
X95728320Y-63160273D01*
X95620147Y-63421426D01*
X95565000Y-63698665D01*
X95385000Y-63698665D01*
X95385000Y-63043465D01*
X95389281Y-62999999D01*
X95385000Y-62956533D01*
X95385000Y-62956523D01*
X95372195Y-62826510D01*
X95321589Y-62659687D01*
X95239411Y-62505941D01*
X95181191Y-62435000D01*
X95156532Y-62404953D01*
X95156530Y-62404951D01*
X95128817Y-62371183D01*
X95095049Y-62343470D01*
X91221593Y-58470015D01*
X91433158Y-58427932D01*
X91703411Y-58315990D01*
X91946632Y-58153475D01*
X92153475Y-57946632D01*
X92315990Y-57703411D01*
X92427932Y-57433158D01*
X92485000Y-57146260D01*
X92485000Y-56853740D01*
X92427932Y-56566842D01*
X92315990Y-56296589D01*
X92153475Y-56053368D01*
X91946632Y-55846525D01*
X91772240Y-55730000D01*
X91946632Y-55613475D01*
X92153475Y-55406632D01*
X92315990Y-55163411D01*
X92427932Y-54893158D01*
X92485000Y-54606260D01*
X92485000Y-54313740D01*
X92427932Y-54026842D01*
X92315990Y-53756589D01*
X92153475Y-53513368D01*
X91946632Y-53306525D01*
X91703411Y-53144010D01*
X91433158Y-53032068D01*
X91146260Y-52975000D01*
X90853740Y-52975000D01*
X90566842Y-53032068D01*
X90296589Y-53144010D01*
X90053368Y-53306525D01*
X89846525Y-53513368D01*
X89730000Y-53687760D01*
X89613475Y-53513368D01*
X89406632Y-53306525D01*
X89163411Y-53144010D01*
X88893158Y-53032068D01*
X88606260Y-52975000D01*
X88313740Y-52975000D01*
X88026842Y-53032068D01*
X87756589Y-53144010D01*
X87513368Y-53306525D01*
X87306525Y-53513368D01*
X87190689Y-53686729D01*
X86948397Y-53611208D01*
X86099605Y-54460000D01*
X86948397Y-55308792D01*
X87190689Y-55233271D01*
X87306525Y-55406632D01*
X87513368Y-55613475D01*
X87687760Y-55730000D01*
X87513368Y-55846525D01*
X87326285Y-56033608D01*
X87258405Y-55906614D01*
X87147962Y-55772038D01*
X87013386Y-55661595D01*
X86859850Y-55579528D01*
X86750707Y-55546420D01*
X86768792Y-55488397D01*
X85920000Y-54639605D01*
X85071208Y-55488397D01*
X85089293Y-55546420D01*
X84980150Y-55579528D01*
X84826614Y-55661595D01*
X84692038Y-55772038D01*
X84581595Y-55906614D01*
X84499528Y-56060150D01*
X84448992Y-56226746D01*
X84431928Y-56400000D01*
X70660000Y-56400000D01*
X70660000Y-54032278D01*
X70684748Y-53779872D01*
X71765000Y-53779872D01*
X71765000Y-54220128D01*
X71850890Y-54651925D01*
X72019369Y-55058669D01*
X72263962Y-55424729D01*
X72575271Y-55736038D01*
X72941331Y-55980631D01*
X73348075Y-56149110D01*
X73779872Y-56235000D01*
X74220128Y-56235000D01*
X74651925Y-56149110D01*
X75058669Y-55980631D01*
X75424729Y-55736038D01*
X75736038Y-55424729D01*
X75980631Y-55058669D01*
X76149110Y-54651925D01*
X76173654Y-54528531D01*
X84429389Y-54528531D01*
X84471401Y-54818019D01*
X84569081Y-55093747D01*
X84642528Y-55231157D01*
X84891603Y-55308792D01*
X85740395Y-54460000D01*
X84891603Y-53611208D01*
X84642528Y-53688843D01*
X84516629Y-53952883D01*
X84444661Y-54236411D01*
X84429389Y-54528531D01*
X76173654Y-54528531D01*
X76235000Y-54220128D01*
X76235000Y-53779872D01*
X76165725Y-53431603D01*
X85071208Y-53431603D01*
X85920000Y-54280395D01*
X86768792Y-53431603D01*
X86691157Y-53182528D01*
X86427117Y-53056629D01*
X86143589Y-52984661D01*
X85851469Y-52969389D01*
X85561981Y-53011401D01*
X85286253Y-53109081D01*
X85148843Y-53182528D01*
X85071208Y-53431603D01*
X76165725Y-53431603D01*
X76149110Y-53348075D01*
X75980631Y-52941331D01*
X75739198Y-52580000D01*
X105561928Y-52580000D01*
X105561928Y-54180000D01*
X105574188Y-54304482D01*
X105610498Y-54424180D01*
X105669463Y-54534494D01*
X105748815Y-54631185D01*
X105845506Y-54710537D01*
X105955820Y-54769502D01*
X106075518Y-54805812D01*
X106083961Y-54806643D01*
X105885363Y-55005241D01*
X105728320Y-55240273D01*
X105620147Y-55501426D01*
X105565000Y-55778665D01*
X105565000Y-56061335D01*
X105620147Y-56338574D01*
X105728320Y-56599727D01*
X105885363Y-56834759D01*
X106085241Y-57034637D01*
X106317759Y-57190000D01*
X106085241Y-57345363D01*
X105885363Y-57545241D01*
X105728320Y-57780273D01*
X105620147Y-58041426D01*
X105565000Y-58318665D01*
X105565000Y-58601335D01*
X105620147Y-58878574D01*
X105728320Y-59139727D01*
X105885363Y-59374759D01*
X106085241Y-59574637D01*
X106317759Y-59730000D01*
X106085241Y-59885363D01*
X105885363Y-60085241D01*
X105728320Y-60320273D01*
X105620147Y-60581426D01*
X105565000Y-60858665D01*
X105565000Y-61141335D01*
X105620147Y-61418574D01*
X105728320Y-61679727D01*
X105885363Y-61914759D01*
X106085241Y-62114637D01*
X106320273Y-62271680D01*
X106581426Y-62379853D01*
X106858665Y-62435000D01*
X107141335Y-62435000D01*
X107418574Y-62379853D01*
X107679727Y-62271680D01*
X107914759Y-62114637D01*
X108114637Y-61914759D01*
X108271680Y-61679727D01*
X108379853Y-61418574D01*
X108435000Y-61141335D01*
X108435000Y-60858665D01*
X108379853Y-60581426D01*
X108271680Y-60320273D01*
X108114637Y-60085241D01*
X107914759Y-59885363D01*
X107682241Y-59730000D01*
X107914759Y-59574637D01*
X108114637Y-59374759D01*
X108271680Y-59139727D01*
X108379853Y-58878574D01*
X108435000Y-58601335D01*
X108435000Y-58318665D01*
X108379853Y-58041426D01*
X108271680Y-57780273D01*
X108114637Y-57545241D01*
X107914759Y-57345363D01*
X107682241Y-57190000D01*
X107914759Y-57034637D01*
X108114637Y-56834759D01*
X108271680Y-56599727D01*
X108379853Y-56338574D01*
X108435000Y-56061335D01*
X108435000Y-55778665D01*
X108379853Y-55501426D01*
X108271680Y-55240273D01*
X108114637Y-55005241D01*
X107916039Y-54806643D01*
X107924482Y-54805812D01*
X108044180Y-54769502D01*
X108154494Y-54710537D01*
X108251185Y-54631185D01*
X108330537Y-54534494D01*
X108389502Y-54424180D01*
X108425812Y-54304482D01*
X108438072Y-54180000D01*
X108438072Y-53238665D01*
X113185000Y-53238665D01*
X113185000Y-53521335D01*
X113240147Y-53798574D01*
X113348320Y-54059727D01*
X113505363Y-54294759D01*
X113705241Y-54494637D01*
X113937759Y-54650000D01*
X113705241Y-54805363D01*
X113505363Y-55005241D01*
X113348320Y-55240273D01*
X113240147Y-55501426D01*
X113185000Y-55778665D01*
X113185000Y-56061335D01*
X113240147Y-56338574D01*
X113348320Y-56599727D01*
X113505363Y-56834759D01*
X113705241Y-57034637D01*
X113937759Y-57190000D01*
X113705241Y-57345363D01*
X113505363Y-57545241D01*
X113348320Y-57780273D01*
X113240147Y-58041426D01*
X113185000Y-58318665D01*
X113185000Y-58601335D01*
X113240147Y-58878574D01*
X113348320Y-59139727D01*
X113505363Y-59374759D01*
X113705241Y-59574637D01*
X113937759Y-59730000D01*
X113705241Y-59885363D01*
X113505363Y-60085241D01*
X113348320Y-60320273D01*
X113240147Y-60581426D01*
X113185000Y-60858665D01*
X113185000Y-61141335D01*
X113240147Y-61418574D01*
X113348320Y-61679727D01*
X113505363Y-61914759D01*
X113705241Y-62114637D01*
X113940273Y-62271680D01*
X114201426Y-62379853D01*
X114478665Y-62435000D01*
X114761335Y-62435000D01*
X115038574Y-62379853D01*
X115299727Y-62271680D01*
X115534759Y-62114637D01*
X115734637Y-61914759D01*
X115891680Y-61679727D01*
X115999853Y-61418574D01*
X116053276Y-61150000D01*
X124511928Y-61150000D01*
X124511928Y-62850000D01*
X124524188Y-62974482D01*
X124560498Y-63094180D01*
X124619463Y-63204494D01*
X124698815Y-63301185D01*
X124795506Y-63380537D01*
X124905820Y-63439502D01*
X124986466Y-63463966D01*
X124902412Y-63539731D01*
X124728359Y-63773080D01*
X124603175Y-64035901D01*
X124558524Y-64183110D01*
X124679845Y-64413000D01*
X125873000Y-64413000D01*
X125873000Y-64393000D01*
X126127000Y-64393000D01*
X126127000Y-64413000D01*
X127320155Y-64413000D01*
X127441476Y-64183110D01*
X127396825Y-64035901D01*
X127271641Y-63773080D01*
X127097588Y-63539731D01*
X127013534Y-63463966D01*
X127094180Y-63439502D01*
X127204494Y-63380537D01*
X127301185Y-63301185D01*
X127380537Y-63204494D01*
X127439502Y-63094180D01*
X127475812Y-62974482D01*
X127488072Y-62850000D01*
X127488072Y-61150000D01*
X127475812Y-61025518D01*
X127439502Y-60905820D01*
X127380537Y-60795506D01*
X127301185Y-60698815D01*
X127204494Y-60619463D01*
X127094180Y-60560498D01*
X126974482Y-60524188D01*
X126850000Y-60511928D01*
X125150000Y-60511928D01*
X125025518Y-60524188D01*
X124905820Y-60560498D01*
X124795506Y-60619463D01*
X124698815Y-60698815D01*
X124619463Y-60795506D01*
X124560498Y-60905820D01*
X124524188Y-61025518D01*
X124511928Y-61150000D01*
X116053276Y-61150000D01*
X116055000Y-61141335D01*
X116055000Y-60858665D01*
X115999853Y-60581426D01*
X115891680Y-60320273D01*
X115734637Y-60085241D01*
X115534759Y-59885363D01*
X115302241Y-59730000D01*
X115534759Y-59574637D01*
X115734637Y-59374759D01*
X115891680Y-59139727D01*
X115999853Y-58878574D01*
X116055000Y-58601335D01*
X116055000Y-58318665D01*
X115999853Y-58041426D01*
X115891680Y-57780273D01*
X115734637Y-57545241D01*
X115534759Y-57345363D01*
X115302241Y-57190000D01*
X115534759Y-57034637D01*
X115734637Y-56834759D01*
X115891680Y-56599727D01*
X115999853Y-56338574D01*
X116055000Y-56061335D01*
X116055000Y-55778665D01*
X115999853Y-55501426D01*
X115891680Y-55240273D01*
X115734637Y-55005241D01*
X115534759Y-54805363D01*
X115302241Y-54650000D01*
X115534759Y-54494637D01*
X115734637Y-54294759D01*
X115891680Y-54059727D01*
X115999853Y-53798574D01*
X116055000Y-53521335D01*
X116055000Y-53238665D01*
X115999853Y-52961426D01*
X115891680Y-52700273D01*
X115734637Y-52465241D01*
X115534759Y-52265363D01*
X115299727Y-52108320D01*
X115038574Y-52000147D01*
X114761335Y-51945000D01*
X114478665Y-51945000D01*
X114201426Y-52000147D01*
X113940273Y-52108320D01*
X113705241Y-52265363D01*
X113505363Y-52465241D01*
X113348320Y-52700273D01*
X113240147Y-52961426D01*
X113185000Y-53238665D01*
X108438072Y-53238665D01*
X108438072Y-52580000D01*
X108425812Y-52455518D01*
X108389502Y-52335820D01*
X108330537Y-52225506D01*
X108251185Y-52128815D01*
X108154494Y-52049463D01*
X108044180Y-51990498D01*
X107924482Y-51954188D01*
X107800000Y-51941928D01*
X106200000Y-51941928D01*
X106075518Y-51954188D01*
X105955820Y-51990498D01*
X105845506Y-52049463D01*
X105748815Y-52128815D01*
X105669463Y-52225506D01*
X105610498Y-52335820D01*
X105574188Y-52455518D01*
X105561928Y-52580000D01*
X75739198Y-52580000D01*
X75736038Y-52575271D01*
X75424729Y-52263962D01*
X75058669Y-52019369D01*
X74651925Y-51850890D01*
X74220128Y-51765000D01*
X73779872Y-51765000D01*
X73348075Y-51850890D01*
X72941331Y-52019369D01*
X72575271Y-52263962D01*
X72263962Y-52575271D01*
X72019369Y-52941331D01*
X71850890Y-53348075D01*
X71765000Y-53779872D01*
X70684748Y-53779872D01*
X70726714Y-53351874D01*
X70914943Y-52728428D01*
X71220681Y-52153421D01*
X71632279Y-51648753D01*
X72134067Y-51233638D01*
X72706924Y-50923895D01*
X73329039Y-50731318D01*
X74007584Y-50660000D01*
X124095845Y-50660000D01*
X123555330Y-51021161D01*
G37*
%TD.AperFunction*%
%TD*%
M02*
