%TF.GenerationSoftware,KiCad,Pcbnew,(5.1.8-0-10_14)*%
%TF.CreationDate,2020-12-10T20:15:51+01:00*%
%TF.ProjectId,tiny-12V-programmer,74696e79-2d31-4325-962d-70726f677261,rev?*%
%TF.SameCoordinates,Original*%
%TF.FileFunction,Legend,Top*%
%TF.FilePolarity,Positive*%
%FSLAX46Y46*%
G04 Gerber Fmt 4.6, Leading zero omitted, Abs format (unit mm)*
G04 Created by KiCad (PCBNEW (5.1.8-0-10_14)) date 2020-12-10 20:15:51*
%MOMM*%
%LPD*%
G01*
G04 APERTURE LIST*
%ADD10C,0.150000*%
%ADD11C,0.300000*%
%ADD12C,0.120000*%
G04 APERTURE END LIST*
D10*
X118023809Y-81452380D02*
X118023809Y-80785714D01*
X118023809Y-80976190D02*
X118071428Y-80880952D01*
X118119047Y-80833333D01*
X118214285Y-80785714D01*
X118309523Y-80785714D01*
X119071428Y-80785714D02*
X119071428Y-81452380D01*
X118642857Y-80785714D02*
X118642857Y-81309523D01*
X118690476Y-81404761D01*
X118785714Y-81452380D01*
X118928571Y-81452380D01*
X119023809Y-81404761D01*
X119071428Y-81357142D01*
X119547619Y-80785714D02*
X119547619Y-81452380D01*
X119547619Y-80880952D02*
X119595238Y-80833333D01*
X119690476Y-80785714D01*
X119833333Y-80785714D01*
X119928571Y-80833333D01*
X119976190Y-80928571D01*
X119976190Y-81452380D01*
X114085595Y-65535714D02*
X114085595Y-66535714D01*
X114085595Y-65583333D02*
X114180833Y-65535714D01*
X114371309Y-65535714D01*
X114466547Y-65583333D01*
X114514166Y-65630952D01*
X114561785Y-65726190D01*
X114561785Y-66011904D01*
X114514166Y-66107142D01*
X114466547Y-66154761D01*
X114371309Y-66202380D01*
X114180833Y-66202380D01*
X114085595Y-66154761D01*
X114990357Y-66202380D02*
X114990357Y-65535714D01*
X114990357Y-65726190D02*
X115037976Y-65630952D01*
X115085595Y-65583333D01*
X115180833Y-65535714D01*
X115276071Y-65535714D01*
X115752261Y-66202380D02*
X115657023Y-66154761D01*
X115609404Y-66107142D01*
X115561785Y-66011904D01*
X115561785Y-65726190D01*
X115609404Y-65630952D01*
X115657023Y-65583333D01*
X115752261Y-65535714D01*
X115895119Y-65535714D01*
X115990357Y-65583333D01*
X116037976Y-65630952D01*
X116085595Y-65726190D01*
X116085595Y-66011904D01*
X116037976Y-66107142D01*
X115990357Y-66154761D01*
X115895119Y-66202380D01*
X115752261Y-66202380D01*
X116942738Y-65535714D02*
X116942738Y-66345238D01*
X116895119Y-66440476D01*
X116847500Y-66488095D01*
X116752261Y-66535714D01*
X116609404Y-66535714D01*
X116514166Y-66488095D01*
X116942738Y-66154761D02*
X116847500Y-66202380D01*
X116657023Y-66202380D01*
X116561785Y-66154761D01*
X116514166Y-66107142D01*
X116466547Y-66011904D01*
X116466547Y-65726190D01*
X116514166Y-65630952D01*
X116561785Y-65583333D01*
X116657023Y-65535714D01*
X116847500Y-65535714D01*
X116942738Y-65583333D01*
X117418928Y-66202380D02*
X117418928Y-65535714D01*
X117418928Y-65726190D02*
X117466547Y-65630952D01*
X117514166Y-65583333D01*
X117609404Y-65535714D01*
X117704642Y-65535714D01*
X118466547Y-66202380D02*
X118466547Y-65678571D01*
X118418928Y-65583333D01*
X118323690Y-65535714D01*
X118133214Y-65535714D01*
X118037976Y-65583333D01*
X118466547Y-66154761D02*
X118371309Y-66202380D01*
X118133214Y-66202380D01*
X118037976Y-66154761D01*
X117990357Y-66059523D01*
X117990357Y-65964285D01*
X118037976Y-65869047D01*
X118133214Y-65821428D01*
X118371309Y-65821428D01*
X118466547Y-65773809D01*
X118942738Y-66202380D02*
X118942738Y-65535714D01*
X118942738Y-65630952D02*
X118990357Y-65583333D01*
X119085595Y-65535714D01*
X119228452Y-65535714D01*
X119323690Y-65583333D01*
X119371309Y-65678571D01*
X119371309Y-66202380D01*
X119371309Y-65678571D02*
X119418928Y-65583333D01*
X119514166Y-65535714D01*
X119657023Y-65535714D01*
X119752261Y-65583333D01*
X119799880Y-65678571D01*
X119799880Y-66202380D01*
D11*
X72980714Y-75225000D02*
X73695000Y-75225000D01*
X72837857Y-75653571D02*
X73337857Y-74153571D01*
X73837857Y-75653571D01*
X74123571Y-74153571D02*
X74980714Y-74153571D01*
X74552142Y-75653571D02*
X74552142Y-74153571D01*
X75266428Y-74153571D02*
X76123571Y-74153571D01*
X75695000Y-75653571D02*
X75695000Y-74153571D01*
X76623571Y-75653571D02*
X76623571Y-74653571D01*
X76623571Y-74153571D02*
X76552142Y-74225000D01*
X76623571Y-74296428D01*
X76695000Y-74225000D01*
X76623571Y-74153571D01*
X76623571Y-74296428D01*
X77337857Y-74653571D02*
X77337857Y-75653571D01*
X77337857Y-74796428D02*
X77409285Y-74725000D01*
X77552142Y-74653571D01*
X77766428Y-74653571D01*
X77909285Y-74725000D01*
X77980714Y-74867857D01*
X77980714Y-75653571D01*
X78552142Y-74653571D02*
X78909285Y-75653571D01*
X79266428Y-74653571D02*
X78909285Y-75653571D01*
X78766428Y-76010714D01*
X78695000Y-76082142D01*
X78552142Y-76153571D01*
X80623571Y-75653571D02*
X79766428Y-75653571D01*
X80195000Y-75653571D02*
X80195000Y-74153571D01*
X80052142Y-74367857D01*
X79909285Y-74510714D01*
X79766428Y-74582142D01*
X81552142Y-74153571D02*
X81695000Y-74153571D01*
X81837857Y-74225000D01*
X81909285Y-74296428D01*
X81980714Y-74439285D01*
X82052142Y-74725000D01*
X82052142Y-75082142D01*
X81980714Y-75367857D01*
X81909285Y-75510714D01*
X81837857Y-75582142D01*
X81695000Y-75653571D01*
X81552142Y-75653571D01*
X81409285Y-75582142D01*
X81337857Y-75510714D01*
X81266428Y-75367857D01*
X81195000Y-75082142D01*
X81195000Y-74725000D01*
X81266428Y-74439285D01*
X81337857Y-74296428D01*
X81409285Y-74225000D01*
X81552142Y-74153571D01*
X73837857Y-78203571D02*
X72980714Y-78203571D01*
X73409285Y-78203571D02*
X73409285Y-76703571D01*
X73266428Y-76917857D01*
X73123571Y-77060714D01*
X72980714Y-77132142D01*
X74409285Y-76846428D02*
X74480714Y-76775000D01*
X74623571Y-76703571D01*
X74980714Y-76703571D01*
X75123571Y-76775000D01*
X75195000Y-76846428D01*
X75266428Y-76989285D01*
X75266428Y-77132142D01*
X75195000Y-77346428D01*
X74337857Y-78203571D01*
X75266428Y-78203571D01*
X75695000Y-76703571D02*
X76195000Y-78203571D01*
X76695000Y-76703571D01*
X78337857Y-77203571D02*
X78337857Y-78703571D01*
X78337857Y-77275000D02*
X78480714Y-77203571D01*
X78766428Y-77203571D01*
X78909285Y-77275000D01*
X78980714Y-77346428D01*
X79052142Y-77489285D01*
X79052142Y-77917857D01*
X78980714Y-78060714D01*
X78909285Y-78132142D01*
X78766428Y-78203571D01*
X78480714Y-78203571D01*
X78337857Y-78132142D01*
X79695000Y-78203571D02*
X79695000Y-77203571D01*
X79695000Y-77489285D02*
X79766428Y-77346428D01*
X79837857Y-77275000D01*
X79980714Y-77203571D01*
X80123571Y-77203571D01*
X80837857Y-78203571D02*
X80695000Y-78132142D01*
X80623571Y-78060714D01*
X80552142Y-77917857D01*
X80552142Y-77489285D01*
X80623571Y-77346428D01*
X80695000Y-77275000D01*
X80837857Y-77203571D01*
X81052142Y-77203571D01*
X81195000Y-77275000D01*
X81266428Y-77346428D01*
X81337857Y-77489285D01*
X81337857Y-77917857D01*
X81266428Y-78060714D01*
X81195000Y-78132142D01*
X81052142Y-78203571D01*
X80837857Y-78203571D01*
X82623571Y-77203571D02*
X82623571Y-78417857D01*
X82552142Y-78560714D01*
X82480714Y-78632142D01*
X82337857Y-78703571D01*
X82123571Y-78703571D01*
X81980714Y-78632142D01*
X82623571Y-78132142D02*
X82480714Y-78203571D01*
X82195000Y-78203571D01*
X82052142Y-78132142D01*
X81980714Y-78060714D01*
X81909285Y-77917857D01*
X81909285Y-77489285D01*
X81980714Y-77346428D01*
X82052142Y-77275000D01*
X82195000Y-77203571D01*
X82480714Y-77203571D01*
X82623571Y-77275000D01*
X83337857Y-78203571D02*
X83337857Y-77203571D01*
X83337857Y-77489285D02*
X83409285Y-77346428D01*
X83480714Y-77275000D01*
X83623571Y-77203571D01*
X83766428Y-77203571D01*
X84909285Y-78203571D02*
X84909285Y-77417857D01*
X84837857Y-77275000D01*
X84695000Y-77203571D01*
X84409285Y-77203571D01*
X84266428Y-77275000D01*
X84909285Y-78132142D02*
X84766428Y-78203571D01*
X84409285Y-78203571D01*
X84266428Y-78132142D01*
X84195000Y-77989285D01*
X84195000Y-77846428D01*
X84266428Y-77703571D01*
X84409285Y-77632142D01*
X84766428Y-77632142D01*
X84909285Y-77560714D01*
X85623571Y-78203571D02*
X85623571Y-77203571D01*
X85623571Y-77346428D02*
X85695000Y-77275000D01*
X85837857Y-77203571D01*
X86052142Y-77203571D01*
X86195000Y-77275000D01*
X86266428Y-77417857D01*
X86266428Y-78203571D01*
X86266428Y-77417857D02*
X86337857Y-77275000D01*
X86480714Y-77203571D01*
X86695000Y-77203571D01*
X86837857Y-77275000D01*
X86909285Y-77417857D01*
X86909285Y-78203571D01*
X87623571Y-78203571D02*
X87623571Y-77203571D01*
X87623571Y-77346428D02*
X87695000Y-77275000D01*
X87837857Y-77203571D01*
X88052142Y-77203571D01*
X88195000Y-77275000D01*
X88266428Y-77417857D01*
X88266428Y-78203571D01*
X88266428Y-77417857D02*
X88337857Y-77275000D01*
X88480714Y-77203571D01*
X88695000Y-77203571D01*
X88837857Y-77275000D01*
X88909285Y-77417857D01*
X88909285Y-78203571D01*
X90195000Y-78132142D02*
X90052142Y-78203571D01*
X89766428Y-78203571D01*
X89623571Y-78132142D01*
X89552142Y-77989285D01*
X89552142Y-77417857D01*
X89623571Y-77275000D01*
X89766428Y-77203571D01*
X90052142Y-77203571D01*
X90195000Y-77275000D01*
X90266428Y-77417857D01*
X90266428Y-77560714D01*
X89552142Y-77703571D01*
X90909285Y-78203571D02*
X90909285Y-77203571D01*
X90909285Y-77489285D02*
X90980714Y-77346428D01*
X91052142Y-77275000D01*
X91195000Y-77203571D01*
X91337857Y-77203571D01*
X73052142Y-94878571D02*
X73052142Y-93378571D01*
X73195000Y-94307142D02*
X73623571Y-94878571D01*
X73623571Y-93878571D02*
X73052142Y-94450000D01*
X74909285Y-94878571D02*
X74909285Y-94092857D01*
X74837857Y-93950000D01*
X74695000Y-93878571D01*
X74409285Y-93878571D01*
X74266428Y-93950000D01*
X74909285Y-94807142D02*
X74766428Y-94878571D01*
X74409285Y-94878571D01*
X74266428Y-94807142D01*
X74195000Y-94664285D01*
X74195000Y-94521428D01*
X74266428Y-94378571D01*
X74409285Y-94307142D01*
X74766428Y-94307142D01*
X74909285Y-94235714D01*
X75837857Y-94878571D02*
X75695000Y-94807142D01*
X75623571Y-94664285D01*
X75623571Y-93378571D01*
X76980714Y-94807142D02*
X76837857Y-94878571D01*
X76552142Y-94878571D01*
X76409285Y-94807142D01*
X76337857Y-94664285D01*
X76337857Y-94092857D01*
X76409285Y-93950000D01*
X76552142Y-93878571D01*
X76837857Y-93878571D01*
X76980714Y-93950000D01*
X77052142Y-94092857D01*
X77052142Y-94235714D01*
X76337857Y-94378571D01*
X77695000Y-94878571D02*
X77695000Y-93878571D01*
X77695000Y-93378571D02*
X77623571Y-93450000D01*
X77695000Y-93521428D01*
X77766428Y-93450000D01*
X77695000Y-93378571D01*
X77695000Y-93521428D01*
X79052142Y-94878571D02*
X79052142Y-93378571D01*
X79052142Y-94807142D02*
X78909285Y-94878571D01*
X78623571Y-94878571D01*
X78480714Y-94807142D01*
X78409285Y-94735714D01*
X78337857Y-94592857D01*
X78337857Y-94164285D01*
X78409285Y-94021428D01*
X78480714Y-93950000D01*
X78623571Y-93878571D01*
X78909285Y-93878571D01*
X79052142Y-93950000D01*
X79980714Y-94878571D02*
X79837857Y-94807142D01*
X79766428Y-94735714D01*
X79695000Y-94592857D01*
X79695000Y-94164285D01*
X79766428Y-94021428D01*
X79837857Y-93950000D01*
X79980714Y-93878571D01*
X80195000Y-93878571D01*
X80337857Y-93950000D01*
X80409285Y-94021428D01*
X80480714Y-94164285D01*
X80480714Y-94592857D01*
X80409285Y-94735714D01*
X80337857Y-94807142D01*
X80195000Y-94878571D01*
X79980714Y-94878571D01*
X81052142Y-94807142D02*
X81195000Y-94878571D01*
X81480714Y-94878571D01*
X81623571Y-94807142D01*
X81695000Y-94664285D01*
X81695000Y-94592857D01*
X81623571Y-94450000D01*
X81480714Y-94378571D01*
X81266428Y-94378571D01*
X81123571Y-94307142D01*
X81052142Y-94164285D01*
X81052142Y-94092857D01*
X81123571Y-93950000D01*
X81266428Y-93878571D01*
X81480714Y-93878571D01*
X81623571Y-93950000D01*
X82980714Y-94807142D02*
X82837857Y-94878571D01*
X82552142Y-94878571D01*
X82409285Y-94807142D01*
X82337857Y-94735714D01*
X82266428Y-94592857D01*
X82266428Y-94164285D01*
X82337857Y-94021428D01*
X82409285Y-93950000D01*
X82552142Y-93878571D01*
X82837857Y-93878571D01*
X82980714Y-93950000D01*
X83837857Y-94878571D02*
X83695000Y-94807142D01*
X83623571Y-94735714D01*
X83552142Y-94592857D01*
X83552142Y-94164285D01*
X83623571Y-94021428D01*
X83695000Y-93950000D01*
X83837857Y-93878571D01*
X84052142Y-93878571D01*
X84195000Y-93950000D01*
X84266428Y-94021428D01*
X84337857Y-94164285D01*
X84337857Y-94592857D01*
X84266428Y-94735714D01*
X84195000Y-94807142D01*
X84052142Y-94878571D01*
X83837857Y-94878571D01*
X84980714Y-93878571D02*
X84980714Y-95378571D01*
X84980714Y-93950000D02*
X85123571Y-93878571D01*
X85409285Y-93878571D01*
X85552142Y-93950000D01*
X85623571Y-94021428D01*
X85695000Y-94164285D01*
X85695000Y-94592857D01*
X85623571Y-94735714D01*
X85552142Y-94807142D01*
X85409285Y-94878571D01*
X85123571Y-94878571D01*
X84980714Y-94807142D01*
X86909285Y-94807142D02*
X86766428Y-94878571D01*
X86480714Y-94878571D01*
X86337857Y-94807142D01*
X86266428Y-94664285D01*
X86266428Y-94092857D01*
X86337857Y-93950000D01*
X86480714Y-93878571D01*
X86766428Y-93878571D01*
X86909285Y-93950000D01*
X86980714Y-94092857D01*
X86980714Y-94235714D01*
X86266428Y-94378571D01*
X72980714Y-96071428D02*
X73052142Y-96000000D01*
X73195000Y-95928571D01*
X73552142Y-95928571D01*
X73695000Y-96000000D01*
X73766428Y-96071428D01*
X73837857Y-96214285D01*
X73837857Y-96357142D01*
X73766428Y-96571428D01*
X72909285Y-97428571D01*
X73837857Y-97428571D01*
X74766428Y-95928571D02*
X74909285Y-95928571D01*
X75052142Y-96000000D01*
X75123571Y-96071428D01*
X75195000Y-96214285D01*
X75266428Y-96500000D01*
X75266428Y-96857142D01*
X75195000Y-97142857D01*
X75123571Y-97285714D01*
X75052142Y-97357142D01*
X74909285Y-97428571D01*
X74766428Y-97428571D01*
X74623571Y-97357142D01*
X74552142Y-97285714D01*
X74480714Y-97142857D01*
X74409285Y-96857142D01*
X74409285Y-96500000D01*
X74480714Y-96214285D01*
X74552142Y-96071428D01*
X74623571Y-96000000D01*
X74766428Y-95928571D01*
X75837857Y-96071428D02*
X75909285Y-96000000D01*
X76052142Y-95928571D01*
X76409285Y-95928571D01*
X76552142Y-96000000D01*
X76623571Y-96071428D01*
X76695000Y-96214285D01*
X76695000Y-96357142D01*
X76623571Y-96571428D01*
X75766428Y-97428571D01*
X76695000Y-97428571D01*
X77623571Y-95928571D02*
X77766428Y-95928571D01*
X77909285Y-96000000D01*
X77980714Y-96071428D01*
X78052142Y-96214285D01*
X78123571Y-96500000D01*
X78123571Y-96857142D01*
X78052142Y-97142857D01*
X77980714Y-97285714D01*
X77909285Y-97357142D01*
X77766428Y-97428571D01*
X77623571Y-97428571D01*
X77480714Y-97357142D01*
X77409285Y-97285714D01*
X77337857Y-97142857D01*
X77266428Y-96857142D01*
X77266428Y-96500000D01*
X77337857Y-96214285D01*
X77409285Y-96071428D01*
X77480714Y-96000000D01*
X77623571Y-95928571D01*
X72909285Y-98978571D02*
X73266428Y-99978571D01*
X73623571Y-98978571D01*
X74980714Y-99978571D02*
X74123571Y-99978571D01*
X74552142Y-99978571D02*
X74552142Y-98478571D01*
X74409285Y-98692857D01*
X74266428Y-98835714D01*
X74123571Y-98907142D01*
D12*
%TO.C,J8*%
X124670000Y-60670000D02*
X126000000Y-60670000D01*
X124670000Y-62000000D02*
X124670000Y-60670000D01*
X124670000Y-63270000D02*
X127330000Y-63270000D01*
X127330000Y-63270000D02*
X127330000Y-68410000D01*
X124670000Y-63270000D02*
X124670000Y-68410000D01*
X124670000Y-68410000D02*
X127330000Y-68410000D01*
%TO.C,U2*%
X79950000Y-82550000D02*
X82610000Y-82550000D01*
X79950000Y-82550000D02*
X79950000Y-90230000D01*
X79950000Y-90230000D02*
X82610000Y-90230000D01*
X82610000Y-82550000D02*
X82610000Y-90230000D01*
X74870000Y-82550000D02*
X77530000Y-82550000D01*
X74870000Y-82550000D02*
X74870000Y-90230000D01*
X74870000Y-90230000D02*
X77530000Y-90230000D01*
X77530000Y-82550000D02*
X77530000Y-90230000D01*
%TO.C,U1*%
X113460000Y-52050000D02*
X111810000Y-52050000D01*
X113460000Y-62330000D02*
X113460000Y-52050000D01*
X108160000Y-62330000D02*
X113460000Y-62330000D01*
X108160000Y-52050000D02*
X108160000Y-62330000D01*
X109810000Y-52050000D02*
X108160000Y-52050000D01*
X111810000Y-52050000D02*
G75*
G02*
X109810000Y-52050000I-1000000J0D01*
G01*
%TO.C,SW2*%
X101100000Y-80100000D02*
X101100000Y-66900000D01*
X119900000Y-80100000D02*
X101100000Y-80100000D01*
X119900000Y-66900000D02*
X119900000Y-80100000D01*
X101100000Y-66900000D02*
X119900000Y-66900000D01*
%TO.C,SW1*%
X80770000Y-107550000D02*
X87230000Y-107550000D01*
X80770000Y-103020000D02*
X80770000Y-105620000D01*
X80770000Y-101090000D02*
X87230000Y-101090000D01*
X87230000Y-103020000D02*
X87230000Y-105620000D01*
X80770000Y-101120000D02*
X80770000Y-101090000D01*
X80770000Y-107550000D02*
X80770000Y-107520000D01*
X87230000Y-107550000D02*
X87230000Y-107520000D01*
X87230000Y-101090000D02*
X87230000Y-101120000D01*
%TO.C,R5*%
X124822936Y-89910000D02*
X126277064Y-89910000D01*
X124822936Y-88090000D02*
X126277064Y-88090000D01*
%TO.C,R4*%
X103735000Y-60227064D02*
X103735000Y-59772936D01*
X102265000Y-60227064D02*
X102265000Y-59772936D01*
%TO.C,R3*%
X97000000Y-64880000D02*
X97000000Y-65650000D01*
X97000000Y-72960000D02*
X97000000Y-72190000D01*
X95630000Y-65650000D02*
X95630000Y-72190000D01*
X98370000Y-65650000D02*
X95630000Y-65650000D01*
X98370000Y-72190000D02*
X98370000Y-65650000D01*
X95630000Y-72190000D02*
X98370000Y-72190000D01*
%TO.C,R2*%
X118265000Y-56772936D02*
X118265000Y-57227064D01*
X119735000Y-56772936D02*
X119735000Y-57227064D01*
%TO.C,R1*%
X102265000Y-54772936D02*
X102265000Y-55227064D01*
X103735000Y-54772936D02*
X103735000Y-55227064D01*
%TO.C,Q1*%
X87310000Y-65000000D02*
X89850000Y-65000000D01*
X87310000Y-67540000D02*
X89850000Y-67540000D01*
X87310000Y-70080000D02*
X89850000Y-70080000D01*
X71420000Y-62420000D02*
X87310000Y-62420000D01*
X71420000Y-72660000D02*
X87310000Y-72660000D01*
X71420000Y-72660000D02*
X71420000Y-62420000D01*
X87310000Y-72660000D02*
X87310000Y-62420000D01*
%TO.C,J10*%
X100270000Y-106680000D02*
X100270000Y-105350000D01*
X100270000Y-105350000D02*
X101600000Y-105350000D01*
X102870000Y-105350000D02*
X120710000Y-105350000D01*
X120710000Y-108010000D02*
X120710000Y-105350000D01*
X102870000Y-108010000D02*
X120710000Y-108010000D01*
X102870000Y-108010000D02*
X102870000Y-105350000D01*
%TO.C,J9*%
X100270000Y-88900000D02*
X100270000Y-87570000D01*
X100270000Y-87570000D02*
X101600000Y-87570000D01*
X102870000Y-87570000D02*
X120710000Y-87570000D01*
X120710000Y-90230000D02*
X120710000Y-87570000D01*
X102870000Y-90230000D02*
X120710000Y-90230000D01*
X102870000Y-90230000D02*
X102870000Y-87570000D01*
%TO.C,J7*%
X119380000Y-95190000D02*
X120710000Y-95190000D01*
X120710000Y-95190000D02*
X120710000Y-96520000D01*
X120710000Y-97790000D02*
X120710000Y-100390000D01*
X118050000Y-100390000D02*
X120710000Y-100390000D01*
X118050000Y-97790000D02*
X118050000Y-100390000D01*
X118050000Y-97790000D02*
X120710000Y-97790000D01*
%TO.C,J6*%
X114300000Y-95190000D02*
X115630000Y-95190000D01*
X115630000Y-95190000D02*
X115630000Y-96520000D01*
X115630000Y-97790000D02*
X115630000Y-100390000D01*
X112970000Y-100390000D02*
X115630000Y-100390000D01*
X112970000Y-97790000D02*
X112970000Y-100390000D01*
X112970000Y-97790000D02*
X115630000Y-97790000D01*
%TO.C,J5*%
X109220000Y-95190000D02*
X110550000Y-95190000D01*
X110550000Y-95190000D02*
X110550000Y-96520000D01*
X110550000Y-97790000D02*
X110550000Y-100390000D01*
X107890000Y-100390000D02*
X110550000Y-100390000D01*
X107890000Y-97790000D02*
X107890000Y-100390000D01*
X107890000Y-97790000D02*
X110550000Y-97790000D01*
%TO.C,J4*%
X86420000Y-61680000D02*
X85920000Y-60680000D01*
X85420000Y-61680000D02*
X86420000Y-61680000D01*
X85920000Y-60680000D02*
X85420000Y-61680000D01*
X90510000Y-58980000D02*
X90510000Y-60290000D01*
X90510000Y-58980000D02*
X90510000Y-58980000D01*
X94910000Y-58980000D02*
X90510000Y-58980000D01*
X94910000Y-52480000D02*
X94910000Y-58980000D01*
X82010000Y-52480000D02*
X94910000Y-52480000D01*
X82010000Y-58980000D02*
X82010000Y-52480000D01*
X86410000Y-58980000D02*
X82010000Y-58980000D01*
X86410000Y-60290000D02*
X86410000Y-58980000D01*
X96210000Y-60290000D02*
X80710000Y-60290000D01*
X96210000Y-51170000D02*
X96210000Y-60290000D01*
X80710000Y-51170000D02*
X96210000Y-51170000D01*
X80710000Y-60290000D02*
X80710000Y-51170000D01*
%TO.C,J3*%
X104140000Y-95190000D02*
X105470000Y-95190000D01*
X105470000Y-95190000D02*
X105470000Y-96520000D01*
X105470000Y-97790000D02*
X105470000Y-100390000D01*
X102810000Y-100390000D02*
X105470000Y-100390000D01*
X102810000Y-97790000D02*
X102810000Y-100390000D01*
X102810000Y-97790000D02*
X105470000Y-97790000D01*
%TO.C,J2*%
X92650000Y-93980000D02*
X92650000Y-92650000D01*
X92650000Y-92650000D02*
X93980000Y-92650000D01*
X95250000Y-92650000D02*
X97850000Y-92650000D01*
X97850000Y-95310000D02*
X97850000Y-92650000D01*
X95250000Y-95310000D02*
X97850000Y-95310000D01*
X95250000Y-95310000D02*
X95250000Y-92650000D01*
%TO.C,J1*%
X92650000Y-101600000D02*
X92650000Y-100270000D01*
X92650000Y-100270000D02*
X93980000Y-100270000D01*
X95250000Y-100270000D02*
X97850000Y-100270000D01*
X97850000Y-102930000D02*
X97850000Y-100270000D01*
X95250000Y-102930000D02*
X97850000Y-102930000D01*
X95250000Y-102930000D02*
X95250000Y-100270000D01*
%TO.C,D1*%
X126760000Y-97630000D02*
X125300000Y-97630000D01*
X126760000Y-94470000D02*
X124600000Y-94470000D01*
X126760000Y-94470000D02*
X126760000Y-95400000D01*
X126760000Y-97630000D02*
X126760000Y-96700000D01*
%TO.C,J8*%
D10*
X125416666Y-58952380D02*
X125416666Y-59666666D01*
X125369047Y-59809523D01*
X125273809Y-59904761D01*
X125130952Y-59952380D01*
X125035714Y-59952380D01*
X126035714Y-59380952D02*
X125940476Y-59333333D01*
X125892857Y-59285714D01*
X125845238Y-59190476D01*
X125845238Y-59142857D01*
X125892857Y-59047619D01*
X125940476Y-59000000D01*
X126035714Y-58952380D01*
X126226190Y-58952380D01*
X126321428Y-59000000D01*
X126369047Y-59047619D01*
X126416666Y-59142857D01*
X126416666Y-59190476D01*
X126369047Y-59285714D01*
X126321428Y-59333333D01*
X126226190Y-59380952D01*
X126035714Y-59380952D01*
X125940476Y-59428571D01*
X125892857Y-59476190D01*
X125845238Y-59571428D01*
X125845238Y-59761904D01*
X125892857Y-59857142D01*
X125940476Y-59904761D01*
X126035714Y-59952380D01*
X126226190Y-59952380D01*
X126321428Y-59904761D01*
X126369047Y-59857142D01*
X126416666Y-59761904D01*
X126416666Y-59571428D01*
X126369047Y-59476190D01*
X126321428Y-59428571D01*
X126226190Y-59380952D01*
%TO.C,U2*%
X77988095Y-80702380D02*
X77988095Y-81511904D01*
X78035714Y-81607142D01*
X78083333Y-81654761D01*
X78178571Y-81702380D01*
X78369047Y-81702380D01*
X78464285Y-81654761D01*
X78511904Y-81607142D01*
X78559523Y-81511904D01*
X78559523Y-80702380D01*
X78988095Y-80797619D02*
X79035714Y-80750000D01*
X79130952Y-80702380D01*
X79369047Y-80702380D01*
X79464285Y-80750000D01*
X79511904Y-80797619D01*
X79559523Y-80892857D01*
X79559523Y-80988095D01*
X79511904Y-81130952D01*
X78940476Y-81702380D01*
X79559523Y-81702380D01*
%TO.C,U1*%
X110048095Y-50502380D02*
X110048095Y-51311904D01*
X110095714Y-51407142D01*
X110143333Y-51454761D01*
X110238571Y-51502380D01*
X110429047Y-51502380D01*
X110524285Y-51454761D01*
X110571904Y-51407142D01*
X110619523Y-51311904D01*
X110619523Y-50502380D01*
X111619523Y-51502380D02*
X111048095Y-51502380D01*
X111333809Y-51502380D02*
X111333809Y-50502380D01*
X111238571Y-50645238D01*
X111143333Y-50740476D01*
X111048095Y-50788095D01*
%TO.C,SW2*%
X101166666Y-66404761D02*
X101309523Y-66452380D01*
X101547619Y-66452380D01*
X101642857Y-66404761D01*
X101690476Y-66357142D01*
X101738095Y-66261904D01*
X101738095Y-66166666D01*
X101690476Y-66071428D01*
X101642857Y-66023809D01*
X101547619Y-65976190D01*
X101357142Y-65928571D01*
X101261904Y-65880952D01*
X101214285Y-65833333D01*
X101166666Y-65738095D01*
X101166666Y-65642857D01*
X101214285Y-65547619D01*
X101261904Y-65500000D01*
X101357142Y-65452380D01*
X101595238Y-65452380D01*
X101738095Y-65500000D01*
X102071428Y-65452380D02*
X102309523Y-66452380D01*
X102500000Y-65738095D01*
X102690476Y-66452380D01*
X102928571Y-65452380D01*
X103261904Y-65547619D02*
X103309523Y-65500000D01*
X103404761Y-65452380D01*
X103642857Y-65452380D01*
X103738095Y-65500000D01*
X103785714Y-65547619D01*
X103833333Y-65642857D01*
X103833333Y-65738095D01*
X103785714Y-65880952D01*
X103214285Y-66452380D01*
X103833333Y-66452380D01*
%TO.C,SW1*%
X82666666Y-100674761D02*
X82809523Y-100722380D01*
X83047619Y-100722380D01*
X83142857Y-100674761D01*
X83190476Y-100627142D01*
X83238095Y-100531904D01*
X83238095Y-100436666D01*
X83190476Y-100341428D01*
X83142857Y-100293809D01*
X83047619Y-100246190D01*
X82857142Y-100198571D01*
X82761904Y-100150952D01*
X82714285Y-100103333D01*
X82666666Y-100008095D01*
X82666666Y-99912857D01*
X82714285Y-99817619D01*
X82761904Y-99770000D01*
X82857142Y-99722380D01*
X83095238Y-99722380D01*
X83238095Y-99770000D01*
X83571428Y-99722380D02*
X83809523Y-100722380D01*
X84000000Y-100008095D01*
X84190476Y-100722380D01*
X84428571Y-99722380D01*
X85333333Y-100722380D02*
X84761904Y-100722380D01*
X85047619Y-100722380D02*
X85047619Y-99722380D01*
X84952380Y-99865238D01*
X84857142Y-99960476D01*
X84761904Y-100008095D01*
%TO.C,R5*%
X125383333Y-87632380D02*
X125050000Y-87156190D01*
X124811904Y-87632380D02*
X124811904Y-86632380D01*
X125192857Y-86632380D01*
X125288095Y-86680000D01*
X125335714Y-86727619D01*
X125383333Y-86822857D01*
X125383333Y-86965714D01*
X125335714Y-87060952D01*
X125288095Y-87108571D01*
X125192857Y-87156190D01*
X124811904Y-87156190D01*
X126288095Y-86632380D02*
X125811904Y-86632380D01*
X125764285Y-87108571D01*
X125811904Y-87060952D01*
X125907142Y-87013333D01*
X126145238Y-87013333D01*
X126240476Y-87060952D01*
X126288095Y-87108571D01*
X126335714Y-87203809D01*
X126335714Y-87441904D01*
X126288095Y-87537142D01*
X126240476Y-87584761D01*
X126145238Y-87632380D01*
X125907142Y-87632380D01*
X125811904Y-87584761D01*
X125764285Y-87537142D01*
%TO.C,R4*%
X102833333Y-63202380D02*
X102500000Y-62726190D01*
X102261904Y-63202380D02*
X102261904Y-62202380D01*
X102642857Y-62202380D01*
X102738095Y-62250000D01*
X102785714Y-62297619D01*
X102833333Y-62392857D01*
X102833333Y-62535714D01*
X102785714Y-62630952D01*
X102738095Y-62678571D01*
X102642857Y-62726190D01*
X102261904Y-62726190D01*
X103690476Y-62535714D02*
X103690476Y-63202380D01*
X103452380Y-62154761D02*
X103214285Y-62869047D01*
X103833333Y-62869047D01*
%TO.C,R3*%
X96833333Y-76452380D02*
X96500000Y-75976190D01*
X96261904Y-76452380D02*
X96261904Y-75452380D01*
X96642857Y-75452380D01*
X96738095Y-75500000D01*
X96785714Y-75547619D01*
X96833333Y-75642857D01*
X96833333Y-75785714D01*
X96785714Y-75880952D01*
X96738095Y-75928571D01*
X96642857Y-75976190D01*
X96261904Y-75976190D01*
X97166666Y-75452380D02*
X97785714Y-75452380D01*
X97452380Y-75833333D01*
X97595238Y-75833333D01*
X97690476Y-75880952D01*
X97738095Y-75928571D01*
X97785714Y-76023809D01*
X97785714Y-76261904D01*
X97738095Y-76357142D01*
X97690476Y-76404761D01*
X97595238Y-76452380D01*
X97309523Y-76452380D01*
X97214285Y-76404761D01*
X97166666Y-76357142D01*
%TO.C,R2*%
X118833333Y-54702380D02*
X118500000Y-54226190D01*
X118261904Y-54702380D02*
X118261904Y-53702380D01*
X118642857Y-53702380D01*
X118738095Y-53750000D01*
X118785714Y-53797619D01*
X118833333Y-53892857D01*
X118833333Y-54035714D01*
X118785714Y-54130952D01*
X118738095Y-54178571D01*
X118642857Y-54226190D01*
X118261904Y-54226190D01*
X119214285Y-53797619D02*
X119261904Y-53750000D01*
X119357142Y-53702380D01*
X119595238Y-53702380D01*
X119690476Y-53750000D01*
X119738095Y-53797619D01*
X119785714Y-53892857D01*
X119785714Y-53988095D01*
X119738095Y-54130952D01*
X119166666Y-54702380D01*
X119785714Y-54702380D01*
%TO.C,R1*%
X102833333Y-52702380D02*
X102500000Y-52226190D01*
X102261904Y-52702380D02*
X102261904Y-51702380D01*
X102642857Y-51702380D01*
X102738095Y-51750000D01*
X102785714Y-51797619D01*
X102833333Y-51892857D01*
X102833333Y-52035714D01*
X102785714Y-52130952D01*
X102738095Y-52178571D01*
X102642857Y-52226190D01*
X102261904Y-52226190D01*
X103785714Y-52702380D02*
X103214285Y-52702380D01*
X103500000Y-52702380D02*
X103500000Y-51702380D01*
X103404761Y-51845238D01*
X103309523Y-51940476D01*
X103214285Y-51988095D01*
%TO.C,Q1*%
X72404761Y-62047619D02*
X72309523Y-62000000D01*
X72214285Y-61904761D01*
X72071428Y-61761904D01*
X71976190Y-61714285D01*
X71880952Y-61714285D01*
X71928571Y-61952380D02*
X71833333Y-61904761D01*
X71738095Y-61809523D01*
X71690476Y-61619047D01*
X71690476Y-61285714D01*
X71738095Y-61095238D01*
X71833333Y-61000000D01*
X71928571Y-60952380D01*
X72119047Y-60952380D01*
X72214285Y-61000000D01*
X72309523Y-61095238D01*
X72357142Y-61285714D01*
X72357142Y-61619047D01*
X72309523Y-61809523D01*
X72214285Y-61904761D01*
X72119047Y-61952380D01*
X71928571Y-61952380D01*
X73309523Y-61952380D02*
X72738095Y-61952380D01*
X73023809Y-61952380D02*
X73023809Y-60952380D01*
X72928571Y-61095238D01*
X72833333Y-61190476D01*
X72738095Y-61238095D01*
%TO.C,J10*%
X109940476Y-103702380D02*
X109940476Y-104416666D01*
X109892857Y-104559523D01*
X109797619Y-104654761D01*
X109654761Y-104702380D01*
X109559523Y-104702380D01*
X110940476Y-104702380D02*
X110369047Y-104702380D01*
X110654761Y-104702380D02*
X110654761Y-103702380D01*
X110559523Y-103845238D01*
X110464285Y-103940476D01*
X110369047Y-103988095D01*
X111559523Y-103702380D02*
X111654761Y-103702380D01*
X111750000Y-103750000D01*
X111797619Y-103797619D01*
X111845238Y-103892857D01*
X111892857Y-104083333D01*
X111892857Y-104321428D01*
X111845238Y-104511904D01*
X111797619Y-104607142D01*
X111750000Y-104654761D01*
X111654761Y-104702380D01*
X111559523Y-104702380D01*
X111464285Y-104654761D01*
X111416666Y-104607142D01*
X111369047Y-104511904D01*
X111321428Y-104321428D01*
X111321428Y-104083333D01*
X111369047Y-103892857D01*
X111416666Y-103797619D01*
X111464285Y-103750000D01*
X111559523Y-103702380D01*
%TO.C,J9*%
X110166666Y-85952380D02*
X110166666Y-86666666D01*
X110119047Y-86809523D01*
X110023809Y-86904761D01*
X109880952Y-86952380D01*
X109785714Y-86952380D01*
X110690476Y-86952380D02*
X110880952Y-86952380D01*
X110976190Y-86904761D01*
X111023809Y-86857142D01*
X111119047Y-86714285D01*
X111166666Y-86523809D01*
X111166666Y-86142857D01*
X111119047Y-86047619D01*
X111071428Y-86000000D01*
X110976190Y-85952380D01*
X110785714Y-85952380D01*
X110690476Y-86000000D01*
X110642857Y-86047619D01*
X110595238Y-86142857D01*
X110595238Y-86380952D01*
X110642857Y-86476190D01*
X110690476Y-86523809D01*
X110785714Y-86571428D01*
X110976190Y-86571428D01*
X111071428Y-86523809D01*
X111119047Y-86476190D01*
X111166666Y-86380952D01*
%TO.C,J7*%
X119046666Y-93202380D02*
X119046666Y-93916666D01*
X118999047Y-94059523D01*
X118903809Y-94154761D01*
X118760952Y-94202380D01*
X118665714Y-94202380D01*
X119427619Y-93202380D02*
X120094285Y-93202380D01*
X119665714Y-94202380D01*
%TO.C,J6*%
X113966666Y-93202380D02*
X113966666Y-93916666D01*
X113919047Y-94059523D01*
X113823809Y-94154761D01*
X113680952Y-94202380D01*
X113585714Y-94202380D01*
X114871428Y-93202380D02*
X114680952Y-93202380D01*
X114585714Y-93250000D01*
X114538095Y-93297619D01*
X114442857Y-93440476D01*
X114395238Y-93630952D01*
X114395238Y-94011904D01*
X114442857Y-94107142D01*
X114490476Y-94154761D01*
X114585714Y-94202380D01*
X114776190Y-94202380D01*
X114871428Y-94154761D01*
X114919047Y-94107142D01*
X114966666Y-94011904D01*
X114966666Y-93773809D01*
X114919047Y-93678571D01*
X114871428Y-93630952D01*
X114776190Y-93583333D01*
X114585714Y-93583333D01*
X114490476Y-93630952D01*
X114442857Y-93678571D01*
X114395238Y-93773809D01*
%TO.C,J5*%
X108886666Y-93202380D02*
X108886666Y-93916666D01*
X108839047Y-94059523D01*
X108743809Y-94154761D01*
X108600952Y-94202380D01*
X108505714Y-94202380D01*
X109839047Y-93202380D02*
X109362857Y-93202380D01*
X109315238Y-93678571D01*
X109362857Y-93630952D01*
X109458095Y-93583333D01*
X109696190Y-93583333D01*
X109791428Y-93630952D01*
X109839047Y-93678571D01*
X109886666Y-93773809D01*
X109886666Y-94011904D01*
X109839047Y-94107142D01*
X109791428Y-94154761D01*
X109696190Y-94202380D01*
X109458095Y-94202380D01*
X109362857Y-94154761D01*
X109315238Y-94107142D01*
%TO.C,J4*%
X79166666Y-50952380D02*
X79166666Y-51666666D01*
X79119047Y-51809523D01*
X79023809Y-51904761D01*
X78880952Y-51952380D01*
X78785714Y-51952380D01*
X80071428Y-51285714D02*
X80071428Y-51952380D01*
X79833333Y-50904761D02*
X79595238Y-51619047D01*
X80214285Y-51619047D01*
%TO.C,J3*%
X103806666Y-93202380D02*
X103806666Y-93916666D01*
X103759047Y-94059523D01*
X103663809Y-94154761D01*
X103520952Y-94202380D01*
X103425714Y-94202380D01*
X104187619Y-93202380D02*
X104806666Y-93202380D01*
X104473333Y-93583333D01*
X104616190Y-93583333D01*
X104711428Y-93630952D01*
X104759047Y-93678571D01*
X104806666Y-93773809D01*
X104806666Y-94011904D01*
X104759047Y-94107142D01*
X104711428Y-94154761D01*
X104616190Y-94202380D01*
X104330476Y-94202380D01*
X104235238Y-94154761D01*
X104187619Y-94107142D01*
%TO.C,J2*%
X94916666Y-90952380D02*
X94916666Y-91666666D01*
X94869047Y-91809523D01*
X94773809Y-91904761D01*
X94630952Y-91952380D01*
X94535714Y-91952380D01*
X95345238Y-91047619D02*
X95392857Y-91000000D01*
X95488095Y-90952380D01*
X95726190Y-90952380D01*
X95821428Y-91000000D01*
X95869047Y-91047619D01*
X95916666Y-91142857D01*
X95916666Y-91238095D01*
X95869047Y-91380952D01*
X95297619Y-91952380D01*
X95916666Y-91952380D01*
%TO.C,J1*%
X94916666Y-98702380D02*
X94916666Y-99416666D01*
X94869047Y-99559523D01*
X94773809Y-99654761D01*
X94630952Y-99702380D01*
X94535714Y-99702380D01*
X95916666Y-99702380D02*
X95345238Y-99702380D01*
X95630952Y-99702380D02*
X95630952Y-98702380D01*
X95535714Y-98845238D01*
X95440476Y-98940476D01*
X95345238Y-98988095D01*
%TO.C,D1*%
X125261904Y-94002380D02*
X125261904Y-93002380D01*
X125500000Y-93002380D01*
X125642857Y-93050000D01*
X125738095Y-93145238D01*
X125785714Y-93240476D01*
X125833333Y-93430952D01*
X125833333Y-93573809D01*
X125785714Y-93764285D01*
X125738095Y-93859523D01*
X125642857Y-93954761D01*
X125500000Y-94002380D01*
X125261904Y-94002380D01*
X126785714Y-94002380D02*
X126214285Y-94002380D01*
X126500000Y-94002380D02*
X126500000Y-93002380D01*
X126404761Y-93145238D01*
X126309523Y-93240476D01*
X126214285Y-93288095D01*
%TD*%
M02*
