%TF.GenerationSoftware,KiCad,Pcbnew,(5.1.8-0-10_14)*%
%TF.CreationDate,2020-12-10T20:15:51+01:00*%
%TF.ProjectId,tiny-12V-programmer,74696e79-2d31-4325-962d-70726f677261,rev?*%
%TF.SameCoordinates,Original*%
%TF.FileFunction,Paste,Top*%
%TF.FilePolarity,Positive*%
%FSLAX46Y46*%
G04 Gerber Fmt 4.6, Leading zero omitted, Abs format (unit mm)*
G04 Created by KiCad (PCBNEW (5.1.8-0-10_14)) date 2020-12-10 20:15:51*
%MOMM*%
%LPD*%
G01*
G04 APERTURE LIST*
%ADD10R,1.550000X1.300000*%
%ADD11R,0.900000X0.800000*%
G04 APERTURE END LIST*
D10*
%TO.C,SW1*%
X87975000Y-106570000D03*
X87975000Y-102070000D03*
X80025000Y-102070000D03*
X80025000Y-106570000D03*
%TD*%
%TO.C,R5*%
G36*
G01*
X126450000Y-89625000D02*
X126450000Y-88375000D01*
G75*
G02*
X126700000Y-88125000I250000J0D01*
G01*
X127500000Y-88125000D01*
G75*
G02*
X127750000Y-88375000I0J-250000D01*
G01*
X127750000Y-89625000D01*
G75*
G02*
X127500000Y-89875000I-250000J0D01*
G01*
X126700000Y-89875000D01*
G75*
G02*
X126450000Y-89625000I0J250000D01*
G01*
G37*
G36*
G01*
X123350000Y-89625000D02*
X123350000Y-88375000D01*
G75*
G02*
X123600000Y-88125000I250000J0D01*
G01*
X124400000Y-88125000D01*
G75*
G02*
X124650000Y-88375000I0J-250000D01*
G01*
X124650000Y-89625000D01*
G75*
G02*
X124400000Y-89875000I-250000J0D01*
G01*
X123600000Y-89875000D01*
G75*
G02*
X123350000Y-89625000I0J250000D01*
G01*
G37*
%TD*%
%TO.C,R4*%
G36*
G01*
X103450001Y-59600000D02*
X102549999Y-59600000D01*
G75*
G02*
X102300000Y-59350001I0J249999D01*
G01*
X102300000Y-58649999D01*
G75*
G02*
X102549999Y-58400000I249999J0D01*
G01*
X103450001Y-58400000D01*
G75*
G02*
X103700000Y-58649999I0J-249999D01*
G01*
X103700000Y-59350001D01*
G75*
G02*
X103450001Y-59600000I-249999J0D01*
G01*
G37*
G36*
G01*
X103450001Y-61600000D02*
X102549999Y-61600000D01*
G75*
G02*
X102300000Y-61350001I0J249999D01*
G01*
X102300000Y-60649999D01*
G75*
G02*
X102549999Y-60400000I249999J0D01*
G01*
X103450001Y-60400000D01*
G75*
G02*
X103700000Y-60649999I0J-249999D01*
G01*
X103700000Y-61350001D01*
G75*
G02*
X103450001Y-61600000I-249999J0D01*
G01*
G37*
%TD*%
%TO.C,R2*%
G36*
G01*
X118549999Y-57400000D02*
X119450001Y-57400000D01*
G75*
G02*
X119700000Y-57649999I0J-249999D01*
G01*
X119700000Y-58350001D01*
G75*
G02*
X119450001Y-58600000I-249999J0D01*
G01*
X118549999Y-58600000D01*
G75*
G02*
X118300000Y-58350001I0J249999D01*
G01*
X118300000Y-57649999D01*
G75*
G02*
X118549999Y-57400000I249999J0D01*
G01*
G37*
G36*
G01*
X118549999Y-55400000D02*
X119450001Y-55400000D01*
G75*
G02*
X119700000Y-55649999I0J-249999D01*
G01*
X119700000Y-56350001D01*
G75*
G02*
X119450001Y-56600000I-249999J0D01*
G01*
X118549999Y-56600000D01*
G75*
G02*
X118300000Y-56350001I0J249999D01*
G01*
X118300000Y-55649999D01*
G75*
G02*
X118549999Y-55400000I249999J0D01*
G01*
G37*
%TD*%
%TO.C,R1*%
G36*
G01*
X102549999Y-55400000D02*
X103450001Y-55400000D01*
G75*
G02*
X103700000Y-55649999I0J-249999D01*
G01*
X103700000Y-56350001D01*
G75*
G02*
X103450001Y-56600000I-249999J0D01*
G01*
X102549999Y-56600000D01*
G75*
G02*
X102300000Y-56350001I0J249999D01*
G01*
X102300000Y-55649999D01*
G75*
G02*
X102549999Y-55400000I249999J0D01*
G01*
G37*
G36*
G01*
X102549999Y-53400000D02*
X103450001Y-53400000D01*
G75*
G02*
X103700000Y-53649999I0J-249999D01*
G01*
X103700000Y-54350001D01*
G75*
G02*
X103450001Y-54600000I-249999J0D01*
G01*
X102549999Y-54600000D01*
G75*
G02*
X102300000Y-54350001I0J249999D01*
G01*
X102300000Y-53649999D01*
G75*
G02*
X102549999Y-53400000I249999J0D01*
G01*
G37*
%TD*%
D11*
%TO.C,D1*%
X127000000Y-96050000D03*
X125000000Y-97000000D03*
X125000000Y-95100000D03*
%TD*%
M02*
